<svg width="51" height="11" viewBox="0 0 51 11" fill="none" xmlns="http://www.w3.org/2000/svg">
<path d="M50.4726 5.82415C50.7336 5.56315 50.7336 5.13998 50.4726 4.87898L46.2193 0.62569C45.9583 0.364687 45.5351 0.364687 45.2741 0.62569C45.0131 0.886693 45.0131 1.30986 45.2741 1.57086L49.0548 5.35156L45.2741 9.13226C45.0131 9.39326 45.0131 9.81643 45.2741 10.0774C45.5351 10.3384 45.9583 10.3384 46.2193 10.0774L50.4726 5.82415ZM0 5.35156V6.0199H2.5V5.35156V4.68322H0V5.35156ZM7.5 5.35156V6.0199H12.5V5.35156V4.68322H7.5V5.35156ZM17.5 5.35156V6.0199H22.5V5.35156V4.68322H17.5V5.35156ZM27.5 5.35156V6.0199H32.5V5.35156V4.68322H27.5V5.35156ZM37.5 5.35156V6.0199H42.5V5.35156V4.68322H37.5V5.35156ZM47.5 5.35156V6.0199H50V5.35156V4.68322H47.5V5.35156Z" fill="white"/>
</svg>
