<svg width="32" height="32" viewBox="0 0 32 32" fill="none" xmlns="http://www.w3.org/2000/svg">
<path d="M4.58887 25.334L5.90887 26.654L8.74887 24.0273" stroke="#4E459E" stroke-width="0.6" stroke-linecap="round" stroke-linejoin="round"/>
<path d="M23.6682 9.40126C23.3482 9.34793 23.0149 9.33461 22.6682 9.33461H9.33488C8.96155 9.33461 8.60155 9.36127 8.25488 9.41461C8.44155 9.04127 8.70822 8.69465 9.02822 8.37465L13.3616 4.02797C15.1882 2.21464 18.1482 2.21464 19.9749 4.02797L22.3082 6.38791C23.1615 7.22791 23.6149 8.29459 23.6682 9.40126Z" fill="#DBDBDB"/>
<path d="M29.3337 15.9987V22.6654C29.3337 26.6654 26.667 29.332 22.667 29.332H10.1737C10.587 28.9854 10.947 28.5587 11.227 28.0787C11.7203 27.2787 12.0003 26.332 12.0003 25.332C12.0003 22.3854 9.61366 19.9987 6.66699 19.9987C5.06699 19.9987 3.64033 20.7053 2.66699 21.812V15.9987C2.66699 12.372 4.85366 9.83869 8.25366 9.41203C8.60032 9.35869 8.96033 9.33203 9.33366 9.33203H22.667C23.0137 9.33203 23.347 9.34535 23.667 9.39868C27.107 9.79868 29.3337 12.3454 29.3337 15.9987Z" fill="white"/>
<path d="M29.3337 16.668H25.3337C23.867 16.668 22.667 17.868 22.667 19.3346C22.667 20.8013 23.867 22.0013 25.3337 22.0013H29.3337" fill="#DBDBDB"/>
</svg>
