<svg width="32" height="32" viewBox="0 0 32 32" fill="none" xmlns="http://www.w3.org/2000/svg">
<path d="M23.7598 7.69266C21.4265 5.93266 18.7598 4.97266 15.9998 4.97266C11.2931 4.97266 6.90646 7.74599 3.85312 12.546C2.65312 14.426 2.65312 17.586 3.85312 19.466C4.90646 21.1193 6.13312 22.546 7.46646 23.6927" fill="white"/>
<path d="M19.3732 12.6266L12.6266 19.3732C11.7599 18.5066 11.2266 17.3199 11.2266 15.9999C11.2266 13.3599 13.3599 11.2266 15.9999 11.2266C17.3199 11.2266 18.5066 11.7599 19.3732 12.6266Z" fill="#4E459E" stroke="white" stroke-width="1.5" stroke-linecap="round" stroke-linejoin="round"/>
<path d="M11.2266 26.0409C12.7466 26.6809 14.3599 27.0276 15.9999 27.0276C20.7066 27.0276 25.0932 24.2542 28.1466 19.4542C29.3466 17.5742 29.3466 14.4142 28.1466 12.5342C27.7066 11.8409 27.2266 11.1876 26.7332 10.5742" fill="white"/>
<path d="M20.6799 16.9336C20.3333 18.8136 18.7999 20.3469 16.9199 20.6936" stroke="#4E459E" stroke-width="1.5" stroke-linecap="round" stroke-linejoin="round"/>
<path d="M12.627 19.375L2.66699 29.335" stroke="white" stroke-width="1.5" stroke-linecap="round" stroke-linejoin="round"/>
<path d="M29.333 2.66797L19.373 12.628" stroke="white" stroke-width="1.5" stroke-linecap="round" stroke-linejoin="round"/>
</svg>
