<svg width="32" height="32" viewBox="0 0 32 32" fill="none" xmlns="http://www.w3.org/2000/svg">
<path d="M9.97363 24.4673L14.107 27.6673C14.6403 28.2006 15.8403 28.4673 16.6403 28.4673H21.707C23.307 28.4673 25.0403 27.2673 25.4403 25.6673L28.6403 15.9339C29.307 14.0673 28.107 12.4673 26.107 12.4673H20.7736C19.9736 12.4673 19.307 11.8006 19.4403 10.8673L20.107 6.60061C20.3736 5.40061 19.5736 4.06728 18.3736 3.66728C17.307 3.26728 15.9736 3.80061 15.4403 4.60061L9.97363 12.7339" fill="white"/>
<path d="M3.17285 24.4672V11.4005C3.17285 9.53385 3.97285 8.86719 5.83952 8.86719H7.17285C9.03952 8.86719 9.83952 9.53385 9.83952 11.4005V24.4672C9.83952 26.3339 9.03952 27.0005 7.17285 27.0005H5.83952C3.97285 27.0005 3.17285 26.3339 3.17285 24.4672Z" fill="white"/>
</svg>
