<svg width="168" height="53" viewBox="0 0 168 53" fill="none" xmlns="http://www.w3.org/2000/svg">
<path fill-rule="evenodd" clip-rule="evenodd" d="M160.835 1.19372H0.834344V43.7356H160.835V1.19372ZM0.0625 0.421875V44.5075H161.606V0.421875H0.0625Z" fill="white"/>
<path fill-rule="evenodd" clip-rule="evenodd" d="M166.506 9.10778H6.50622V51.6497H166.506V9.10778ZM5.73438 8.33594V52.4215H167.278V8.33594H5.73438Z" fill="white"/>
<path d="M110.29 22.1172L105.389 34.2631H104.285L105.888 30.3304L102.5 22.1172H103.665L106.478 29.1657L109.201 22.1172H110.29Z" fill="white"/>
<path d="M96.419 21.9688C97.4072 21.9688 98.2139 22.2763 98.8391 22.8914C99.4643 23.4964 99.7769 24.3788 99.7769 25.5384V30.3786H98.7333V25.6594C98.7333 24.7619 98.5064 24.0763 98.0526 23.6023C97.6089 23.1284 96.9989 22.8914 96.2224 22.8914C95.4258 22.8914 94.7905 23.1435 94.3166 23.6477C93.8426 24.1519 93.6057 24.893 93.6057 25.8712V30.3786H92.5469V22.12H93.6057V23.5267C93.8678 23.0225 94.246 22.6393 94.7401 22.3771C95.2342 22.1049 95.7938 21.9688 96.419 21.9688Z" fill="white"/>
<path d="M88.2597 20.5579C88.0479 20.5579 87.8664 20.4823 87.7152 20.3311C87.5639 20.1798 87.4883 19.9932 87.4883 19.7714C87.4883 19.5496 87.5639 19.3681 87.7152 19.2269C87.8664 19.0756 88.0479 19 88.2597 19C88.4714 19 88.653 19.0756 88.8042 19.2269C88.9555 19.3681 89.0311 19.5496 89.0311 19.7714C89.0311 19.9932 88.9555 20.1798 88.8042 20.3311C88.653 20.4823 88.4714 20.5579 88.2597 20.5579ZM88.7891 22.1159V30.3745H87.7303V22.1159H88.7891Z" fill="white"/>
<path d="M83.9729 19.1875V30.3805H82.9141V19.1875H83.9729Z" fill="white"/>
<path d="M77.536 23.0115V28.1391C77.536 28.6433 77.6318 28.9912 77.8234 29.1828C78.0149 29.3743 78.3528 29.4701 78.8368 29.4701H79.8048V30.3777H78.6704C77.9242 30.3777 77.3696 30.2063 77.0066 29.8634C76.6436 29.5105 76.462 28.9357 76.462 28.1391V23.0115H75.3125V22.1191H76.462V20.0469H77.536V22.1191H79.8048V23.0115H77.536Z" fill="white"/>
<path d="M72.3785 22.1172V30.3758H71.3197V28.9237C71.0777 29.438 70.7046 29.8313 70.2004 30.1035C69.6962 30.3758 69.1315 30.5119 68.5063 30.5119C67.5181 30.5119 66.7114 30.2094 66.0862 29.6044C65.461 28.9893 65.1484 28.1019 65.1484 26.9423V22.1172H66.1921V26.8213C66.1921 27.7187 66.4139 28.4044 66.8576 28.8783C67.3114 29.3523 67.9265 29.5892 68.703 29.5892C69.4996 29.5892 70.1349 29.3372 70.6088 28.833C71.0827 28.3288 71.3197 27.5876 71.3197 26.6095V22.1172H72.3785Z" fill="white"/>
<path d="M56.6944 30.4794C55.7163 30.4794 54.8289 30.2525 54.0323 29.7987C53.2357 29.3349 52.6054 28.6946 52.1416 27.8778C51.6878 27.0509 51.4609 26.1182 51.4609 25.0795C51.4609 24.0409 51.6878 23.1132 52.1416 22.2964C52.6054 21.4696 53.2357 20.8292 54.0323 20.3755C54.8289 19.9116 55.7163 19.6797 56.6944 19.6797C57.6826 19.6797 58.575 19.9116 59.3716 20.3755C60.1683 20.8292 60.7935 21.4696 61.2472 22.2964C61.701 23.1132 61.9279 24.0409 61.9279 25.0795C61.9279 26.1182 61.701 27.0509 61.2472 27.8778C60.7935 28.6946 60.1683 29.3349 59.3716 29.7987C58.575 30.2525 57.6826 30.4794 56.6944 30.4794ZM56.6944 29.5567C57.4809 29.5567 58.1868 29.3752 58.812 29.0122C59.4372 28.6492 59.9313 28.1299 60.2943 27.4543C60.6573 26.7686 60.8388 25.977 60.8388 25.0795C60.8388 24.1821 60.6573 23.3956 60.2943 22.7199C59.9313 22.0443 59.4372 21.525 58.812 21.162C58.1868 20.799 57.4809 20.6175 56.6944 20.6175C55.9079 20.6175 55.202 20.799 54.5768 21.162C53.9516 21.525 53.4575 22.0443 53.0945 22.7199C52.7315 23.3956 52.55 24.1821 52.55 25.0795C52.55 25.977 52.7315 26.7686 53.0945 27.4543C53.4575 28.1299 53.9516 28.6492 54.5768 29.0122C55.202 29.3752 55.9079 29.5567 56.6944 29.5567Z" fill="white"/>
</svg>
