<svg width="578" height="324" viewBox="0 0 578 324" fill="none" xmlns="http://www.w3.org/2000/svg">
<path d="M190.476 278.696V279.364H191.145V278.696H190.476ZM190.476 150.375V149.707H189.808V150.375H190.476ZM278.501 150.848C278.762 150.587 278.762 150.163 278.501 149.902L274.248 145.649C273.987 145.388 273.564 145.388 273.303 145.649C273.042 145.91 273.042 146.333 273.303 146.594L277.083 150.375L273.303 154.156C273.042 154.417 273.042 154.84 273.303 155.101C273.564 155.362 273.987 155.362 274.248 155.101L278.501 150.848ZM99.582 278.696V279.364H102.107V278.696V278.028H99.582V278.696ZM107.157 278.696V279.364H112.206V278.696V278.028H107.157V278.696ZM117.256 278.696V279.364H122.306V278.696V278.028H117.256V278.696ZM127.355 278.696V279.364H132.405V278.696V278.028H127.355V278.696ZM137.455 278.696V279.364H142.504V278.696V278.028H137.455V278.696ZM147.554 278.696V279.364H152.604V278.696V278.028H147.554V278.696ZM157.653 278.696V279.364H162.703V278.696V278.028H157.653V278.696ZM167.753 278.696V279.364H172.802V278.696V278.028H167.753V278.696ZM177.852 278.696V279.364H182.902V278.696V278.028H177.852V278.696ZM187.951 278.696V279.364H190.476V278.696V278.028H187.951V278.696ZM190.476 278.696H191.145V276.023H190.476H189.808V278.696H190.476ZM190.476 270.676H191.145V265.329H190.476H189.808V270.676H190.476ZM190.476 259.983H191.145V254.636H190.476H189.808V259.983H190.476ZM190.476 249.289H191.145V243.943H190.476H189.808V249.289H190.476ZM190.476 238.596H191.145V233.249H190.476H189.808V238.596H190.476ZM190.476 227.902H191.145V222.556H190.476H189.808V227.902H190.476ZM190.476 217.209H191.145V211.862H190.476H189.808V217.209H190.476ZM190.476 206.516H191.145V201.169H190.476H189.808V206.516H190.476ZM190.476 195.822H191.145V190.475H190.476H189.808V195.822H190.476ZM190.476 185.129H191.145V179.782H190.476H189.808V185.129H190.476ZM190.476 174.435H191.145V169.088H190.476H189.808V174.435H190.476ZM190.476 163.742H191.145V158.395H190.476H189.808V163.742H190.476ZM190.476 153.048H191.145V150.375H190.476H189.808V153.048H190.476ZM190.476 150.375V151.043H193.212V150.375V149.707H190.476V150.375ZM198.684 150.375V151.043H204.156V150.375V149.707H198.684V150.375ZM209.628 150.375V151.043H215.1V150.375V149.707H209.628V150.375ZM220.572 150.375V151.043H226.044V150.375V149.707H220.572V150.375ZM231.516 150.375V151.043H236.988V150.375V149.707H231.516V150.375ZM242.46 150.375V151.043H247.932V150.375V149.707H242.46V150.375ZM253.404 150.375V151.043H258.877V150.375V149.707H253.404V150.375ZM264.349 150.375V151.043H269.821V150.375V149.707H264.349V150.375ZM275.293 150.375V151.043H278.029V150.375V149.707H275.293V150.375Z" fill="white"/>
<path d="M485.018 151.519C485.279 151.258 485.279 150.835 485.018 150.574L480.765 146.321C480.504 146.06 480.081 146.06 479.82 146.321C479.559 146.582 479.559 147.005 479.82 147.266L483.6 151.047L479.82 154.828C479.559 155.089 479.559 155.512 479.82 155.773C480.081 156.034 480.504 156.034 480.765 155.773L485.018 151.519ZM396.993 151.047V151.715H399.729V151.047V150.379H396.993V151.047ZM405.201 151.047V151.715H410.673V151.047V150.379H405.201V151.047ZM416.145 151.047V151.715H421.617V151.047V150.379H416.145V151.047ZM427.089 151.047V151.715H432.561V151.047V150.379H427.089V151.047ZM438.033 151.047V151.715H443.505V151.047V150.379H438.033V151.047ZM448.977 151.047V151.715H454.449V151.047V150.379H448.977V151.047ZM459.921 151.047V151.715H465.394V151.047V150.379H459.921V151.047ZM470.866 151.047V151.715H476.338V151.047V150.379H470.866V151.047ZM481.81 151.047V151.715H484.546V151.047V150.379H481.81V151.047Z" fill="white"/>
<path d="M0 8.82713C0 3.95204 3.95204 0 8.82712 0H60.3403C62.6814 0 64.9266 0.929998 66.582 2.5854L71.941 7.94441L79.3666 15.0471C81.1076 16.7124 82.0922 19.0168 82.0922 21.426V84.7404C82.0922 89.6155 78.1402 93.5675 73.2651 93.5675H8.82712C3.95203 93.5675 0 89.6155 0 84.7404V8.82713Z" fill="#D638F2"/>
<path d="M0 238.733C0 233.858 3.95204 229.906 8.82712 229.906H60.3403C62.6814 229.906 64.9266 230.836 66.582 232.492L71.941 237.851L79.3666 244.953C81.1076 246.619 82.0922 248.923 82.0922 251.332V314.647C82.0922 319.522 78.1402 323.474 73.2651 323.474H8.82712C3.95203 323.474 0 319.522 0 314.647V238.733Z" fill="#245BE9"/>
<path d="M295.406 109.077C295.406 104.202 299.358 100.25 304.233 100.25H355.747C358.088 100.25 360.333 101.18 361.988 102.835L367.347 108.194L374.773 115.297C376.514 116.962 377.498 119.267 377.498 121.676V184.99C377.498 189.865 373.546 193.817 368.671 193.817H304.233C299.358 193.817 295.406 189.865 295.406 184.99V109.077Z" fill="#FF3737"/>
<path d="M495.908 107.744C495.908 102.867 499.862 98.9141 504.738 98.9141H556.247C558.589 98.9141 560.835 99.8444 562.491 101.5L567.849 106.858L575.274 113.96C577.015 115.626 578 117.931 578 120.341V183.652C578 188.528 574.047 192.482 569.17 192.482H504.738C499.862 192.482 495.908 188.528 495.908 183.652V107.744Z" fill="url(#paint0_linear_2565_1405)"/>
<path d="M40.9649 218.355C41.2259 218.616 41.6491 218.616 41.9101 218.355L46.1634 214.102C46.4244 213.841 46.4244 213.418 46.1634 213.157C45.9024 212.896 45.4792 212.896 45.2182 213.157L41.4375 216.937L37.6568 213.157C37.3958 212.896 36.9726 212.896 36.7116 213.157C36.4506 213.418 36.4506 213.841 36.7116 214.102L40.9649 218.355ZM41.4375 105.602L40.7692 105.602L40.7692 108.153L41.4375 108.153L42.1058 108.153L42.1058 105.602L41.4375 105.602ZM41.4375 113.257L40.7692 113.257L40.7692 118.361L41.4375 118.361L42.1058 118.361L42.1058 113.257L41.4375 113.257ZM41.4375 123.464L40.7692 123.464L40.7692 128.568L41.4375 128.568L42.1058 128.568L42.1058 123.464L41.4375 123.464ZM41.4375 133.672L40.7692 133.672L40.7692 138.775L41.4375 138.775L42.1058 138.775L42.1058 133.672L41.4375 133.672ZM41.4375 143.879L40.7692 143.879L40.7692 148.983L41.4375 148.983L42.1058 148.983L42.1058 143.879L41.4375 143.879ZM41.4375 154.087L40.7692 154.087L40.7692 159.19L41.4375 159.19L42.1058 159.19L42.1058 154.087L41.4375 154.087ZM41.4375 164.294L40.7692 164.294L40.7692 169.398L41.4375 169.398L42.1058 169.398L42.1058 164.294L41.4375 164.294ZM41.4375 174.501L40.7692 174.501L40.7692 179.605L41.4375 179.605L42.1058 179.605L42.1058 174.501L41.4375 174.501ZM41.4375 184.709L40.7692 184.709L40.7692 189.812L41.4375 189.812L42.1058 189.812L42.1058 184.709L41.4375 184.709ZM41.4375 194.916L40.7692 194.916L40.7692 200.02L41.4375 200.02L42.1058 200.02L42.1058 194.916L41.4375 194.916ZM41.4375 205.123L40.7692 205.123L40.7692 210.227L41.4375 210.227L42.1058 210.227L42.1058 205.123L41.4375 205.123ZM41.4375 215.331L40.7692 215.331L40.7692 217.883L41.4375 217.883L42.1058 217.883L42.1058 215.331L41.4375 215.331Z" fill="white"/>
<path d="M13.2983 46.7129V53.7734H11.8821V46.7129H13.2983ZM21.6568 48.0886C22.3447 48.0886 22.8977 48.301 23.3158 48.7259C23.7406 49.144 23.953 49.7306 23.953 50.4859V53.7734H22.5369V50.6781C22.5369 50.2398 22.4256 49.906 22.2031 49.6767C21.9805 49.4407 21.6771 49.3227 21.2927 49.3227C20.9083 49.3227 20.6015 49.4407 20.3722 49.6767C20.1496 49.906 20.0384 50.2398 20.0384 50.6781V53.7734H18.6222V50.6781C18.6222 50.2398 18.5109 49.906 18.2884 49.6767C18.0659 49.4407 17.7624 49.3227 17.378 49.3227C16.9869 49.3227 16.6767 49.4407 16.4474 49.6767C16.2249 49.906 16.1136 50.2398 16.1136 50.6781V53.7734H14.6974V48.1695H16.1136V48.8472C16.2957 48.6112 16.5283 48.4258 16.8116 48.2909C17.1015 48.156 17.4185 48.0886 17.7624 48.0886C18.2007 48.0886 18.5919 48.183 18.9358 48.3718C19.2797 48.5539 19.5461 48.8169 19.7349 49.1608C19.917 48.8371 20.18 48.5775 20.5239 48.3819C20.8746 48.1864 21.2522 48.0886 21.6568 48.0886ZM26.713 48.9787C26.8951 48.7225 27.1446 48.5101 27.4616 48.3415C27.7853 48.1661 28.1528 48.0785 28.5642 48.0785C29.043 48.0785 29.4745 48.1965 29.8589 48.4325C30.2501 48.6685 30.5569 49.0057 30.7794 49.444C31.0087 49.8756 31.1234 50.378 31.1234 50.9512C31.1234 51.5244 31.0087 52.0336 30.7794 52.4787C30.5569 52.917 30.2501 53.2576 29.8589 53.5003C29.4745 53.7431 29.043 53.8645 28.5642 53.8645C28.1528 53.8645 27.7886 53.7802 27.4717 53.6116C27.1615 53.443 26.9086 53.2306 26.713 52.9743V56.4439H25.2969V48.1695H26.713V48.9787ZM29.6769 50.9512C29.6769 50.6141 29.606 50.3241 29.4644 50.0813C29.3296 49.8318 29.1475 49.643 28.9182 49.5149C28.6957 49.3867 28.4529 49.3227 28.1899 49.3227C27.9336 49.3227 27.6909 49.3901 27.4616 49.525C27.239 49.6531 27.057 49.8419 26.9153 50.0914C26.7805 50.3409 26.713 50.6343 26.713 50.9715C26.713 51.3087 26.7805 51.602 26.9153 51.8515C27.057 52.101 27.239 52.2932 27.4616 52.4281C27.6909 52.5562 27.9336 52.6203 28.1899 52.6203C28.4529 52.6203 28.6957 52.5528 28.9182 52.418C29.1475 52.2831 29.3296 52.0909 29.4644 51.8414C29.606 51.5919 29.6769 51.2952 29.6769 50.9512ZM34.6408 53.8645C34.1013 53.8645 33.6158 53.7465 33.1842 53.5104C32.7526 53.2677 32.4121 52.9271 32.1626 52.4888C31.9198 52.0504 31.7984 51.5447 31.7984 50.9715C31.7984 50.3983 31.9232 49.8925 32.1727 49.4542C32.4289 49.0158 32.7762 48.6786 33.2146 48.4426C33.6529 48.1998 34.1418 48.0785 34.6813 48.0785C35.2208 48.0785 35.7097 48.1998 36.148 48.4426C36.5864 48.6786 36.9303 49.0158 37.1798 49.4542C37.4361 49.8925 37.5642 50.3983 37.5642 50.9715C37.5642 51.5447 37.4327 52.0504 37.1697 52.4888C36.9134 52.9271 36.5628 53.2677 36.1177 53.5104C35.6793 53.7465 35.1871 53.8645 34.6408 53.8645ZM34.6408 52.6304C34.8971 52.6304 35.1365 52.5697 35.359 52.4483C35.5883 52.3202 35.7704 52.1314 35.9053 51.8819C36.0401 51.6323 36.1076 51.3289 36.1076 50.9715C36.1076 50.4387 35.9659 50.0307 35.6827 49.7475C35.4062 49.4575 35.0657 49.3125 34.6611 49.3125C34.2564 49.3125 33.9159 49.4575 33.6394 49.7475C33.3697 50.0307 33.2348 50.4387 33.2348 50.9715C33.2348 51.5042 33.3663 51.9156 33.6293 52.2055C33.899 52.4888 34.2362 52.6304 34.6408 52.6304ZM40.0191 49.0394C40.2012 48.7427 40.4372 48.5101 40.7272 48.3415C41.0239 48.1729 41.3611 48.0886 41.7388 48.0886V49.5755H41.3645C40.9194 49.5755 40.5822 49.6801 40.3529 49.8891C40.1304 50.0982 40.0191 50.4623 40.0191 50.9816V53.7734H38.603V48.1695H40.0191V49.0394ZM44.3414 49.3328V52.0437C44.3414 52.2325 44.3853 52.3708 44.4729 52.4584C44.5673 52.5394 44.7224 52.5798 44.9382 52.5798H45.5957V53.7734H44.7056C43.512 53.7734 42.9151 53.1935 42.9151 52.0336V49.3328H42.2475V48.1695H42.9151V46.7837H44.3414V48.1695H45.5957V49.3328H44.3414ZM56.2397 46.7129V47.8559H54.3583V53.7734H52.9421V47.8559H51.0607V46.7129H56.2397ZM62.4825 50.8501C62.4825 51.0524 62.469 51.2345 62.442 51.3963H58.3453C58.379 51.8009 58.5206 52.1179 58.7701 52.3472C59.0196 52.5764 59.3264 52.6911 59.6906 52.6911C60.2166 52.6911 60.5909 52.4652 60.8134 52.0134H62.3408C62.179 52.5528 61.8688 52.9979 61.4102 53.3486C60.9517 53.6925 60.3886 53.8645 59.7209 53.8645C59.1815 53.8645 58.6959 53.7465 58.2643 53.5104C57.8395 53.2677 57.5057 52.9271 57.2629 52.4888C57.0269 52.0504 56.9089 51.5447 56.9089 50.9715C56.9089 50.3915 57.0269 49.8824 57.2629 49.444C57.4989 49.0057 57.8294 48.6685 58.2542 48.4325C58.6791 48.1965 59.168 48.0785 59.7209 48.0785C60.2537 48.0785 60.7291 48.1931 61.1472 48.4224C61.5721 48.6517 61.8991 48.9787 62.1284 49.4036C62.3644 49.8217 62.4825 50.3039 62.4825 50.8501ZM61.0157 50.4455C61.009 50.0813 60.8775 49.7913 60.6212 49.5755C60.365 49.353 60.0514 49.2417 59.6805 49.2417C59.3298 49.2417 59.0331 49.3496 58.7903 49.5654C58.5543 49.7745 58.4093 50.0678 58.3554 50.4455H61.0157ZM66.6114 53.7734L65.4583 52.0336L64.4366 53.7734H62.9193L64.7502 50.9614L62.8991 48.1695H64.4973L65.6404 49.8992L66.6721 48.1695H68.1894L66.3484 50.9614L68.2097 53.7734H66.6114ZM70.6276 49.3328V52.0437C70.6276 52.2325 70.6715 52.3708 70.7591 52.4584C70.8536 52.5394 71.0087 52.5798 71.2245 52.5798H71.882V53.7734H70.9918C69.7982 53.7734 69.2014 53.1935 69.2014 52.0336V49.3328H68.5338V48.1695H69.2014V46.7837H70.6276V48.1695H71.882V49.3328H70.6276Z" fill="white"/>
<path d="M6.16299 276.619V283.68H4.74683V276.619H6.16299ZM14.5216 277.995C15.2094 277.995 15.7624 278.207 16.1805 278.632C16.6053 279.05 16.8178 279.637 16.8178 280.392V283.68H15.4016V280.584C15.4016 280.146 15.2903 279.812 15.0678 279.583C14.8452 279.347 14.5418 279.229 14.1574 279.229C13.773 279.229 13.4662 279.347 13.2369 279.583C13.0144 279.812 12.9031 280.146 12.9031 280.584V283.68H11.4869V280.584C11.4869 280.146 11.3757 279.812 11.1531 279.583C10.9306 279.347 10.6271 279.229 10.2427 279.229C9.85161 279.229 9.5414 279.347 9.31212 279.583C9.08958 279.812 8.97831 280.146 8.97831 280.584V283.68H7.56216V278.076H8.97831V278.753C9.16039 278.517 9.39304 278.332 9.67628 278.197C9.96625 278.062 10.2832 277.995 10.6271 277.995C11.0655 277.995 11.4566 278.089 11.8005 278.278C12.1444 278.46 12.4108 278.723 12.5996 279.067C12.7817 278.743 13.0447 278.484 13.3886 278.288C13.7393 278.093 14.1169 277.995 14.5216 277.995ZM19.5778 278.885C19.7598 278.629 20.0093 278.416 20.3263 278.248C20.65 278.072 21.0175 277.985 21.4289 277.985C21.9077 277.985 22.3393 278.103 22.7236 278.339C23.1148 278.575 23.4216 278.912 23.6441 279.35C23.8734 279.782 23.9881 280.284 23.9881 280.857C23.9881 281.431 23.8734 281.94 23.6441 282.385C23.4216 282.823 23.1148 283.164 22.7236 283.407C22.3393 283.649 21.9077 283.771 21.4289 283.771C21.0175 283.771 20.6534 283.686 20.3364 283.518C20.0262 283.349 19.7733 283.137 19.5778 282.881V286.35H18.1616V278.076H19.5778V278.885ZM22.5416 280.857C22.5416 280.52 22.4708 280.23 22.3291 279.988C22.1943 279.738 22.0122 279.549 21.7829 279.421C21.5604 279.293 21.3176 279.229 21.0546 279.229C20.7983 279.229 20.5556 279.296 20.3263 279.431C20.1038 279.559 19.9217 279.748 19.7801 279.998C19.6452 280.247 19.5778 280.541 19.5778 280.878C19.5778 281.215 19.6452 281.508 19.7801 281.758C19.9217 282.007 20.1038 282.199 20.3263 282.334C20.5556 282.462 20.7983 282.527 21.0546 282.527C21.3176 282.527 21.5604 282.459 21.7829 282.324C22.0122 282.189 22.1943 281.997 22.3291 281.748C22.4708 281.498 22.5416 281.201 22.5416 280.857ZM27.5055 283.771C26.9661 283.771 26.4805 283.653 26.0489 283.417C25.6173 283.174 25.2768 282.833 25.0273 282.395C24.7845 281.957 24.6631 281.451 24.6631 280.878C24.6631 280.305 24.7879 279.799 25.0374 279.36C25.2936 278.922 25.6409 278.585 26.0793 278.349C26.5176 278.106 27.0065 277.985 27.546 277.985C28.0855 277.985 28.5744 278.106 29.0127 278.349C29.4511 278.585 29.795 278.922 30.0445 279.36C30.3008 279.799 30.4289 280.305 30.4289 280.878C30.4289 281.451 30.2974 281.957 30.0344 282.395C29.7781 282.833 29.4275 283.174 28.9824 283.417C28.5441 283.653 28.0518 283.771 27.5055 283.771ZM27.5055 282.537C27.7618 282.537 28.0012 282.476 28.2237 282.355C28.453 282.226 28.6351 282.038 28.77 281.788C28.9048 281.539 28.9723 281.235 28.9723 280.878C28.9723 280.345 28.8307 279.937 28.5474 279.654C28.2709 279.364 27.9304 279.219 27.5258 279.219C27.1212 279.219 26.7806 279.364 26.5041 279.654C26.2344 279.937 26.0995 280.345 26.0995 280.878C26.0995 281.41 26.231 281.822 26.494 282.112C26.7637 282.395 27.1009 282.537 27.5055 282.537ZM32.8839 278.946C33.0659 278.649 33.302 278.416 33.5919 278.248C33.8887 278.079 34.2258 277.995 34.6035 277.995V279.482H34.2292C33.7841 279.482 33.4469 279.586 33.2177 279.795C32.9951 280.004 32.8839 280.369 32.8839 280.888V283.68H31.4677V278.076H32.8839V278.946ZM37.2061 279.239V281.95C37.2061 282.139 37.25 282.277 37.3376 282.365C37.432 282.446 37.5872 282.486 37.8029 282.486H38.4604V283.68H37.5703C36.3767 283.68 35.7799 283.1 35.7799 281.94V279.239H35.1122V278.076H35.7799V276.69H37.2061V278.076H38.4604V279.239H37.2061ZM45.7158 276.619V283.68H44.2996V276.619H45.7158ZM54.0744 277.995C54.7622 277.995 55.3152 278.207 55.7333 278.632C56.1581 279.05 56.3706 279.637 56.3706 280.392V283.68H54.9544V280.584C54.9544 280.146 54.8431 279.812 54.6206 279.583C54.3981 279.347 54.0946 279.229 53.7102 279.229C53.3258 279.229 53.019 279.347 52.7897 279.583C52.5672 279.812 52.4559 280.146 52.4559 280.584V283.68H51.0397V280.584C51.0397 280.146 50.9285 279.812 50.7059 279.583C50.4834 279.347 50.1799 279.229 49.7955 279.229C49.4044 279.229 49.0942 279.347 48.8649 279.583C48.6424 279.812 48.5311 280.146 48.5311 280.584V283.68H47.115V278.076H48.5311V278.753C48.7132 278.517 48.9459 278.332 49.2291 278.197C49.5191 278.062 49.836 277.995 50.1799 277.995C50.6183 277.995 51.0094 278.089 51.3533 278.278C51.6972 278.46 51.9636 278.723 52.1524 279.067C52.3345 278.743 52.5975 278.484 52.9414 278.288C53.2921 278.093 53.6697 277.995 54.0744 277.995ZM57.3503 280.857C57.3503 280.291 57.4615 279.789 57.6841 279.35C57.9133 278.912 58.2202 278.575 58.6046 278.339C58.9957 278.103 59.4307 277.985 59.9095 277.985C60.3276 277.985 60.6917 278.069 61.0019 278.238C61.3189 278.406 61.5717 278.619 61.7606 278.875V278.076H63.1868V283.68H61.7606V282.86C61.5785 283.123 61.3256 283.343 61.0019 283.518C60.685 283.686 60.3174 283.771 59.8993 283.771C59.4273 283.771 58.9957 283.649 58.6046 283.407C58.2202 283.164 57.9133 282.823 57.6841 282.385C57.4615 281.94 57.3503 281.431 57.3503 280.857ZM61.7606 280.878C61.7606 280.534 61.6931 280.24 61.5583 279.998C61.4234 279.748 61.2413 279.559 61.012 279.431C60.7827 279.296 60.5366 279.229 60.2736 279.229C60.0106 279.229 59.7678 279.293 59.5453 279.421C59.3228 279.549 59.1407 279.738 58.9991 279.988C58.8642 280.23 58.7968 280.52 58.7968 280.857C58.7968 281.195 58.8642 281.491 58.9991 281.748C59.1407 281.997 59.3228 282.189 59.5453 282.324C59.7746 282.459 60.0173 282.527 60.2736 282.527C60.5366 282.527 60.7827 282.462 61.012 282.334C61.2413 282.199 61.4234 282.011 61.5583 281.768C61.6931 281.518 61.7606 281.222 61.7606 280.878ZM66.765 277.985C67.1831 277.985 67.5506 278.069 67.8676 278.238C68.1845 278.399 68.434 278.612 68.6161 278.875V278.076H70.0424V283.72C70.0424 284.239 69.9379 284.701 69.7288 285.106C69.5198 285.517 69.2062 285.841 68.7881 286.077C68.37 286.32 67.8642 286.441 67.2708 286.441C66.475 286.441 65.8209 286.256 65.3084 285.885C64.8026 285.514 64.516 285.008 64.4486 284.368H65.8546C65.9288 284.624 66.0873 284.826 66.33 284.974C66.5796 285.13 66.8796 285.207 67.2303 285.207C67.6417 285.207 67.9755 285.082 68.2317 284.833C68.488 284.59 68.6161 284.219 68.6161 283.72V282.85C68.434 283.113 68.1812 283.332 67.8575 283.508C67.5405 283.683 67.1764 283.771 66.765 283.771C66.293 283.771 65.8614 283.649 65.4702 283.407C65.0791 283.164 64.7689 282.823 64.5396 282.385C64.3171 281.94 64.2058 281.431 64.2058 280.857C64.2058 280.291 64.3171 279.789 64.5396 279.35C64.7689 278.912 65.0757 278.575 65.4601 278.339C65.8512 278.103 66.2862 277.985 66.765 277.985ZM68.6161 280.878C68.6161 280.534 68.5487 280.24 68.4138 279.998C68.2789 279.748 68.0969 279.559 67.8676 279.431C67.6383 279.296 67.3922 279.229 67.1292 279.229C66.8662 279.229 66.6234 279.293 66.4009 279.421C66.1783 279.549 65.9962 279.738 65.8546 279.988C65.7197 280.23 65.6523 280.52 65.6523 280.857C65.6523 281.195 65.7197 281.491 65.8546 281.748C65.9962 281.997 66.1783 282.189 66.4009 282.324C66.6301 282.459 66.8729 282.527 67.1292 282.527C67.3922 282.527 67.6383 282.462 67.8676 282.334C68.0969 282.199 68.2789 282.011 68.4138 281.768C68.5487 281.518 68.6161 281.222 68.6161 280.878ZM76.635 280.756C76.635 280.959 76.6215 281.141 76.5945 281.303H72.4978C72.5315 281.707 72.6731 282.024 72.9226 282.253C73.1721 282.483 73.4789 282.597 73.8431 282.597C74.3691 282.597 74.7434 282.371 74.9659 281.92H76.4933C76.3315 282.459 76.0213 282.904 75.5627 283.255C75.1042 283.599 74.5411 283.771 73.8734 283.771C73.334 283.771 72.8484 283.653 72.4168 283.417C71.992 283.174 71.6582 282.833 71.4154 282.395C71.1794 281.957 71.0614 281.451 71.0614 280.878C71.0614 280.298 71.1794 279.789 71.4154 279.35C71.6514 278.912 71.9819 278.575 72.4067 278.339C72.8316 278.103 73.3205 277.985 73.8734 277.985C74.4062 277.985 74.8816 278.099 75.2997 278.329C75.7246 278.558 76.0516 278.885 76.2809 279.31C76.5169 279.728 76.635 280.21 76.635 280.756ZM75.1682 280.352C75.1615 279.988 75.03 279.698 74.7737 279.482C74.5175 279.259 74.2039 279.148 73.833 279.148C73.4823 279.148 73.1856 279.256 72.9428 279.472C72.7068 279.681 72.5618 279.974 72.5079 280.352H75.1682Z" fill="white"/>
<path d="M307.796 150.483C307.796 149.788 307.951 149.168 308.261 148.622C308.578 148.069 309.006 147.641 309.546 147.337C310.092 147.027 310.702 146.872 311.376 146.872C312.165 146.872 312.857 147.074 313.45 147.479C314.044 147.883 314.458 148.443 314.694 149.158H313.066C312.904 148.821 312.675 148.568 312.378 148.399C312.088 148.231 311.751 148.146 311.366 148.146C310.955 148.146 310.587 148.244 310.264 148.44C309.947 148.629 309.697 148.898 309.515 149.249C309.34 149.6 309.252 150.011 309.252 150.483C309.252 150.948 309.34 151.36 309.515 151.717C309.697 152.068 309.947 152.341 310.264 152.536C310.587 152.725 310.955 152.82 311.366 152.82C311.751 152.82 312.088 152.735 312.378 152.567C312.675 152.391 312.904 152.135 313.066 151.798H314.694C314.458 152.52 314.044 153.083 313.45 153.487C312.863 153.885 312.172 154.084 311.376 154.084C310.702 154.084 310.092 153.932 309.546 153.629C309.006 153.319 308.578 152.891 308.261 152.344C307.951 151.798 307.796 151.178 307.796 150.483ZM317.32 149.289C317.502 148.993 317.738 148.76 318.028 148.591C318.325 148.423 318.662 148.339 319.04 148.339V149.826H318.665C318.22 149.826 317.883 149.93 317.654 150.139C317.431 150.348 317.32 150.712 317.32 151.232V154.023H315.904V148.42H317.32V149.289ZM325.203 151.1C325.203 151.302 325.189 151.484 325.162 151.646H321.066C321.099 152.051 321.241 152.368 321.491 152.597C321.74 152.826 322.047 152.941 322.411 152.941C322.937 152.941 323.311 152.715 323.534 152.263H325.061C324.899 152.803 324.589 153.248 324.131 153.599C323.672 153.943 323.109 154.114 322.441 154.114C321.902 154.114 321.416 153.996 320.985 153.76C320.56 153.518 320.226 153.177 319.983 152.739C319.747 152.3 319.629 151.795 319.629 151.221C319.629 150.642 319.747 150.132 319.983 149.694C320.219 149.256 320.55 148.919 320.975 148.683C321.4 148.446 321.888 148.328 322.441 148.328C322.974 148.328 323.45 148.443 323.868 148.672C324.293 148.902 324.62 149.229 324.849 149.654C325.085 150.072 325.203 150.554 325.203 151.1ZM323.736 150.695C323.729 150.331 323.598 150.041 323.342 149.826C323.085 149.603 322.772 149.492 322.401 149.492C322.05 149.492 321.754 149.6 321.511 149.815C321.275 150.024 321.13 150.318 321.076 150.695H323.736ZM325.872 151.201C325.872 150.635 325.984 150.132 326.206 149.694C326.436 149.256 326.742 148.919 327.127 148.683C327.518 148.446 327.953 148.328 328.432 148.328C328.85 148.328 329.214 148.413 329.524 148.581C329.841 148.75 330.094 148.962 330.283 149.219V148.42H331.709V154.023H330.283V153.204C330.101 153.467 329.848 153.686 329.524 153.862C329.207 154.03 328.84 154.114 328.422 154.114C327.949 154.114 327.518 153.993 327.127 153.75C326.742 153.508 326.436 153.167 326.206 152.729C325.984 152.284 325.872 151.774 325.872 151.201ZM330.283 151.221C330.283 150.878 330.215 150.584 330.08 150.341C329.946 150.092 329.764 149.903 329.534 149.775C329.305 149.64 329.059 149.573 328.796 149.573C328.533 149.573 328.29 149.637 328.067 149.765C327.845 149.893 327.663 150.082 327.521 150.331C327.386 150.574 327.319 150.864 327.319 151.201C327.319 151.538 327.386 151.835 327.521 152.091C327.663 152.341 327.845 152.533 328.067 152.668C328.297 152.803 328.54 152.87 328.796 152.87C329.059 152.87 329.305 152.806 329.534 152.678C329.764 152.543 329.946 152.354 330.08 152.112C330.215 151.862 330.283 151.565 330.283 151.221ZM334.741 149.583V152.294C334.741 152.483 334.785 152.621 334.872 152.708C334.967 152.789 335.122 152.83 335.338 152.83H335.995V154.023H335.105C333.912 154.023 333.315 153.443 333.315 152.284V149.583H332.647V148.42H333.315V147.034H334.741V148.42H335.995V149.583H334.741ZM342.223 151.1C342.223 151.302 342.21 151.484 342.183 151.646H338.086C338.12 152.051 338.261 152.368 338.511 152.597C338.76 152.826 339.067 152.941 339.431 152.941C339.957 152.941 340.332 152.715 340.554 152.263H342.082C341.92 152.803 341.61 153.248 341.151 153.599C340.692 153.943 340.129 154.114 339.462 154.114C338.922 154.114 338.437 153.996 338.005 153.76C337.58 153.518 337.247 153.177 337.004 152.739C336.768 152.3 336.65 151.795 336.65 151.221C336.65 150.642 336.768 150.132 337.004 149.694C337.24 149.256 337.57 148.919 337.995 148.683C338.42 148.446 338.909 148.328 339.462 148.328C339.995 148.328 340.47 148.443 340.888 148.672C341.313 148.902 341.64 149.229 341.869 149.654C342.105 150.072 342.223 150.554 342.223 151.1ZM340.757 150.695C340.75 150.331 340.618 150.041 340.362 149.826C340.106 149.603 339.792 149.492 339.421 149.492C339.071 149.492 338.774 149.6 338.531 149.815C338.295 150.024 338.15 150.318 338.096 150.695H340.757ZM350.816 149.148C350.816 149.525 350.725 149.879 350.543 150.21C350.368 150.54 350.088 150.807 349.703 151.009C349.326 151.211 348.847 151.313 348.267 151.313H347.083V154.023H345.667V146.963H348.267C348.813 146.963 349.278 147.057 349.663 147.246C350.047 147.435 350.334 147.695 350.523 148.025C350.718 148.355 350.816 148.73 350.816 149.148ZM348.206 150.169C348.597 150.169 348.887 150.082 349.076 149.906C349.265 149.724 349.359 149.472 349.359 149.148C349.359 148.46 348.975 148.116 348.206 148.116H347.083V150.169H348.206ZM354.29 146.963C355.031 146.963 355.682 147.108 356.242 147.398C356.808 147.688 357.243 148.103 357.547 148.642C357.857 149.175 358.012 149.795 358.012 150.503C358.012 151.211 357.857 151.832 357.547 152.365C357.243 152.891 356.808 153.299 356.242 153.588C355.682 153.878 355.031 154.023 354.29 154.023H351.821V146.963H354.29ZM354.239 152.82C354.981 152.82 355.554 152.617 355.959 152.213C356.363 151.808 356.566 151.238 356.566 150.503C356.566 149.768 356.363 149.195 355.959 148.784C355.554 148.366 354.981 148.157 354.239 148.157H353.238V152.82H354.239ZM363.432 146.963V148.106H360.488V149.917H362.744V151.039H360.488V154.023H359.072V146.963H363.432Z" fill="white"/>
<path d="M529.897 145.627V152.688H528.481V148.095L526.589 152.688H525.517L523.615 148.095V152.688H522.199V145.627H523.807L526.053 150.877L528.298 145.627H529.897ZM535.414 145.627V150.583C535.414 151.271 535.215 151.807 534.817 152.192C534.419 152.569 533.886 152.758 533.219 152.758C532.544 152.758 531.998 152.563 531.58 152.172C531.169 151.78 530.963 151.234 530.963 150.533H532.379C532.386 150.836 532.457 151.072 532.592 151.241C532.733 151.41 532.935 151.494 533.198 151.494C533.455 151.494 533.65 151.413 533.785 151.251C533.92 151.089 533.987 150.867 533.987 150.583V145.627H535.414ZM544.764 145.627V152.688H543.347V148.095L541.456 152.688H540.384L538.482 148.095V152.688H537.066V145.627H538.674L540.92 150.877L543.165 145.627H544.764ZM547.58 151.565H549.906V152.688H546.164V145.627H547.58V151.565Z" fill="white"/>
<defs>
<linearGradient id="paint0_linear_2565_1405" x1="536.954" y1="98.9141" x2="558.055" y2="189.411" gradientUnits="userSpaceOnUse">
<stop stop-color="#B84CCB"/>
<stop offset="0.64" stop-color="#245BE9"/>
<stop offset="1" stop-color="#1C54E4"/>
</linearGradient>
</defs>
</svg>
