<svg width="35" height="35" viewBox="0 0 35 35" fill="none" xmlns="http://www.w3.org/2000/svg">
<path d="M20.0227 5.12031L22.5893 10.2536C22.9393 10.9682 23.8727 11.6536 24.6602 11.7849L29.3122 12.5578C32.2872 13.0536 32.9872 15.212 30.8435 17.3411L27.2268 20.9578C26.6143 21.5703 26.2789 22.7516 26.4685 23.5974L27.5039 28.0745C28.3206 31.6182 26.4393 32.9891 23.3039 31.137L18.9435 28.5557C18.156 28.0891 16.8581 28.0891 16.056 28.5557L11.6956 31.137C8.57475 32.9891 6.67891 31.6036 7.49558 28.0745L8.531 23.5974C8.72058 22.7516 8.38516 21.5703 7.77266 20.9578L4.156 17.3411C2.02683 15.212 2.71225 13.0536 5.68725 12.5578L10.3393 11.7849C11.1122 11.6536 12.0456 10.9682 12.3956 10.2536L14.9622 5.12031C16.3622 2.3349 18.6372 2.3349 20.0227 5.12031Z" fill="white"/>
</svg>
