<svg width="17" height="15" viewBox="0 0 17 15" fill="none" xmlns="http://www.w3.org/2000/svg">
<path d="M1.13577 14.7513L1.05837 14.7305L0.910045 14.6675L0.837418 14.6327L0.701031 14.5447L0.634542 14.4977L0.512134 14.3879L0.452806 14.3302L0.347106 14.2014L0.296642 14.1349L0.210036 13.9906L0.169461 13.917L0.104336 13.7605L0.075013 13.681L0.0337559 13.5157L0.00238678 13.261L0.00034096 13.2122L0 13.1406L0.000681936 13.1086L0.00852421 13.0612L0.0136387 13.0397L0.032051 13.0039L0.075354 12.9503L0.0954711 12.9289L0.130591 12.9006L0.149685 12.8883L0.20424 12.8743L0.220266 12.8716L0.261182 12.8678L0.283345 12.8661L0.338923 12.8641L0.368928 12.8634L0.442577 12.8627L0.577941 12.8624H0.997673L1.00654 8.71108L1.01574 4.55979L1.1061 4.38931L1.1344 4.33578L1.20941 4.2294L1.24897 4.17689L1.34103 4.07903L1.38876 4.03163L1.49003 3.9498L1.64347 3.85331L1.79997 3.77557L4.63001 3.75852L7.46005 3.74147L7.46993 3.46324L7.47982 3.18535L7.13442 3.17342L7.09316 3.17205L7.02463 3.16932L6.99258 3.16796L6.93973 3.16489L6.91484 3.16319L6.87494 3.15875L6.85653 3.15637L6.82653 3.14989L6.79857 3.14273L6.76038 3.11988L6.70685 3.06601L6.68434 3.03976L6.64888 2.97531L6.64138 2.95963L6.63115 2.92996L6.62467 2.89178V2.88905L6.62877 2.87746L6.63183 2.87064L6.64138 2.8512L6.65229 2.83006L6.68843 2.76698L6.70889 2.7322L6.76242 2.64526L6.79072 2.59923L6.85858 2.49216L6.8937 2.43692L6.9728 2.31418L7.01372 2.2511L7.10135 2.11676L7.19102 1.98037L7.38469 1.68952L7.48221 1.54359L7.67554 1.25922L7.72293 1.19L7.81329 1.05839L7.85796 0.993947L7.94081 0.87529L7.98105 0.818007L8.05367 0.716058L8.08845 0.66764L8.14812 0.586831L8.17608 0.549324L8.21972 0.493746L8.22927 0.481471L8.24564 0.462377L8.26405 0.442601L8.29474 0.414301L8.35441 0.377476L8.38441 0.362473L8.44306 0.352926L8.47204 0.351562L8.52966 0.368952L8.61491 0.425553L8.61797 0.42828L8.62786 0.439191L8.63332 0.44567L8.64798 0.464423L8.66366 0.48454L8.70901 0.545573L8.7339 0.578988L8.79528 0.66423L8.82767 0.709238L8.90268 0.815279L8.94155 0.870516L9.02816 0.993947L9.07249 1.05737L9.16761 1.19512L9.21603 1.26502L9.31764 1.41334L9.47517 1.64451L9.52734 1.72123L9.62247 1.86137L9.6685 1.92956L9.75169 2.05265L9.79159 2.11232L9.86353 2.22041L9.89797 2.27224L9.95934 2.366L9.98867 2.41101L10.0398 2.49148L10.064 2.53001L10.106 2.59888L10.1254 2.63162L10.1585 2.68992L10.1738 2.71754L10.1984 2.7663L10.21 2.78983L10.227 2.8304L10.2345 2.85018L10.2447 2.88393L10.2529 2.91633L10.2516 2.96645L10.2481 2.98963L10.2263 3.0285L10.1765 3.08579L10.1602 3.10249L10.1254 3.12602L10.1066 3.13659L10.0552 3.15091L10.0405 3.15398L10.005 3.15875L9.98628 3.16114L9.94127 3.16489L9.91741 3.1666L9.86046 3.16967L9.75954 3.17342L9.41789 3.18535L9.42777 3.46324L9.43766 3.74147L12.3188 3.75852L15.2 3.77557L15.3712 3.86592L15.4305 3.89729L15.5458 3.98219L15.602 4.02754L15.705 4.13358L15.7544 4.18848L15.837 4.30645L15.928 4.48614L16.0013 4.68186V8.77212V12.8624H16.4217H16.4725L16.5571 12.8627L16.5966 12.8631L16.6607 12.8641L16.6907 12.8648L16.7388 12.8678L16.761 12.8692L16.7958 12.8743L16.8282 12.8801L16.8694 12.9006L16.9246 12.9503L16.9427 12.9698L16.9679 13.0039L16.9789 13.0216L16.9915 13.0612L16.9966 13.083L17 13.1406L16.9976 13.261L16.9939 13.3479L16.9659 13.5184L16.9485 13.6026L16.895 13.7646L16.865 13.8444L16.7883 13.9954L16.7473 14.0694L16.6498 14.2061L16.5987 14.2726L16.4831 14.392L16.4234 14.4492L16.2918 14.5481L16.2243 14.5948L16.079 14.6702L15.8492 14.753L15.838 14.7558L15.8066 14.7612L15.7892 14.764L15.7422 14.7687L15.7159 14.7711L15.6481 14.7752L15.6112 14.7773L15.5178 14.781L15.4673 14.7827L15.3436 14.7861L15.3105 14.7868L15.2379 14.7882L15.2004 14.7888L15.1185 14.7902L15.0763 14.7909L14.9845 14.7919L14.9375 14.7926L14.8352 14.7936L14.7827 14.7943L14.6695 14.7953L14.6115 14.7957L14.4867 14.7967L14.423 14.797L14.2859 14.798L14.2157 14.7984L14.066 14.7991L13.9892 14.7994L13.8259 14.8001L13.7424 14.8004L13.5651 14.8008L13.4747 14.8011L13.2828 14.8018H13.1849L12.9776 14.8021L12.8719 14.8025L12.6489 14.8028H12.5354L12.296 14.8032H12.1739L11.9175 14.8035H11.7869L11.5128 14.8038H11.3737H11.0811H10.9328H10.6215H10.4636H10.1329H9.96514H9.61428H9.4363H9.06498L8.48431 14.8035H8.29064H7.91899H7.73555L7.38299 14.8032H7.20943L6.87631 14.8028H6.71196L6.39725 14.8025H6.24245L5.94581 14.8021H5.79987L5.52062 14.8018H5.38321L5.12134 14.8015L4.99212 14.8011L4.74662 14.8008L4.62592 14.8004L4.3961 14.8001L4.28324 14.7998L4.06878 14.7994L3.96342 14.7991L3.76395 14.7984H3.66609L3.4806 14.7977L3.38991 14.7974L3.2184 14.7967L3.13418 14.7963L2.97631 14.7957L2.89857 14.795L2.75332 14.7943L2.68206 14.794L2.54874 14.7929L2.48361 14.7926L2.36189 14.7916L2.30222 14.7909L2.19174 14.7899L2.13787 14.7895L2.03797 14.7882L1.98921 14.7875L1.89919 14.7865L1.85555 14.7858L1.77508 14.7844L1.73621 14.7837L1.66461 14.7824L1.59539 14.7807L1.48151 14.7776L1.42832 14.7759L1.34342 14.7721L1.3042 14.7701L1.24419 14.766L1.21658 14.7636L1.17702 14.7588L1.15929 14.7565M15.7711 14.2116L15.838 14.1877L15.9628 14.1151L16.0231 14.0752L16.1322 13.9732L16.1844 13.919L16.2731 13.7925L16.3788 13.5805L16.4442 13.4079H8.5H0.555778L0.621244 13.5805L0.649886 13.6558L0.726944 13.7925L0.768202 13.8583L0.867764 13.9732L0.919933 14.0275L1.03723 14.1151L1.22885 14.2116L1.23192 14.2126L1.24794 14.215L1.25749 14.216L1.28681 14.2177L1.30284 14.2187L1.34478 14.2208L1.36728 14.2218L1.4215 14.2235L1.4498 14.2245L1.51595 14.2262L1.55038 14.2273L1.62778 14.229L1.66768 14.23L1.75599 14.2314L1.80168 14.2324L1.90056 14.2341L1.95102 14.2348L2.06013 14.2361L2.11605 14.2372L2.23471 14.2385L2.29506 14.2392L2.42326 14.2406L2.48839 14.2412L2.62512 14.2426L2.76423 14.244L3.06667 14.2464L3.22181 14.2477L3.55459 14.2498L3.72406 14.2508L4.0831 14.2528L4.26551 14.2539L4.64774 14.2556L4.84107 14.2563L5.24273 14.2576L5.4456 14.2583L5.86363 14.2593L6.07401 14.26L6.50465 14.2607L6.72117 14.261L7.16136 14.2617L7.60291 14.2624H8.5H8.94837L9.83864 14.2617L10.0596 14.2614L10.4953 14.2607L10.7119 14.2603L11.1364 14.2593L11.3471 14.259L11.7573 14.2576L11.9601 14.2569L12.3523 14.2556L12.5459 14.2545L12.9169 14.2528L13.0993 14.2518L13.4454 14.2498L13.6152 14.2488L13.9333 14.2464L14.0885 14.2453L14.3749 14.2426L14.4444 14.2419L14.5767 14.2406L14.6419 14.2399L14.7653 14.2385L14.826 14.2378L14.9399 14.2361L14.9954 14.2355L15.0994 14.2341L15.1502 14.2331L15.244 14.2314L15.2894 14.2307L15.3722 14.229L15.4125 14.228L15.4841 14.2262L15.5185 14.2256L15.5785 14.2235L15.6071 14.2228L15.6552 14.2208L15.6777 14.2198L15.7132 14.2177L15.7296 14.2167L15.7521 14.215L15.7619 14.2136M15.4558 8.80348V8.67937V8.44206V8.32511V8.10245V7.993V7.78467V7.68204L15.4554 7.48701V7.39119V7.2098V7.12047L15.4551 6.95135V6.86849L15.4547 6.71164V6.63459L15.4544 6.48933V6.41841L15.454 6.28441L15.4537 6.21895L15.4534 6.09551V6.0355L15.4527 5.92264L15.4523 5.86741L15.452 5.76409L15.4517 5.71397L15.451 5.62021L15.4503 5.57452L15.4496 5.48927L15.4489 5.40676L15.4469 5.2656L15.4459 5.19877L15.4431 5.08659L15.4418 5.03374L15.4387 4.94713L15.437 4.90656L15.4332 4.84109L15.4312 4.81075L15.4268 4.76267L15.4244 4.74085L15.4189 4.70641L15.4162 4.69073L15.4101 4.66652L15.3882 4.6123L15.3698 4.57616L15.3078 4.49569L15.2917 4.4766L15.258 4.44216L15.2092 4.40056L15.0977 4.32112L12.2592 4.31191L9.42061 4.30304V6.30453V8.30601L9.34662 8.38512L9.32344 8.40933L9.26479 8.44104L9.23445 8.45399L9.16693 8.46252L9.13284 8.46388L9.06532 8.44854L8.97258 8.39876L8.89211 8.33363V5.5486V2.76357L8.97258 2.69845L8.98724 2.68651L9.02066 2.6681L9.03839 2.65992L9.08033 2.64798L9.10249 2.64287L9.15636 2.63673L9.25388 2.63332H9.2815L9.33196 2.63128L9.35583 2.62991L9.39572 2.62582L9.41379 2.62343L9.43869 2.61764L9.45437 2.60775V2.60536L9.44346 2.58456L9.4363 2.57229L9.41243 2.53376L9.39913 2.51228L9.36436 2.45841L9.3456 2.42976L9.30162 2.36328L9.27843 2.32884L9.22728 2.25246L9.20103 2.21325L9.14409 2.12971L9.08647 2.04481L8.96303 1.86478L8.90098 1.77476L8.77993 1.60121L8.75061 1.55927L8.69503 1.48051L8.66776 1.44198L8.61797 1.37208L8.59377 1.33832L8.55149 1.28002L8.53171 1.25274L8.49898 1.2091L8.48397 1.18932L8.46283 1.16273L8.44579 1.145L8.44374 1.14431L8.42942 1.15863L8.42055 1.16818L8.39396 1.20057L8.3793 1.21933L8.34213 1.26843L8.32235 1.29502L8.27564 1.35878L8.25143 1.3922L8.19722 1.46857L8.16926 1.50813L8.10891 1.59473L7.91047 1.8849L7.40651 2.63332L7.62064 2.63435L7.65167 2.63469L7.70554 2.63707L7.73112 2.63844L7.77578 2.64423L7.8184 2.65105L7.88012 2.67731L7.90774 2.69299L7.94695 2.74073L7.98991 2.84234L7.99127 2.84779L7.99434 2.87234L7.99571 2.887L7.99843 2.92962L7.99946 2.95315L8.00219 3.01248L8.00321 3.04419L8.0056 3.1192L8.00662 3.15841L8.00866 3.24741L8.00969 3.29344L8.01139 3.39573L8.01241 3.44824L8.01412 3.56212L8.0148 3.62043L8.01616 3.74488L8.01787 3.87172L8.01992 4.15234L8.02094 4.29623L8.0223 4.6031L8.02298 4.75892L8.02367 5.08284L8.02401 5.24582L8.02367 5.57656V5.74193L8.02264 6.07028L8.0223 6.23293L8.0206 6.54866L8.01958 6.70414L8.01753 6.99806L8.01616 7.14092L8.0131 7.40279L8.01207 7.46587L8.01037 7.58418L8.00969 7.64215L8.00764 7.74887L8.00662 7.80104L8.00457 7.89549L8.00355 7.94118L8.00116 8.02199L7.9998 8.06052L7.99741 8.12632L7.99605 8.15701L7.99366 8.20679L7.9923 8.22929L7.98923 8.26169L7.9848 8.28896L7.97457 8.31863L7.94013 8.37523L7.93092 8.38785L7.91217 8.40899L7.88489 8.43047L7.85932 8.44411L7.79863 8.45843L7.7676 8.46354L7.70384 8.46115L7.67247 8.45808L7.61485 8.43967L7.54529 8.39569L7.5371 8.3875L7.52313 8.36773L7.51665 8.35648L7.50642 8.31897L7.50403 8.30806L7.49994 8.27976L7.49789 8.26441L7.49448 8.22657L7.49278 8.20645L7.48971 8.15701L7.48835 8.13076L7.4863 8.06802L7.48494 8.0346L7.48323 7.95652L7.48255 7.9156L7.48119 7.82013L7.4805 7.77035L7.47948 7.65579L7.47914 7.59612L7.47846 7.46075L7.47812 7.39017L7.47778 7.23196L7.47744 7.14979V6.96669L7.47709 6.8719V6.66186V6.3151V4.30304L4.68695 4.31191L1.89681 4.32112L1.77645 4.41284L1.74542 4.4367L1.69495 4.4708L1.68336 4.48001L1.66256 4.50115L1.65267 4.51274L1.63494 4.54309L1.62676 4.56013L1.6121 4.60446L1.60528 4.62901L1.59335 4.69311L1.58789 4.72823L1.57834 4.81688L1.57425 4.86462L1.56675 4.98328L1.56504 5.01533L1.56232 5.08523L1.56061 5.12137L1.55823 5.20081L1.55686 5.24173L1.55482 5.33072L1.55379 5.37675L1.55209 5.47666L1.55106 5.5278L1.5497 5.63896L1.54902 5.6959L1.548 5.81899L1.54731 5.88207L1.54663 6.01743L1.54595 6.08665L1.54561 6.23531L1.54527 6.31169L1.54493 6.47399L1.54459 6.55719L1.54425 6.73415V6.82451V7.01681L1.5439 7.11501V7.323V7.42904V7.6534V7.76762L1.54425 8.00937V8.13246V8.3916V8.80144V12.8624H8.5H15.4558V8.80348ZM2.71718 10.6314L2.68819 10.6188L2.63603 10.582L2.62443 10.5728L2.60636 10.5537L2.58931 10.5278L2.58659 10.5206L2.58181 10.4991L2.57977 10.4872L2.57602 10.4568L2.57227 10.4244L2.56817 10.3382L2.56647 10.2925L2.56579 10.1868L2.56545 10.1326L2.56783 10.017L2.56954 9.95903L2.57465 9.84344L2.57772 9.78616L2.58556 9.67977L2.58965 9.62897L2.60022 9.54168L2.61795 9.44246L2.63398 9.3804L2.67865 9.25663L2.7032 9.19492L2.76253 9.07353L2.79389 9.01352L2.86618 8.89725L2.90403 8.83997L2.98756 8.73086L3.03053 8.67733L3.12361 8.57708L3.17101 8.52866L3.27193 8.44001L3.32308 8.39739L3.4298 8.32272L3.59449 8.22827L3.82055 8.11746L3.70598 7.94731L3.6678 7.89071L3.6071 7.77376L3.57914 7.71443L3.53823 7.5893L3.52016 7.52554L3.49799 7.38915L3.4847 7.1682V7.11672L3.49152 7.01818L3.49595 6.96976L3.51197 6.87701L3.52084 6.83098L3.54641 6.74301L3.56039 6.69971L3.59551 6.61583L3.61426 6.57423L3.65961 6.49411L3.68348 6.45421L3.7394 6.37681L3.76838 6.33828L3.83487 6.26327L3.94705 6.15212L3.99717 6.10643L4.10799 6.02766L4.16493 5.99084L4.28665 5.93049L4.34871 5.90253L4.47862 5.86093L4.54408 5.84252L4.67911 5.81967L4.74696 5.81081L4.88403 5.8074L4.95257 5.80808L5.08895 5.82445L5.1568 5.83536L5.28944 5.87184L5.48107 5.94958L5.49948 5.95879L5.54858 5.9905L5.57449 6.00789L5.63314 6.05187L5.80942 6.2019L5.87079 6.26088L5.97411 6.3925L6.02252 6.46069L6.09856 6.60697L6.133 6.68164L6.18141 6.83849L6.20221 6.91759L6.22301 7.07955L6.22949 7.16104L6.22199 7.32402L6.21449 7.40552L6.178 7.56475L6.15618 7.64351L6.09072 7.7949L5.95944 8.00732L5.87557 8.11712L6.09788 8.22111L6.12993 8.23611L6.1971 8.27362L6.23085 8.29374L6.30007 8.34045L6.36963 8.38887L6.50738 8.50582L6.57489 8.56617L6.69798 8.69744L6.85074 8.89589L6.86608 8.9201L6.90154 8.98454L6.91961 9.01864L6.95609 9.0957L6.97417 9.13491L7.00792 9.21503L7.0502 9.32824L7.06896 9.38347L7.09521 9.47724L7.10646 9.52327L7.12112 9.61772L7.12419 9.64261L7.12862 9.69716L7.13067 9.72546L7.13306 9.78957L7.13442 9.82298L7.13544 9.89936L7.13613 10.032V10.0937L7.1334 10.211L7.13169 10.2676L7.12624 10.3668L7.12317 10.4132L7.11567 10.4828L7.11362 10.4981L7.10953 10.5206L7.10271 10.5424L7.09385 10.5588L7.07066 10.5861L7.05668 10.5987L7.01167 10.6191L6.99837 10.6239L6.9653 10.6324L6.94723 10.6365L6.90359 10.6434L6.8804 10.6468L6.82414 10.6526L6.79413 10.6556L6.7239 10.6601L6.68673 10.6624L6.60012 10.6662L6.55443 10.6679L6.44976 10.6706L6.3952 10.672L6.27041 10.674L6.20562 10.6751L6.05901 10.6764L5.98297 10.6771L5.81317 10.6781L5.72486 10.6785L5.52948 10.6788H5.42822H5.20522H4.838H4.73707L4.5492 10.6785H4.45748L4.28699 10.6781L4.2038 10.6778L4.05002 10.6771L3.97535 10.6768L3.8376 10.6761L3.77043 10.6757L3.64802 10.6747L3.58835 10.6744L3.47992 10.673L3.42741 10.6723L3.33228 10.671L3.28659 10.6703L3.20408 10.6686L3.16419 10.6676L3.09361 10.6659L3.05951 10.6648L2.99984 10.6624L2.9712 10.6611L2.92142 10.6587L2.89789 10.6573L2.85731 10.6543L2.81879 10.6512L2.76628 10.644L2.74377 10.6403M6.58444 9.83355L6.58171 9.77252L6.57319 9.675L6.56841 9.62931L6.55375 9.55191L6.54523 9.51474L6.52136 9.44416L6.47158 9.33096L6.43885 9.26379L6.35326 9.13661L6.30757 9.07456L6.19983 8.96101L6.14357 8.90612L6.01809 8.81065L5.81453 8.69199L5.58472 8.58322H4.85164H4.11856L3.88806 8.69199L3.81816 8.72506L3.68587 8.8103L3.62177 8.85565L3.50481 8.96169L3.44855 9.01727L3.35138 9.14002L3.23238 9.33846L3.21329 9.37768L3.1843 9.44962L3.17135 9.48508L3.15225 9.55805L3.14373 9.59555L3.13214 9.68114L3.1202 9.83628L3.10452 10.1346H4.85164H6.59876L6.58444 9.83355ZM5.12646 7.9688L5.18749 7.94731L5.29626 7.88696L5.34843 7.85423L5.43845 7.77444L5.48072 7.73284L5.55028 7.63771L5.58233 7.58827L5.62939 7.48155L5.65019 7.42734L5.67405 7.31277L5.68292 7.25515L5.6819 7.13683L5.67815 7.0775L5.65053 6.95919L5.57756 6.78632L5.5571 6.74983L5.51107 6.68403L5.48686 6.65232L5.43401 6.59537L5.40708 6.5681L5.34843 6.5207L5.31876 6.49786L5.25569 6.45967L5.22363 6.4416L5.1568 6.41227L5.12339 6.39898L5.05417 6.37886L5.01905 6.36999L4.94847 6.35874L4.91301 6.35465L4.84175 6.35261L4.80595 6.35295L4.73503 6.36011L4.69991 6.36522L4.63035 6.38159L4.59625 6.39079L4.52908 6.41637L4.49601 6.43035L4.43259 6.46512L4.40156 6.48354L4.34257 6.52718L4.31359 6.55037L4.2604 6.60322L4.23449 6.63084L4.18743 6.69255L4.12538 6.79586L4.10389 6.83814L4.07184 6.92339L4.05786 6.96635L4.04013 7.05125L4.03297 7.09353L4.02854 7.17741L4.02786 7.21901L4.03604 7.3005L4.0415 7.34073L4.06127 7.41881L4.07253 7.45734L4.10287 7.53099L4.11924 7.56713L4.15947 7.63533L4.18095 7.66874L4.23005 7.73046L4.25563 7.76046L4.31257 7.81468L4.34223 7.84093L4.40633 7.88662L4.43941 7.90844L4.50965 7.94425L4.54579 7.96129L4.62148 7.98653L4.66001 7.99778L4.74048 8.01176L4.78106 8.01721L4.86528 8.01824L4.90756 8.01687L4.99416 8.00426L5.03781 7.99641M10.0003 10.656L9.98628 10.6509L9.94161 10.6226L9.8724 10.5677L9.85467 10.5513L9.83046 10.5189L9.81989 10.5008L9.80727 10.4476L9.80488 10.4316L9.80114 10.3921L9.79943 10.3709L9.79773 10.3181L9.7967 10.2898L9.79602 10.2209L9.79568 10.0961V10.0354L9.79773 9.92629L9.79909 9.87344L9.8042 9.77865L9.80693 9.73228L9.81614 9.64772L9.82091 9.60647L9.83421 9.52941L9.84887 9.45337L9.89422 9.30914L9.90718 9.27266L9.93752 9.1973L9.99139 9.07762L10.0108 9.03637L10.0586 8.95283L10.0838 8.91089L10.1421 8.82769L10.2021 8.74518L10.3457 8.58833L10.4203 8.51264L10.5816 8.38068L10.6225 8.35L10.705 8.29544L10.8288 8.22588L11.0549 8.11473L10.9502 7.96266L10.9052 7.89719L10.8363 7.76933L10.8056 7.70523L10.763 7.57293L10.7449 7.50576L10.7265 7.36017L10.7228 7.11706L10.7269 7.02602L10.7507 6.86474L10.7654 6.787L10.8128 6.64686L10.8394 6.57867L10.9134 6.45183L11.0569 6.26907L11.0968 6.22576L11.1817 6.14802L11.2247 6.11086L11.315 6.04539L11.3607 6.01436L11.4559 5.96151L11.5036 5.93628L11.6021 5.89537L11.6516 5.87661L11.7525 5.84763L11.8033 5.83467L11.9059 5.81763L11.9571 5.81081L12.0604 5.80569L12.1119 5.80433L12.2149 5.81115L12.2663 5.81592L12.3679 5.83433L12.4184 5.8449L12.518 5.87457L12.5674 5.89093L12.6636 5.93253L12.7113 5.9547L12.8034 6.0072L12.8487 6.03516L12.9357 6.09927L12.9783 6.13268L13.0591 6.20803L13.0986 6.24725L13.1726 6.33351L13.2742 6.47569L13.2879 6.49718L13.3172 6.55685L13.3322 6.58856L13.3612 6.6622L13.4311 6.89168L13.4434 6.94623L13.4594 7.03318L13.4659 7.07444L13.471 7.14604L13.4723 7.1815L13.4676 7.25447L13.4492 7.38301L13.4389 7.44268L13.4103 7.55554L13.3943 7.61112L13.354 7.7158L13.3325 7.76728L13.2804 7.86514L13.188 8.00494L13.1102 8.10893L13.3585 8.23645L13.4127 8.26441L13.5177 8.32954L13.5695 8.36364L13.6687 8.44001L13.7175 8.47957L13.8096 8.56549L13.8546 8.60947L13.9381 8.70392L13.979 8.752L14.0534 8.85327L14.0892 8.90441L14.1526 9.01114L14.1829 9.06501L14.2347 9.17582L14.2975 9.34494L14.3087 9.38143L14.3289 9.4711L14.3384 9.51781L14.3548 9.62317L14.3705 9.73092L14.3885 9.96278L14.3919 10.0194L14.3947 10.1281L14.3957 10.181L14.3933 10.2765L14.3913 10.3218L14.3831 10.3965L14.364 10.4773L14.3534 10.5029L14.3326 10.5448L14.3207 10.5646L14.2835 10.5956L14.2723 10.6028L14.2436 10.6151L14.2279 10.6212L14.1891 10.6314L14.1679 10.6365L14.1161 10.6447L14.0885 10.6488L14.0216 10.6553L13.9862 10.6584L13.9023 10.6635L13.858 10.6659L13.7543 10.6696L13.6998 10.6713L13.5739 10.6737L13.5081 10.6747L13.3585 10.6764L13.2804 10.6771L13.1041 10.6778L13.0124 10.6781H12.8071H12.7007H12.4648L12.0727 10.6774H11.9339L11.6655 10.6764L11.5336 10.6761L11.284 10.6751L11.1616 10.6744L10.9359 10.6727L10.8264 10.672L10.63 10.6699L10.5833 10.6696L10.4957 10.6686L10.4534 10.6679L10.3753 10.6669L10.3375 10.6665L10.2696 10.6652L10.2369 10.6648L10.1796 10.6635L10.1523 10.6631L10.1066 10.6618L10.0855 10.6611L10.0517 10.6601L10.0367 10.6594L10.0159 10.658L10.0074 10.6573M13.8276 9.8714L13.8256 9.81787L13.8143 9.71455L13.8072 9.66341L13.7854 9.56487L13.7734 9.51645L13.7414 9.42302L13.7243 9.377L13.6824 9.28902L13.6602 9.24538L13.6084 9.16321L13.5815 9.12263L13.5197 9.04591L13.4877 9.00841L13.4164 8.93749L13.2988 8.8386L13.2623 8.81099L13.1962 8.76462L13.1634 8.74245L13.1003 8.70631L13.0686 8.6896L13.0028 8.66198L12.9691 8.64937L12.8944 8.62959L12.8555 8.62039L12.7662 8.60641L12.7195 8.60027L12.6094 8.59106L12.5514 8.58697L12.415 8.58083L12.1736 8.57401L12.1016 8.57231L11.9792 8.57026L11.9213 8.56924L11.8234 8.56856L11.7774 8.56822L11.6993 8.56958L11.6625 8.57026L11.5994 8.57367L11.5394 8.57742L11.4439 8.59311L11.299 8.63096L11.2288 8.65244L11.0982 8.70836L11.0344 8.73836L10.9175 8.81099L10.8612 8.84917L10.7593 8.9368L10.7102 8.98249L10.6242 9.08444L10.5833 9.13695L10.5141 9.25186L10.4817 9.31085L10.4302 9.43701L10.407 9.50145L10.3743 9.63818L10.3474 9.85367L10.3327 10.1353L12.0843 10.1264L13.8362 10.1176L13.8276 9.8714ZM12.5064 7.90299L12.5405 7.88287L12.6025 7.83752L12.6325 7.81434L12.6857 7.76251L12.7116 7.73625L12.7563 7.67931L12.7778 7.65033L12.8143 7.58896L12.8484 7.5269L12.8917 7.39324L12.9087 7.32539L12.9179 7.18627V7.11672L12.893 6.97931L12.876 6.91179L12.817 6.78359L12.8 6.75256L12.7597 6.69357L12.7386 6.66459L12.6898 6.61038L12.6642 6.58378L12.607 6.53536L12.5112 6.47024L12.4719 6.44739L12.3911 6.41159L12.3502 6.39557L12.267 6.3734L12.2251 6.3642L12.1409 6.35567L12.0986 6.35329L12.0144 6.3584L11.9728 6.36249L11.8899 6.38091L11.849 6.39148L11.7692 6.42284L11.73 6.44023L11.6543 6.4849L11.5466 6.56605L11.4961 6.61072L11.417 6.70073L11.3812 6.74642L11.3294 6.8436L11.3065 6.89338L11.2792 7.00215L11.2632 7.18525V7.24799L11.2803 7.37176L11.2857 7.40142L11.3 7.45598L11.3259 7.52758L11.3352 7.5477L11.3614 7.591L11.3757 7.61316L11.4108 7.65886L11.4477 7.70455L11.538 7.79388L11.5844 7.83718L11.6812 7.90913L11.7051 7.92515L11.7508 7.95141L11.8149 7.97971L11.8381 7.98789L11.8913 7.99914L11.9185 8.00392L11.9772 8.00937L12.0369 8.01346L12.1644 8.0046L12.2278 7.99744L12.3499 7.96811L12.4082 7.95106L12.5064 7.90299Z" fill="white"/>
</svg>
