<svg width="17" height="23" viewBox="0 0 17 23" fill="none" xmlns="http://www.w3.org/2000/svg">
<path d="M4.03898 12.031L4.32164 12.0315H4.45105L4.70306 12.032L4.81787 12.0325L5.04069 12.033L5.1414 12.0335L5.33698 12.0345L5.42552 12.0355L5.5958 12.0369L5.67218 12.0379L5.81959 12.0394L5.88478 12.0409L6.01079 12.0428L6.06625 12.0443L6.1728 12.0472L6.21901 12.0487L6.30804 12.0522L6.34648 12.0541L6.41994 12.0586L6.45108 12.0605L6.51092 12.0654L6.53622 12.0679L6.62622 12.0792L6.65833 12.0861L6.71525 12.1003L6.73617 12.1087L6.89672 12.1967L6.97748 12.2723L7.00861 12.3249L7.0378 12.3805L7.05094 12.4129L7.07624 12.4817L7.08743 12.522L7.10932 12.6065L7.12002 12.6557L7.14046 12.7584L7.15067 12.8174L7.22754 13.1423L7.25868 13.2381L7.27376 13.2774L7.30392 13.3482L7.31755 13.3703L7.34868 13.4136L7.37933 13.4524L7.39928 13.476L7.44209 13.5261L7.46739 13.5546L7.51993 13.6136L7.54912 13.646L7.67513 13.7822L7.74567 13.8564L7.89211 14.0078L7.96752 14.0839L8.51922 14.6378L9.08259 14.0594L9.30833 13.8215L9.44699 13.6691L9.50585 13.6013L9.56277 13.5354L9.58759 13.5055L9.63429 13.4484L9.65375 13.4234L9.68975 13.3767L9.70289 13.358L9.72575 13.3241L9.73159 13.3128L9.76759 13.2204L9.7924 13.1403L9.80359 13.0941L9.84689 12.8985L9.85857 12.8056L9.88046 12.6636L9.89846 12.579L9.90917 12.5412L9.9583 12.4016L9.99284 12.347L10.0678 12.2468L10.1174 12.208L10.2244 12.1377L10.292 12.1102L10.3704 12.0871L10.4409 12.0738L10.4915 12.0684L10.5445 12.0635L10.5757 12.061L10.6409 12.0566L10.6793 12.0546L10.7596 12.0507L10.8058 12.0492L10.9031 12.0458L10.9586 12.0448L11.0739 12.0418L11.1395 12.0409L11.2758 12.0389L11.3526 12.0379L11.5117 12.0364L11.6003 12.0359L11.7842 12.0345L11.8858 12.034L12.0965 12.0335L12.2123 12.033L12.4516 12.0325H12.583L12.8525 12.032H12.9999H13.3026H13.467L13.9657 12.0325H14.2683L14.4059 12.033L14.6716 12.0335H14.7917L15.0233 12.0345L15.1274 12.035L15.3274 12.0359L15.4164 12.0364L15.5872 12.0384L15.6631 12.0389L15.8076 12.0414L15.8708 12.0423L15.9915 12.0448L16.044 12.0468L16.1433 12.0497L16.1861 12.0517L16.2673 12.0556L16.3019 12.0581L16.3666 12.063L16.3943 12.0654L16.4459 12.0713L16.4678 12.0748L16.5446 12.0885L16.5728 12.0974L16.6254 12.1156L16.6492 12.1264L16.7485 12.1795L16.8054 12.2178L16.8292 12.2394L16.875 12.2841L16.8935 12.3097L16.928 12.3623L16.9411 12.3923L16.9655 12.4542L16.9742 12.4891L16.9893 12.5623L16.9932 12.6036L16.9995 12.6891L17 12.7373L16.9981 12.8375L16.9946 12.8931L16.9732 13.1064L16.9504 13.2376L16.9333 13.2995L16.8954 13.4229L16.8691 13.4838L16.8122 13.6057L16.7752 13.6681L16.6954 13.7954L16.6458 13.8633L16.5388 14.0019L16.4746 14.078L16.3369 14.2353L16.2556 14.3228L16.0839 14.5051L15.9837 14.6078L15.3026 15.3062V18.5859V18.9142V19.1226V19.2213V19.4155V19.5079V19.6887V19.7747L15.3021 20.1045L15.3016 20.2515L15.3006 20.5341L15.2997 20.6584L15.2972 20.8973L15.2958 21.0015L15.2919 21.2L15.2894 21.286L15.2841 21.4487L15.2807 21.518L15.2734 21.6492L15.269 21.7043L15.2588 21.808L15.253 21.8507L15.2403 21.9304L15.233 21.9628L15.2174 22.0228L15.2082 22.0468L15.1892 22.0911L15.1785 22.1083L15.1308 22.1682L15.1007 22.1904L15.036 22.2311L14.9961 22.2557L14.9581 22.2778L14.9275 22.2867L14.8944 22.2955L14.8715 22.2995L14.8224 22.3068L14.7893 22.3103L14.7178 22.3167L14.6716 22.3196L14.5723 22.325L14.5101 22.3275L14.3768 22.3319L14.2955 22.3339L14.1223 22.3373L14.0192 22.3388L13.8002 22.3417L13.6718 22.3432L13.54 22.3442L13.4689 22.3447L13.3235 22.3457L13.2451 22.3462L13.0846 22.3471H12.999L12.8233 22.3481H12.7299L12.5382 22.3491H12.4361L12.2279 22.3496L12.1169 22.3501H11.8912L11.7715 22.3506H11.5273L11.3984 22.3511H11.1352H10.9965L10.7134 22.3516H10.5645H10.2609H10.1013H9.77684H9.60656H9.26017H9.07821H8.70895H8.51581H7.96314H7.6114H7.44355H7.11321H6.95607H6.64665H6.49924L6.21026 22.3511H6.07258H5.80256L5.67461 22.3506H5.42358L5.30487 22.3501H5.07183L4.96139 22.3496L4.74587 22.3491H4.64419L4.44472 22.3486L4.35131 22.3481L4.1679 22.3476L4.08228 22.3471L3.91443 22.3462H3.83562L3.68237 22.3452L3.61085 22.3447L3.47122 22.3437L3.40652 22.3427L3.15986 22.3403L3.05477 22.3388L2.85628 22.3358L2.7726 22.3339L2.61643 22.3299L2.55173 22.328L2.43205 22.3231L2.38388 22.3206L2.29485 22.3147L2.26031 22.3118L2.19706 22.3049L2.17274 22.3014L2.12944 22.2936L2.1129 22.2896L2.06084 22.2715L2.04333 22.2606L1.91051 22.1545L1.82635 22.0665L1.80007 22.0272L1.76942 21.9707L1.75288 21.9191L1.74607 21.8788L1.73975 21.8355L1.73683 21.8085L1.73099 21.7515L1.72856 21.7161L1.72369 21.6414L1.72175 21.5967L1.71785 21.5023L1.71591 21.4463L1.7125 21.3283L1.71104 21.2595L1.70812 21.1155L1.70715 21.0324L1.70472 20.8594L1.70375 20.7607L1.7018 20.5552L1.70083 20.4392L1.69888 20.1984L1.69839 20.0637L1.69645 19.7851L1.69596 19.6298L1.6945 19.3098L1.69353 19.1329L1.69207 18.7682L1.6911 18.5687L1.67796 15.2517L1.00512 14.5631L0.756518 14.3036L0.614944 14.1503L0.55559 14.082L0.442721 13.9493L0.396016 13.8888L0.308445 13.7704L0.27293 13.7148L0.206765 13.6057L0.180008 13.5517L0.13087 13.445L0.11141 13.3905L0.0758949 13.2799L0.0617865 13.2214L0.0355151 13.1015L0.0248119 13.0361L0.00389214 12.8602L0 12.752L0.00243268 12.7024L0.0111898 12.6065L0.0209198 12.5628L0.0428124 12.4788L0.0588672 12.4404L0.0943824 12.3677L0.117248 12.3348L0.165899 12.2723L0.195576 12.2448L0.258821 12.1927L0.295309 12.1706L0.372178 12.1279L0.415963 12.1102L0.494291 12.0871L0.564834 12.0738L0.614944 12.0684L0.667974 12.0635L0.69911 12.061L0.764302 12.0566L0.802736 12.0546L0.882523 12.0507L0.928741 12.0492L1.02556 12.0458L1.08102 12.0443L1.19632 12.0418L1.26151 12.0409L1.39725 12.0384L1.47363 12.0379L1.63174 12.0359L1.72029 12.0355L1.90321 12.034L2.00441 12.0335L2.21409 12.0325H2.32939L2.56778 12.0315H2.69817L2.96672 12.031H3.11316H3.4143H3.57777M8.83204 15.4714V21.664H14.6215V15.4714M2.3615 15.4714V21.664H8.15093V15.4714M12.8019 20.3124L12.9236 20.3129H12.979L13.0856 20.3134H13.1337L13.2271 20.3144L13.269 20.3149L13.4232 20.3168L13.484 20.3188L13.5949 20.3232L13.6368 20.3262L13.7122 20.3336L13.7394 20.338L13.7881 20.3483L13.8046 20.3552L13.8552 20.3852L13.8713 20.4078L13.9243 20.5223L13.9394 20.6078L13.9365 20.6506L13.9248 20.7361L13.9092 20.7749L13.8713 20.8491L13.8431 20.8776L13.7983 20.9184L13.7623 20.9322L13.7219 20.9445L13.6942 20.9494L13.6334 20.9582L13.5925 20.9617L13.5025 20.9671L13.4441 20.969L13.3176 20.9725L13.2374 20.9735L13.1547 20.9744L13.1084 20.9749L13.0131 20.9754H12.96L12.8511 20.9759H12.7912H12.6677H11.4548L11.3351 20.8555L11.2529 20.7493L11.2237 20.6805L11.2213 20.6461L11.2257 20.5763L11.2402 20.5405L11.2777 20.4672L11.3088 20.4284L11.4018 20.3124H12.602M13.2082 18.9368L13.3546 18.9378L13.414 18.9387L13.5249 18.9412L13.5687 18.9432L13.6499 18.9476L13.6811 18.951L13.738 18.9579L13.7589 18.9628L13.7968 18.9731L13.8109 18.9795L13.8552 19.0095L13.8713 19.0316L13.9243 19.1461L13.9394 19.2317L13.9365 19.2744L13.9248 19.3599L13.9092 19.3988L13.8713 19.473L13.8431 19.5015L13.7993 19.5413L13.7686 19.5551L13.7351 19.5673L13.7136 19.5723L13.6665 19.5811L13.6358 19.5845L13.5701 19.5904L13.5278 19.5924L13.4378 19.5958L13.3814 19.5973L13.2612 19.5988L13.1882 19.5993L13.0335 19.5998H12.9406L12.6793 19.5993L12.5368 19.5988L12.4799 19.5978L12.3738 19.5949L12.332 19.5929L12.2561 19.5875L12.2264 19.5841L12.1729 19.5752L12.152 19.5693L12.1145 19.5565L12.0994 19.5477L12.0459 19.5089L12.0162 19.4794L11.934 19.3732L11.9048 19.3044L11.9024 19.27L11.9068 19.2002L11.9214 19.1643L11.9588 19.0911L11.99 19.0523L12.0586 18.9859L12.0887 18.9712L12.1087 18.9653L12.1534 18.9555L12.1841 18.9515L12.2502 18.9451L12.294 18.9432L12.3894 18.9392L12.4502 18.9383L12.5815 18.9368H12.6628L12.837 18.9363H12.9425M10.5484 12.7191L10.5207 12.9924L10.4521 13.3217L10.4146 13.4293L10.3913 13.4833L10.3412 13.5915L10.311 13.646L10.2478 13.7551L10.2103 13.8107L10.133 13.9227L10.0887 13.9802L9.99625 14.0957L9.94468 14.1557L9.83716 14.2766L9.77732 14.339L9.35309 14.7833H14.8453L15.4811 14.1321L15.7088 13.8967L15.8363 13.7615L15.8888 13.703L15.9876 13.592L16.0275 13.5438L16.1009 13.4504L16.1301 13.4086L16.1832 13.3275L16.2036 13.2897L16.2401 13.215L16.2532 13.1781L16.2955 13.0292L16.3072 12.9412L16.3374 12.7191M0.650946 12.7191L0.682569 12.8788L0.714192 13.0238L0.737058 13.1088L0.75068 13.1482L0.780843 13.2248L0.800304 13.2627L0.842143 13.3389L0.869874 13.3792L0.929227 13.4617L0.967175 13.5084L1.04891 13.6047L1.09999 13.6613L1.20897 13.7792L1.27562 13.849L1.41719 13.996L1.50185 14.0829L2.18393 14.7833H7.67853L7.23046 14.3154L7.06164 14.1331L6.96288 14.02L6.92007 13.967L6.83882 13.8618L6.80379 13.8117L6.73714 13.7114L6.70893 13.6618L6.60871 13.4642L6.57319 13.3595L6.54011 13.2528L6.52648 13.1963L6.5007 13.0803L6.49 13.0179L6.43794 12.7191M8.67393 2.61531L8.78485 2.64922L8.84274 2.67576L8.95951 2.73474L9.02032 2.77307L9.14243 2.85564L9.20519 2.90528L9.3312 3.00996L9.39541 3.06943L9.52434 3.19427L9.58904 3.26406L9.71894 3.40757L9.78413 3.48571L9.91452 3.64594L9.97922 3.73194L10.1086 3.90789L10.1724 4.00127L10.2989 4.19098L10.3611 4.29026L10.6058 4.69966L10.7197 4.91837L10.9415 5.36463L11.0408 5.5971L11.2295 6.06744L11.3088 6.30679L11.4791 6.87986L11.5701 7.24699L11.6042 7.42343L11.6645 7.7709L11.6835 7.93702L11.7131 8.26386L11.7161 8.41916L11.7185 8.62263L11.7165 8.73371L11.7131 8.77892L11.7039 8.86297L11.6956 8.8959L11.6766 8.95684L11.6621 8.98043L11.6299 9.0227L11.6076 9.03892L11.5599 9.06742L11.5287 9.07872L11.4621 9.09838L11.4207 9.10625L11.3322 9.12148L11.2787 9.12935L11.0924 9.16473L10.9761 9.19668L10.9216 9.21683L10.815 9.25959L10.7654 9.28515L10.6686 9.33872L10.6238 9.36968L10.5368 9.43505L10.4964 9.47142L10.4185 9.54809L10.383 9.59035L10.3139 9.67882L10.2828 9.72698L10.2225 9.82675L10.1957 9.88131L10.1145 10.0587L10.0804 10.16L10.0702 10.216L10.0614 10.2745L10.0585 10.3074L10.0537 10.3767L10.0522 10.417L10.0498 10.5025L10.0488 10.5536L10.0483 10.6608V10.7247L10.0444 10.9493L10.0386 11.0943L10.0342 11.1587L10.025 11.2815L10.0191 11.3292L10.0074 11.4142L10.0006 11.4373L9.92376 11.628L9.85224 11.7509L9.80846 11.8074L9.71651 11.9165L9.66445 11.9632L9.55742 12.0507L9.5005 12.0836L9.41293 12.1323L9.36914 12.149L9.27768 12.1775L9.21589 12.1863L9.1507 12.1942L9.11129 12.1976L9.02762 12.203L8.97702 12.2055L8.86999 12.2094L8.80528 12.2109L8.66955 12.2139L8.58879 12.2153L8.33483 12.2178L8.18888 12.2168L8.12612 12.2148L8.00692 12.2089L7.95535 12.204L7.85708 12.1927L7.81378 12.1849L7.73156 12.1667L7.6941 12.1549L7.62161 12.1298L7.58756 12.1136L7.45425 12.0409L7.38274 11.9893L7.27716 11.9062L7.21781 11.8502L7.193 11.8202L7.14581 11.7583L7.12683 11.7239L7.09083 11.6511L7.07624 11.6093L7.04948 11.5214L7.03926 11.4698L7.02029 11.3616L7.01299 11.2977L6.99937 11.1641L6.9945 11.0859L6.98526 10.9218L6.98186 10.8269L6.97358 10.6303L6.96775 10.5168L6.96434 10.4676L6.95802 10.3748L6.95412 10.3349L6.94585 10.2583L6.94099 10.2253L6.9191 10.1049L6.90401 10.0553L6.87093 9.96191L6.84855 9.91522L6.76001 9.755L6.69384 9.65719L6.65736 9.61247L6.58195 9.52646L6.54108 9.48763L6.45643 9.41342L6.41021 9.38049L6.31631 9.31808L6.26572 9.29104L6.16209 9.24042L6.10712 9.21929L5.99425 9.17997L5.93441 9.16523L5.81229 9.1377L5.74759 9.12886L5.5992 9.1033L5.51747 9.08364L5.48439 9.07086L5.42358 9.04236L5.39974 9.02368L5.35741 8.98289L5.34184 8.95635L5.3146 8.89835L5.30584 8.861L5.29173 8.78138L5.28881 8.73223L5.28541 8.62657L5.28638 8.56218L5.29076 8.42604L5.29514 8.34495L5.32725 7.96307L5.3613 7.70111L5.38465 7.56743L5.43476 7.2981L5.46542 7.16147L5.53109 6.88772L5.56904 6.75011L5.64931 6.47439L5.69456 6.33677L5.78846 6.06204L5.84002 5.9259L5.94706 5.65411L6.00495 5.52092L6.12414 5.25552L6.18836 5.12577L6.46908 4.59989L6.66611 4.26962L6.76779 4.11726L6.9731 3.82041L7.07721 3.68624L7.28592 3.42772L7.38955 3.31517L7.59631 3.10089L7.69702 3.01242L7.79724 2.9269L7.84638 2.88906L7.94465 2.81681L7.99233 2.78585L8.08671 2.72736L8.13293 2.70377L8.22391 2.66003L8.26769 2.64381L8.35429 2.61531L8.39564 2.60695L8.47738 2.59467H8.51581M7.66442 10.8515V11.0899L7.67707 11.2447L7.69945 11.3272L7.71843 11.3602L7.7627 11.4206L7.79384 11.4447L7.86292 11.4889L7.90768 11.5066L7.92179 11.5106L7.93444 11.5125L7.96363 11.5155L7.98357 11.5169L8.07455 11.5224L8.13536 11.5243L8.26672 11.5268L8.34213 11.5273L8.4983 11.5268L8.581 11.5253L8.76977 11.5214L8.87339 11.5189L8.91572 11.5169L8.99453 11.5125L9.02616 11.5101L9.08405 11.5037L9.10692 11.4997L9.18379 11.4796L9.2086 11.4634L9.25238 11.4265L9.27427 11.399L9.34336 11.257L9.3672 11.1365V10.8515M7.93006 3.72703L7.75589 3.91379L7.64058 4.0514L7.58318 4.12611L7.46885 4.27994L7.4129 4.36153L7.301 4.52912L7.24603 4.61759L7.03051 4.98177L6.92931 5.17689L6.73179 5.57547L6.64227 5.7819L6.47005 6.19867L6.3961 6.40853L6.2555 6.82825L6.20004 7.03418L6.14652 7.23863L6.12366 7.3389L6.08133 7.53794L6.0643 7.63427L6.03317 7.82595L6.02198 7.91835L6.00349 8.10019L5.99911 8.18669L5.98598 8.44669L6.28858 8.5553L6.53184 8.65655L6.67973 8.73322L6.74736 8.77647L6.87823 8.86739L6.93807 8.91899L7.05435 9.02663L7.10786 9.08757L7.21149 9.21486L7.25965 9.28662L7.35306 9.43554L7.39636 9.51958L7.48198 9.69356L7.52236 9.79038L7.60215 9.9914L7.64058 10.103L7.64788 10.1148L7.65615 10.1197L7.67659 10.1285L7.69216 10.1325L7.72767 10.1398L7.752 10.1428L7.80502 10.1477L7.83859 10.1497L7.91108 10.1531L7.95535 10.1541L8.04974 10.1556H8.1052H8.22342L8.29202 10.1551L8.43602 10.1536L8.51824 10.1521L9.37401 10.1388L9.47131 9.84789L9.56521 9.61394L9.6411 9.46601L9.68489 9.39622L9.77732 9.25959L9.82889 9.19619L9.93592 9.07184L9.99528 9.01532L10.1164 8.90474L10.1816 8.8551L10.3159 8.75926L10.3874 8.71749L10.5334 8.63738L10.6107 8.60396L10.7674 8.54105L10.8491 8.51648L11.0418 8.45799L11.0276 8.21717L10.9824 7.79007L10.9313 7.49027L10.8963 7.33496L10.8199 7.0214L10.7732 6.86118L10.6735 6.53926L10.6156 6.37757L10.4949 6.05368L10.4278 5.89297L10.2882 5.57351L10.2118 5.41722L10.0556 5.10808L9.97192 4.95965L9.80116 4.66673L9.71116 4.52814L9.46839 4.18263L9.29519 3.95704L9.21443 3.86022L9.13513 3.76684L9.09913 3.72654L9.02956 3.65085L8.99989 3.62136L8.94442 3.56877L8.9235 3.55305L8.88604 3.52847H8.87583L8.86658 3.55649L8.86123 3.6017L8.85831 3.63709L8.85345 3.71523L8.85102 3.76536L8.84663 3.873L8.84469 3.9364L8.8408 4.07008L8.83934 4.14577L8.83642 4.30206L8.83545 4.38807L8.8335 4.56401L8.83301 4.65838L8.83204 4.85104V6.37609L9.09816 6.50338L9.27719 6.60561L9.38423 6.68425L9.4319 6.72799L9.52288 6.81891L9.56229 6.86806L9.6377 6.96881L9.66932 7.02238L9.72867 7.13149L9.75202 7.1885L9.79532 7.304L9.81089 7.36347L9.83814 7.48339L9.84592 7.54433L9.85711 7.66671V7.72815L9.85224 7.85151L9.84397 7.91245L9.82354 8.03434L9.80749 8.0943L9.771 8.21274L9.74667 8.27025L9.69462 8.38378L9.66251 8.43784L9.59391 8.54449L9.55402 8.59462L9.46985 8.69242L9.42169 8.73715L9.32195 8.82365L9.266 8.86248L9.15022 8.93669L9.086 8.96814L8.89431 9.04629L8.7649 9.08266L8.7002 9.09298L8.56981 9.10772H8.50511L8.37521 9.10182L8.31099 9.09101L8.18255 9.06447L8.11931 9.04383L7.99379 8.99665L7.93249 8.96569L7.81086 8.89835L7.752 8.85707L7.63523 8.76959L7.57929 8.71847L7.43625 8.56218L7.35501 8.44521L7.32192 8.38181L7.26014 8.25206L7.23678 8.18424L7.19543 8.04564L7.1823 7.97438L7.16138 7.83086L7.15943 7.75862L7.1604 7.61412L7.16916 7.54286L7.19203 7.40131L7.21246 7.333L7.25868 7.19784L7.2903 7.13395L7.42409 6.92458L7.53647 6.78992L7.59972 6.72996L7.72913 6.61544L7.7953 6.57023L7.92763 6.49011L7.98941 6.46751L8.15093 6.40853V3.50783M8.36694 7.08284L8.29299 7.10053L8.25699 7.1138L8.18645 7.14427L8.15288 7.16393L8.08817 7.20718L8.05801 7.23323L8.0006 7.28975L7.97579 7.32268L7.92763 7.39198L7.90768 7.43178L7.87168 7.51484L7.85805 7.56153L7.83762 7.68195L7.83713 7.76353L7.84249 7.80432L7.85757 7.88591L7.8707 7.92572L7.90038 8.00436L7.92033 8.0422L7.96363 8.11592L7.98941 8.15032L8.04487 8.21717L8.0765 8.24665L8.14266 8.30367L8.17964 8.32775L8.25553 8.37296L8.29688 8.39066L8.39662 8.42359L8.4477 8.4285L8.54987 8.43145L8.59998 8.4226L8.69971 8.39803L8.7469 8.3764L8.83982 8.32824L8.88264 8.29629L8.96388 8.22749L8.9994 8.18669L9.06508 8.10069L9.09086 8.05252L9.13708 7.95275L9.1507 7.89869L9.17211 7.7886V7.7306L9.15995 7.59299L9.13951 7.50895L9.12443 7.47061L9.09037 7.3964L9.06897 7.36347L9.02324 7.30007L8.99697 7.27255L8.94102 7.21996L8.91037 7.19784L8.84663 7.15656L8.81258 7.13985L8.67003 7.08529L8.59463 7.07595L8.44186 7.06809M10.8832 1.8717L10.9109 1.87662L10.9688 1.88989L11.0019 1.9007L11.0709 1.92527L11.1108 1.94247L11.1935 1.97934L11.2412 2.00293L11.341 2.05306L11.3974 2.08353L11.5166 2.14791L11.5837 2.18576L11.9306 2.39611L12.1544 2.54748L12.2624 2.62907L12.4755 2.79519L12.5777 2.88316L12.7796 3.06304L12.8759 3.15741L13.0656 3.34957L13.1561 3.44984L13.3332 3.65331L13.4174 3.75947L13.5813 3.97326L13.6582 4.08384L13.809 4.30746L13.8791 4.42198L14.0153 4.65395L14.0776 4.77289L14.1987 5.01224L14.2537 5.13462L14.3592 5.38036L14.4059 5.50519L14.496 5.75634L14.5344 5.88363L14.6069 6.13969L14.637 6.26895L14.6925 6.52796L14.7134 6.65869L14.7509 6.92016L14.7626 7.05138L14.7815 7.31481L14.784 7.44653L14.7859 7.59102V7.67113L14.7854 7.70406L14.7835 7.7655L14.7815 7.79007L14.7767 7.83627L14.7733 7.85495L14.7553 7.91884L14.7397 7.94145L14.7037 7.98273L14.6769 8.00485L14.619 8.05055L14.5942 8.06432L14.547 8.08692L14.5237 8.09036L14.475 8.09135L14.4463 8.08447L14.3845 8.06579L14.3451 8.04957L14.2483 7.98863L14.2021 7.92719L14.1851 7.87903L14.1695 7.82742L14.1627 7.79597L14.1496 7.72864L14.1437 7.68883L14.133 7.6038L14.1281 7.55367L14.1184 7.448L14.1136 7.38657L14.0834 7.07595L14.0576 6.87691L14.042 6.78058L13.9696 6.4046L13.9199 6.22373L13.8105 5.86594L13.7399 5.68704L13.5876 5.32826L13.4937 5.14199L13.2738 4.74291L13.1148 4.4898L13.0296 4.37037L12.8545 4.13495L12.7606 4.02388L12.5689 3.80616L12.4667 3.70393L12.258 3.50292L12.1471 3.40904L11.9214 3.22523L11.8022 3.13922L11.5584 2.97212L11.4305 2.89447L11.1692 2.74309L11.0315 2.6733L10.8233 2.56223L10.7148 2.49784L10.6749 2.46983L10.6039 2.41528L10.5805 2.39119L10.5426 2.3445L10.5343 2.32288L10.5129 2.19755L10.5227 2.114L10.5382 2.07566L10.5762 2.00145L10.6049 1.97098L10.6671 1.91495L10.7066 1.89677L10.834 1.86875M6.27837 1.87416L6.33188 1.9007L6.35572 1.91987L6.40048 1.96213L6.41897 1.98769L6.45302 2.04126L6.46519 2.07075L6.48659 2.13071L6.49194 2.16167L6.49827 2.22409L6.49535 2.25456L6.48562 2.31403L6.47346 2.34155L6.44524 2.39414L6.42335 2.41626L6.39853 2.43641L6.37324 2.4541L6.35621 2.46541L6.27934 2.51406L6.22874 2.54404L6.12074 2.60695L6.05895 2.64136L5.93149 2.71164L5.86484 2.74653L5.40363 3.0193L5.11221 3.2213L4.97502 3.33188L4.70646 3.55993L4.58095 3.6828L4.33575 3.93443L4.22288 4.0691L4.00298 4.34334L3.90276 4.48882L3.70913 4.78469L3.62253 4.93999L3.45614 5.25503L3.38414 5.41968L3.24694 5.75339L3.18954 5.92639L3.0718 6.33481L3.00515 6.62232L2.97937 6.76485L2.93266 7.04745L2.91855 7.17769L2.9059 7.30597L2.9025 7.36593L2.89666 7.48241V7.535L2.89179 7.68195L2.88401 7.76255L2.8772 7.79499L2.86163 7.85593L2.85044 7.8805L2.8266 7.92572L2.81152 7.9444L2.73709 8.02057L2.69719 8.04318L2.61595 8.07955L2.57459 8.08201L2.4914 8.07759L2.45102 8.05989L2.37026 8.01419L2.3328 7.97634L2.25788 7.89181L2.22869 7.83627L2.22188 7.79646L2.21701 7.7537L2.21555 7.72667L2.21506 7.66917L2.21555 7.63329L2.21847 7.55564L2.2209 7.50796L2.22625 7.40623L2.22966 7.34479L2.25642 7.00911L2.28172 6.79139L2.29826 6.68523L2.37464 6.26649L2.4301 6.06302L2.55221 5.65755L2.632 5.45457L2.71471 5.2511L2.76093 5.14838L2.85677 4.94196L2.9098 4.83678L3.15305 4.39888L3.33014 4.11923L3.42598 3.98555L3.62253 3.7231L3.7281 3.59826L3.94411 3.35351L4.05892 3.23801L4.29342 3.01095L4.41797 2.90479L4.67095 2.6964L4.80425 2.59909L5.07524 2.40938L5.2173 2.32189L5.5058 2.15184L5.65661 2.07419L5.82884 1.99015L5.9383 1.941L5.98646 1.92134L6.07793 1.88546L6.11296 1.87465L6.17425 1.85745H6.18982M14.2167 0.379085L14.3782 0.409065L14.4502 0.435114L14.5903 0.495565L14.6565 0.538815L14.7883 0.634162L14.856 0.69658L14.9825 0.82977L15.0564 0.924133L15.088 0.973281L15.1474 1.07305L15.1717 1.12466L15.2174 1.22885L15.235 1.28242L15.2671 1.39005L15.2778 1.44461L15.2958 1.55421L15.2997 1.60925L15.3045 1.71984L15.3021 1.77488L15.2938 1.88448L15.2851 1.93854L15.2637 2.04667L15.2481 2.09975L15.214 2.20492L15.1921 2.25604L15.1459 2.35679L15.1177 2.40545L15.0588 2.50079L15.0248 2.54601L14.9538 2.63447L14.9139 2.67576L14.8312 2.75685L14.7854 2.79371L14.6906 2.86498L14.639 2.89692L14.5329 2.95787L14.4755 2.98391L14.3155 3.04633L14.2332 3.06353L14.0664 3.08909H13.9822L13.8134 3.08024L13.7302 3.06403L13.5653 3.02274L13.4855 2.9908L13.3288 2.91904L13.2549 2.87284L13.1118 2.77258L13.0466 2.71311L12.9216 2.5868L12.8681 2.51455L12.7669 2.36416L12.7265 2.28061L12.618 2.05404H12.2069L12.0814 2.05355L12.0114 2.05207L11.9822 2.0506L11.8785 2.04274L11.8425 2.03438L11.7778 2.01472L11.7521 1.9985L11.7029 1.96066L11.6757 1.93363L11.5935 1.82747L11.5643 1.75866L11.5618 1.72426L11.5662 1.65447L11.5808 1.61859L11.6183 1.54536L11.6494 1.50653L11.7126 1.44412L11.7632 1.4161L11.8002 1.40676L11.8396 1.39841L11.8639 1.39497L11.9155 1.38858L11.9467 1.38612L12.0128 1.38121L12.0527 1.37924L12.1364 1.37531L12.186 1.37334L12.6297 1.35614L12.6954 1.20133L12.7903 1.01358L12.8637 0.899068L12.9051 0.847463L12.9912 0.747693L13.0389 0.703952L13.1367 0.620401L13.1897 0.584523L13.2982 0.516699L13.3566 0.489176L13.4748 0.439045L13.537 0.420369L13.6645 0.386949L13.7307 0.377611L13.8659 0.362866L13.936 0.362375M3.22894 0.356477L3.31895 0.372204L3.4975 0.412506L3.58555 0.446909L3.68918 0.497531L3.76167 0.542256L3.79816 0.568795L3.94459 0.68675L4.01271 0.756048L4.14358 0.89956L4.19515 0.973281L4.24428 1.04651L4.26374 1.0819L4.29926 1.15218L4.31094 1.18511L4.37564 1.36597H4.75852L4.93366 1.3699L5.03486 1.37728L5.07767 1.38317L5.1594 1.39693L5.19346 1.40676L5.25719 1.4279L5.28297 1.44166L5.33065 1.47115L5.34865 1.48933L5.38125 1.52816L5.39244 1.55126L5.41239 1.59991L5.41774 1.62842L5.42552 1.68789V1.72229L5.4192 1.80978L5.40703 1.8604L5.39682 1.88202L5.37298 1.92282L5.35644 1.93953L5.31946 1.97147L5.29562 1.98376L5.24405 2.00735L5.21194 2.01669L5.14432 2.03241L5.10394 2.03831L5.01832 2.04765L4.96869 2.05011L4.86409 2.05404H4.37564L4.31142 2.23343L4.26618 2.3332L4.22628 2.4025L4.20196 2.43788L4.09395 2.57992L4.02876 2.64774L3.89254 2.77897L3.82005 2.83451L3.67312 2.93673L3.60209 2.97015L3.4323 3.03896L3.34473 3.05813L3.1691 3.08713L3.08056 3.08762L2.90347 3.07926L2.81687 3.06157L2.64465 3.01783L2.56194 2.98342L2.39994 2.90675L2.32453 2.85662L2.1776 2.74948L2.11144 2.68461L1.98543 2.54896L1.93192 2.47081L1.8317 2.30863L1.79326 2.21819L1.75872 2.11351L1.74072 2.03389L1.7344 1.99015L1.71445 1.80634V1.71001L1.72126 1.51784L1.7344 1.42986L1.74899 1.34484L1.75872 1.3065L1.78013 1.23278L1.79326 1.20182L1.92657 0.958537L2.03603 0.814534L2.09928 0.752116L2.23161 0.634162L2.30507 0.585506L2.45589 0.495074L2.53665 0.460671L2.70157 0.400219L2.78768 0.382034L2.96137 0.353037L3.0504 0.351562M2.95407 1.04799L2.88596 1.06863L2.69087 1.15709L2.58335 1.23622L2.54151 1.2839L2.4661 1.38366L2.44032 1.43871L2.39702 1.55224L2.38777 1.61171L2.37804 1.73212L2.38631 1.79257L2.41113 1.91348L2.43642 1.97147L2.49724 2.08549L2.54102 2.13759L2.63784 2.23834L2.7006 2.2811L2.77455 2.3273L2.81201 2.34401L2.88742 2.3735L2.92488 2.38235L3.00029 2.39611L3.03726 2.39758L3.11072 2.39709L3.14672 2.39169L3.28781 2.35777L3.35203 2.32435L3.47463 2.24621L3.52571 2.19411L3.62058 2.08156L3.65415 2.0157L3.71156 1.87858L3.72275 1.80388L3.73151 1.72868L3.73053 1.68986L3.72567 1.61269L3.71788 1.57338L3.69842 1.49474L3.68285 1.45542L3.64831 1.37678L3.62447 1.33845L3.48679 1.1856L3.37003 1.10844L3.30387 1.08436L3.16716 1.04602L3.09613 1.04307M13.8518 1.04799L13.7837 1.06863L13.5886 1.15709L13.4811 1.23622L13.4393 1.2839L13.3638 1.38366L13.3381 1.43871L13.2948 1.55224L13.2855 1.61171L13.2758 1.73212L13.2841 1.79257L13.3089 1.91348L13.3342 1.97147L13.395 2.08549L13.4388 2.13759L13.5356 2.23834L13.5983 2.2811L13.6723 2.3273L13.7098 2.34401L13.7852 2.3735L13.8226 2.38235L13.898 2.39611L13.935 2.39758L14.0085 2.39709L14.0445 2.39169L14.1856 2.35777L14.2498 2.32435L14.3724 2.24621L14.4235 2.19411L14.5183 2.08156L14.5519 2.0157L14.6093 1.87858L14.6205 1.80388L14.6293 1.72868L14.6283 1.68986L14.6234 1.61269L14.6156 1.57338L14.5962 1.49474L14.5806 1.45542L14.5461 1.37678L14.5222 1.33845L14.3845 1.1856L14.2678 1.10844L14.2016 1.08436L14.0649 1.04602L13.9939 1.04307M8.76782 0.379085L8.92934 0.409065L9.00135 0.435114L9.14146 0.495565L9.20762 0.538815L9.33947 0.634162L9.40709 0.69658L9.54672 0.847955L9.62845 0.958537L9.66348 1.01702L9.72867 1.13596L9.75494 1.19641L9.80262 1.31781L9.81916 1.37777L9.84738 1.49572L9.8537 1.55224L9.861 1.66233L9.85614 1.71197L9.84105 1.8083L9.82451 1.84959L9.78559 1.92626L9.7564 1.95574L9.67418 2.01816L9.61629 2.04421L9.58661 2.04962L9.52726 2.05502L9.49807 2.05109L9.44066 2.03782L9.41293 2.02504L9.35941 1.99457L9.33558 1.97344L9.28887 1.92675L9.26941 1.89824L9.23292 1.8373L9.2193 1.80142L9.19546 1.72721L9.18914 1.68543L9.13708 1.47705L9.08405 1.3586L9.04854 1.30945L8.97021 1.21804L8.92156 1.18167L8.81745 1.11581L8.75566 1.09173L8.63501 1.05044L8.56981 1.03521L8.53965 1.03324L8.4803 1.03422L8.44721 1.04012L8.37813 1.05536L8.33483 1.06863L8.14509 1.15464L8.03806 1.23376L7.99476 1.28291L7.91595 1.38809L7.88822 1.44854L7.84103 1.57534L7.83081 1.64513L7.7807 1.8314L7.75686 1.88645L7.7447 1.90905L7.71891 1.94985L7.70675 1.96213L7.63913 2.01767L7.60118 2.03192L7.52334 2.05207L7.48247 2.04913L7.40025 2.03438L7.35987 2.01423L7.28009 1.96557L7.2436 1.92822L7.1784 1.85401L7.15165 1.80978L7.14532 1.7852L7.13705 1.73311L7.139 1.6987L7.14532 1.62351L7.15311 1.5719L7.21246 1.30945L7.27084 1.14776L7.3083 1.07403L7.38906 0.931506L7.43723 0.868105L7.53891 0.746219L7.59729 0.693631L7.71794 0.593861L7.78459 0.553068L7.92276 0.477872L7.9972 0.449366L8.15044 0.399727L8.23266 0.385474L8.39905 0.362866L8.48711 0.362375L8.76782 0.379085Z" fill="white"/>
</svg>
