<svg width="17" height="12" viewBox="0 0 17 12" fill="none" xmlns="http://www.w3.org/2000/svg">
<path d="M0.0813477 11.7585L0 11.6768V6.0957V0.51459L0.0813477 0.43291L0.163027 0.351562H6.90094H7.1068H7.49959H7.69316H8.06172H8.24334H8.58865H8.75832L9.08105 0.351895H9.23977H9.54059H9.68867L9.96857 0.352226H10.1057H10.3654L10.4929 0.352559L10.7329 0.352891H10.8508L11.0722 0.353223L11.1805 0.353555L11.384 0.353887H11.4836L11.6699 0.354551L11.7612 0.354883L11.9309 0.355215L12.0139 0.355547L12.1683 0.356211L12.2437 0.356543L12.3831 0.357207L12.4512 0.357871L12.5763 0.358535L12.6374 0.359199L12.7497 0.360195L12.8041 0.360527L12.9037 0.361524L12.9519 0.362187L13.0399 0.363516L13.0824 0.36418L13.1594 0.365508L13.1962 0.366172L13.263 0.367832L13.2952 0.368496L13.3526 0.370156L13.3802 0.371152L13.4287 0.372812L13.4755 0.374805L13.5459 0.378789L13.5781 0.381113L13.6242 0.386094L13.6448 0.38875L13.6727 0.394395L13.685 0.397383L13.7006 0.404023L13.7175 0.414981L13.7959 0.478398L13.8125 2.04027L13.8291 3.60215L15.2542 3.00615L15.3521 2.96531L15.5421 2.88662L15.6357 2.84777L15.814 2.77473L15.901 2.7392L16.063 2.67346L16.1417 2.64191L16.2838 2.58514L16.3522 2.55824L16.4701 2.51242L16.5255 2.49084L16.6152 2.4573L16.6358 2.44967L16.6706 2.43705L16.6869 2.43141L16.7131 2.42244L16.7254 2.41846L16.7427 2.41314L16.7583 2.41016H16.7822L16.8363 2.43307L16.8635 2.44768L16.915 2.49051L16.9392 2.51342L16.9758 2.56488L17 2.63859V2.64092L16.9927 2.66416L16.988 2.6791L16.9714 2.72625L16.9621 2.75281L16.9369 2.82287L16.9233 2.86039L16.8898 2.95203L16.8722 3.00018L16.8307 3.11174L16.8091 3.16984L16.7606 3.30033L16.7354 3.36773L16.6799 3.51582L16.6514 3.59186L16.5896 3.75621L16.5581 3.84022L16.4903 4.01984L16.4558 4.11115L16.3828 4.30439L16.3456 4.40268L16.2675 4.6082L16.228 4.71279L16.1454 4.92961L16.1038 5.03951L16.0172 5.26662L15.9737 5.38117L15.8837 5.61691L15.6031 6.3507L15.5434 6.50609L15.4302 6.80193L15.3744 6.94703L15.2685 7.22262L15.2163 7.35775L15.1177 7.61309L15.0696 7.73826L14.9786 7.97367L14.9338 8.08889L14.8501 8.30437L14.8089 8.40996L14.7326 8.60586L14.695 8.70148L14.6256 8.87812L14.5921 8.96412L14.5297 9.12184L14.4995 9.19787L14.4444 9.33633L14.4175 9.4034L14.3693 9.52293L14.3461 9.58004L14.3049 9.68098L14.285 9.72912L14.2504 9.81113L14.2342 9.84998L14.2063 9.91406L14.1933 9.94361L14.1724 9.9891L14.1628 10.0097L14.1485 10.0372L14.1342 10.0585L14.108 10.0811L14.0506 10.1023L14.035 10.106L13.9994 10.1076L13.9377 10.1033L13.8125 10.0864V10.8816V11.6768L13.7312 11.7585L13.6495 11.8398H6.90625H0.163027L0.0813477 11.7585ZM13.3065 10.196L13.3154 9.06672L12.8675 8.13736L12.42 7.20801L11.0208 6.49248L10.9245 6.44334L10.7386 6.34771L10.6472 6.30023L10.4736 6.20992L10.3889 6.16543L10.2319 6.08242L10.1555 6.04225L10.0187 5.96887L9.9533 5.93367L9.84074 5.87191L9.78795 5.84303L9.70361 5.79521L9.68436 5.78426L9.65215 5.76533L9.63688 5.75637L9.61297 5.74143L9.60234 5.73479L9.5874 5.72449L9.57545 5.7142L9.55818 5.69096L9.53893 5.63783L9.53195 5.61061L9.53228 5.55516L9.53494 5.52727L9.5542 5.47514L9.604 5.4074L9.60666 5.40508L9.62061 5.39645L9.62891 5.3918L9.65414 5.37885L9.66809 5.37187L9.70428 5.35428L9.7232 5.34498L9.76936 5.32373L9.79326 5.31244L9.84871 5.28721L9.8776 5.27393L9.94168 5.24537L10.0078 5.21549L10.1638 5.14676L10.2455 5.1109L10.4288 5.03154L10.5234 4.9907L10.7289 4.90272L10.8342 4.85756L11.057 4.76326L11.4053 4.61717L11.5238 4.56736L11.7539 4.47107L11.8675 4.42393L12.0829 4.33328L12.1885 4.28912L12.3844 4.20645L12.4797 4.1666L12.6514 4.09389L12.7337 4.05936L12.8762 3.99893L12.9097 3.98465L12.9705 3.95875L12.9997 3.94647L13.0515 3.92422L13.0761 3.91393L13.1182 3.89566L13.1378 3.88736L13.1697 3.87342L13.184 3.86711L13.2049 3.85781L13.2231 3.84951L13.3145 3.80303V3.30564V2.80859H6.92285H0.53125V7.0752V11.3421L6.91455 11.3335L13.2979 11.3252L13.3065 10.196ZM15.0052 6.46426L15.0739 6.28562L15.206 5.94131L15.2708 5.77197L15.3926 5.45289L15.4222 5.37486L15.4793 5.22479L15.5075 5.15107L15.5613 5.00963L15.5875 4.94023L15.6377 4.80842L15.6622 4.74367L15.7081 4.62248L15.7303 4.56338L15.7718 4.45348L15.7917 4.40002L15.8286 4.30207L15.8462 4.25492L15.8777 4.17059L15.893 4.12975L15.9189 4.05936L15.9312 4.02582L15.9514 3.97037L15.9611 3.94447L15.975 3.90496L15.9813 3.88703L15.9893 3.86412L15.9933 3.84918L15.9926 3.84885L15.984 3.85648L15.9783 3.86146L15.9594 3.87973L15.9488 3.89002L15.9206 3.91824L15.905 3.93385L15.8678 3.9717L15.8479 3.99162L15.802 4.03844L15.7778 4.06301L15.724 4.11846L15.6961 4.14701L15.6347 4.21043L15.6031 4.24297L15.5351 4.31369L15.4999 4.34988L15.4252 4.42725L15.3873 4.46676L15.3066 4.55043L15.2246 4.63576L15.0457 4.8227L14.9537 4.91865L14.7581 5.12385L14.4503 5.44691L12.9197 7.05693L13.2039 7.64695L13.2514 7.74623L13.3377 7.92586L13.3795 8.01252L13.4549 8.16891L13.4911 8.24428L13.5562 8.37875L13.5874 8.4435L13.6428 8.55771L13.6694 8.6125L13.7159 8.70813L13.7381 8.75395L13.777 8.8323L13.7952 8.86949L13.8268 8.93258L13.8417 8.96213L13.867 9.01094L13.8789 9.03352L13.8985 9.07004L13.9078 9.08664L13.9224 9.11187L13.9294 9.12316L13.9403 9.1391L13.9456 9.14574L13.9533 9.15371L13.9606 9.16002L13.9689 9.15504L13.9788 9.13379L13.9798 9.13146L13.9868 9.11354L13.9911 9.10225L14.0044 9.06738L14.0121 9.04779L14.0316 8.99666L14.0423 8.9691L14.0678 8.9027L14.0814 8.8675L14.1127 8.78682L14.1286 8.74465L14.1648 8.65068L14.1837 8.60188L14.2246 8.49529L14.2458 8.44051L14.2913 8.3223L14.3145 8.26187L14.364 8.13305L14.3892 8.0673L14.4427 7.92852L14.4696 7.85812L14.5264 7.7107L14.5549 7.63566L14.6147 7.48027L14.6751 7.32322L14.8036 6.98854L14.869 6.81887M14.118 5.0498L14.2246 4.93791L14.4288 4.72275L14.5294 4.61684L14.7183 4.41728L14.8106 4.31967L14.9803 4.14004L15.0211 4.09654L15.0988 4.0142L15.137 3.97369L15.2084 3.89799L15.2432 3.8608L15.3076 3.79207L15.3392 3.75854L15.3963 3.69711L15.4238 3.66756L15.4733 3.61477L15.4969 3.5892L15.5377 3.54504L15.557 3.52412L15.5892 3.48926L15.6038 3.47299L15.6264 3.44809L15.6363 3.4368L15.649 3.42219L15.6559 3.41289L15.6549 3.41156L15.635 3.41688L15.628 3.4192L15.6068 3.42684L15.5948 3.43115L15.562 3.44377L15.5444 3.45074L15.4982 3.469L15.473 3.4793L15.4112 3.5042L15.3784 3.51781L15.2987 3.55035L15.2565 3.56762L15.1569 3.60879L15.1044 3.6307L14.9826 3.68117L14.9188 3.70773L14.7727 3.7685L14.6967 3.80037L14.524 3.87209L14.4344 3.90961L14.2332 3.99361L14.1289 4.03744L13.8972 4.13439L13.8371 4.1593L13.7109 4.21209L13.6468 4.23898L13.5123 4.29543L13.4439 4.32398L13.3005 4.38408L13.2278 4.4143L13.0757 4.47805L12.9984 4.51059L12.837 4.57799L12.584 4.68391L12.3808 4.76924L11.9833 4.93525L11.8864 4.97576L11.7011 5.05313L11.6101 5.09131L11.4405 5.16203L11.3581 5.19623L11.2094 5.25832L11.138 5.28787L11.0148 5.339L10.9859 5.35096L10.9338 5.37254L10.9086 5.38316L10.8647 5.40109L10.8438 5.40973L10.8086 5.42434L10.7661 5.4416L10.7193 5.46086L10.634 5.49705L10.5935 5.51432L10.5257 5.54486L10.4952 5.55881L10.4527 5.58006L10.4444 5.58438L10.4331 5.59135L10.4261 5.59732V5.59865L10.4497 5.61293L10.4653 5.62189L10.5164 5.64979L10.5453 5.66539L10.62 5.7049L10.6602 5.72615L10.7545 5.77563L10.804 5.80119L10.9139 5.8583L10.9703 5.88752L11.0918 5.94994L11.2154 6.01369L11.479 6.14816L11.6111 6.21557L11.8678 6.34539L11.9299 6.3766L12.0471 6.4357L12.1042 6.46426L12.2088 6.51605L12.2589 6.54129L12.3459 6.58412L12.3871 6.60438L12.4532 6.63625L12.483 6.65053L12.5239 6.66945L12.5524 6.68041H12.5528L12.5621 6.67145L12.568 6.6658L12.5876 6.64654L12.5986 6.63559L12.6275 6.6057L12.6434 6.58977L12.6816 6.55059L12.7015 6.53L12.7483 6.48152L12.7729 6.45629L12.8277 6.39951L12.8559 6.36996L12.9183 6.30521L12.9505 6.27201L13.0196 6.19996L13.0551 6.16311L13.1308 6.08408L13.1697 6.04357L13.2514 5.95857L13.3344 5.87158L13.5157 5.68166L13.6086 5.58438L13.8069 5.37686L13.9075 5.27094M13.3068 1.57178L13.2979 0.866211L6.91455 0.85791L0.53125 0.849277V1.56348V2.27734H6.92352H13.3158L13.3068 1.57178ZM1.27367 10.3401L1.25674 10.3318L1.22818 10.3122L1.21457 10.3012L1.19299 10.2693L1.18303 10.2507L1.16742 10.196L1.16377 10.1807L1.15779 10.1435L1.1548 10.1239L1.14982 10.0781L1.1475 10.0538L1.14352 9.99773L1.14152 9.96818L1.13854 9.90078L1.13688 9.86525L1.13488 9.7849L1.13389 9.74307L1.13223 9.6491L1.13156 9.59996L1.13057 9.49072L1.1299 9.43395L1.12957 9.30844L1.12924 9.24336L1.12891 9.09992V8.86418V7.58486L1.22586 7.48758L1.32314 7.39062H3.35352H5.38389L5.4825 7.48924L5.58111 7.58752L5.57115 8.90303L5.56152 10.2189L5.46822 10.2989L5.37525 10.3789L3.35982 10.3766H3.27781L3.1201 10.3763L3.04273 10.3759L2.89465 10.3756L2.8216 10.3753L2.68281 10.3746L2.61475 10.3743L2.48559 10.3736L2.42217 10.3729L2.30264 10.3719L2.24387 10.3716L2.13396 10.3703L2.08018 10.3696L1.98023 10.3683L1.93109 10.3676L1.84078 10.3663L1.79695 10.3653L1.7166 10.3636L1.67775 10.363L1.60736 10.361L1.5735 10.3603L1.51307 10.3583L1.48451 10.3573L1.43438 10.355L1.41047 10.354L1.37063 10.3517L1.35203 10.3504L1.32281 10.348L1.30953 10.3467L1.29027 10.344L1.2823 10.3427M5.04688 9.01359V8.92727L5.04654 8.77851L5.04621 8.70813L5.04488 8.58859L5.04422 8.53248L5.04256 8.43951L5.04123 8.39635L5.03857 8.32795L5.03691 8.29674L5.03293 8.24992L5.03094 8.229L5.02563 8.20145L5.02297 8.18982L5.01666 8.1792H5.00537L4.99309 8.18883L4.95623 8.21639L4.93598 8.23166L4.88418 8.26885L4.85662 8.28844L4.79254 8.33393L4.759 8.3575L4.68463 8.4093L4.60826 8.46242L4.43494 8.58162L4.34662 8.64238L4.16334 8.7669L4.07203 8.82865L3.89705 8.94586L3.85488 8.97408L3.7752 9.02721L3.73635 9.05311L3.66496 9.09992L3.63076 9.1225L3.57033 9.16168L3.54178 9.18027L3.49463 9.20982L3.47305 9.22344L3.4415 9.24236L3.41428 9.25697L3.38572 9.26693L3.33725 9.27225L3.3233 9.27092L3.28711 9.2583L3.26686 9.25L3.21207 9.22012L3.1968 9.21148L3.1616 9.1899L3.14301 9.17828L3.10018 9.15072L3.0776 9.13611L3.02646 9.10191L2.99957 9.08398L2.93881 9.04281L2.90693 9.0209L2.83521 8.97176L2.79803 8.94619L2.71502 8.88875L2.67186 8.85887L2.5759 8.79246L2.41652 8.6819L1.66016 8.15729V9.01891V9.88086H3.35352H5.04688V9.01359ZM3.93457 8.29906L4.4532 7.93848L3.90336 7.92951L3.86551 7.92885L3.7815 7.92785L3.73867 7.92719L3.64637 7.92652L3.5524 7.92586L3.35252 7.92553H3.25258L3.05834 7.92652L3.01119 7.92686L2.92254 7.92785L2.80002 7.92951L2.24652 7.93848L2.77512 8.30969L2.84783 8.36082L2.98463 8.45312L3.01783 8.47504L3.07959 8.51521L3.1098 8.5348L3.16492 8.569L3.19148 8.58527L3.23797 8.61283L3.25988 8.62578L3.29607 8.64537L3.31301 8.654L3.33758 8.66496L3.35949 8.6706L3.36348 8.66961L3.38141 8.66098L3.39203 8.65533L3.42225 8.63773L3.43885 8.62811L3.47969 8.60254L3.50127 8.58893L3.55141 8.55705L3.60354 8.52318L3.72838 8.43984L3.79346 8.39635M6.12133 9.25033L6.09941 9.24137L6.05691 9.20916L6.036 9.19156L5.9998 9.14707L5.98287 9.12416L5.95896 9.07568L5.94336 9.00762V8.99932L5.951 8.97607L5.95598 8.96379L5.97191 8.93557L6.04031 8.84891L6.06322 8.82633L6.10041 8.79545L6.119 8.78217L6.16184 8.76656L6.18541 8.75992L6.25182 8.75461L6.27074 8.75361L6.3159 8.75262L6.39725 8.75229L6.4341 8.75262L6.49951 8.75461L6.53105 8.75627L6.58617 8.76158L6.61273 8.76457L6.65889 8.77353L6.6808 8.77818L6.71865 8.7908L6.75451 8.80441L6.80432 8.84359L6.85279 8.92395L6.86309 8.95283L6.86441 9.01592L6.86242 9.04746L6.8425 9.10955L6.82988 9.13943L6.79203 9.19057L6.71998 9.24568L6.70803 9.251L6.67084 9.25996L6.65059 9.26428L6.60045 9.27059L6.54799 9.27656L6.42381 9.28022L6.36139 9.28055L6.24518 9.27357L6.21861 9.27092L6.17279 9.26395L6.15188 9.25996M7.48133 9.25133L7.46141 9.24303L7.42787 9.21945L7.41227 9.20684L7.38703 9.17596L7.37541 9.15969L7.35848 9.1235L7.35117 9.1049L7.34287 9.06539L7.33988 9.04547L7.34088 9.00463L7.34254 8.98404L7.3525 8.94353L7.35881 8.92361L7.37873 8.88576L7.41924 8.8333L7.43783 8.81504L7.47137 8.78981L7.48897 8.77851L7.53279 8.76523L7.55736 8.75959L7.62775 8.75428L7.64768 8.75328L7.69516 8.75229L7.78016 8.75195H7.80904L7.85951 8.75262L7.88375 8.75295L7.92525 8.75461L7.96477 8.7566L8.0232 8.7649L8.0501 8.76988L8.0916 8.78582L8.14705 8.82068L8.17361 8.84193L8.20914 8.89738L8.22375 8.9266L8.23438 8.99268L8.23637 9.02588L8.22176 9.09361L8.17096 9.18824L8.15668 9.20551L8.12846 9.23008L8.11318 9.24104L8.07168 9.25465L8.04811 9.26096L7.97971 9.26793L7.96012 9.26926L7.91363 9.27158L7.83063 9.27457L7.79244 9.27557L7.7174 9.2749L7.68055 9.27424L7.61381 9.27092L7.58193 9.26893L7.53113 9.26262L7.50855 9.25963M8.73209 9.05975L8.71383 9.03617L8.69125 8.98205L8.68195 8.95416L8.67764 8.89539V8.86617L8.69158 8.80973L8.73342 8.73436L8.7384 8.72805L8.76695 8.71078L8.78356 8.70148L8.83004 8.67957L8.85527 8.66828L8.91438 8.64437L8.94459 8.63209L9.01 8.60818L9.07574 8.58428L9.20025 8.54609L9.22881 8.53779L9.27662 8.52684L9.32842 8.51953H9.35398L9.40811 8.54377L9.435 8.55938L9.48381 8.60586L9.50672 8.63076L9.53992 8.68853L9.5615 8.7752L9.56117 8.81039L9.54557 8.8685L9.53494 8.89605L9.49443 8.9432L9.4702 8.96578L9.39814 9.00762L9.37789 9.01791L9.33041 9.03883L9.24773 9.0707L9.21088 9.08398L9.14447 9.1059L9.11227 9.11586L9.05516 9.13047L9.0276 9.13711L8.97846 9.14508L8.95488 9.14807L8.91305 9.14906L8.89312 9.1484L8.85727 9.14242L8.84 9.13844L8.80945 9.12549L8.78023 9.11055M10.0735 8.64106L10.0466 8.61781L10.0107 8.56104L9.9958 8.53148L9.98385 8.46773L9.98086 8.43586L9.99381 8.37311L10.0423 8.2891L10.0539 8.27615L10.0928 8.24926L10.1143 8.23598L10.1691 8.20842L10.2269 8.18152L10.3663 8.13371L10.4012 8.12309L10.4703 8.10516L10.5038 8.09686L10.5662 8.08557L10.5961 8.08125L10.6459 8.07826L10.701 8.08523L10.7206 8.09254L10.7545 8.11379L10.7704 8.12541L10.7973 8.15396L10.8099 8.16891L10.8292 8.20244L10.8378 8.21971L10.8495 8.25689L10.8541 8.27582L10.8571 8.315L10.8574 8.33459L10.8518 8.37344L10.8478 8.39303L10.8329 8.43021L10.7993 8.48268L10.7927 8.49031L10.7631 8.5109L10.7462 8.52152L10.6994 8.54609L10.6745 8.55838L10.6167 8.58494L10.5865 8.59822L10.5227 8.62412L10.4583 8.64969L10.3358 8.69053L10.3076 8.69916L10.2598 8.71111L10.206 8.71875H10.2003L10.1824 8.71277L10.1728 8.70879L10.1495 8.69584L10.1256 8.6819M11.3817 8.20875L11.3658 8.19646L11.3389 8.16691L11.3266 8.15131L11.3073 8.11678L11.2901 8.08092L11.2784 8.00256L11.2764 7.96371L11.2957 7.89L11.3023 7.8724L11.3219 7.84119L11.3604 7.80168L11.3701 7.79404L11.4023 7.77678L11.4199 7.76781L11.4647 7.74822L11.5119 7.72863L11.6264 7.68979L11.6838 7.67119L11.7934 7.64264L11.819 7.63633L11.8631 7.62836L11.9149 7.62305H11.9495L12.0106 7.64131L12.0391 7.65293L12.0856 7.69178L12.1065 7.71336L12.1347 7.76881L12.1523 7.86709V7.90262L12.1367 7.96139L12.1254 7.98895L12.0816 8.03676L12.0683 8.04838L12.0355 8.07096L12.0175 8.08191L11.9747 8.10416L11.9518 8.11545L11.898 8.13836L11.804 8.17422L11.7732 8.18551L11.7187 8.2041L11.6921 8.21273L11.6457 8.22635L11.6012 8.23863L11.5314 8.24859L11.4992 8.25125L11.4478 8.24228L11.4235 8.23564M2.47197 5.78193L2.44707 5.75703L2.4152 5.70457L2.40225 5.67834L2.39428 5.62355L2.39328 5.59566L2.40889 5.53922L2.45936 5.45256L2.52842 5.36523H5.16541H5.24643H5.40115H5.47719H5.62229H5.694H5.8298H5.89654L6.02338 5.36557H6.14822L6.37234 5.3659H6.48025L6.67283 5.36656H6.76514L6.9285 5.36756L7.00652 5.36789L7.14332 5.36889L7.2084 5.36955L7.32096 5.37121L7.37441 5.37187L7.46506 5.37387L7.50822 5.37486L7.57994 5.37752L7.61348 5.37885L7.66859 5.38184L7.69449 5.3835L7.73533 5.38715L7.75426 5.38914L7.78381 5.39379L7.8107 5.39844L7.84059 5.41006L7.86914 5.43164L7.89205 5.45455L7.91994 5.51465L7.9309 5.54619L7.93555 5.61492L7.93521 5.64912L7.91662 5.71453L7.86283 5.79555L7.85387 5.80385L7.83295 5.81779L7.82 5.8241L7.77617 5.83439L7.76289 5.83672L7.72836 5.84104L7.70977 5.84303L7.66262 5.84635L7.63705 5.84801L7.57463 5.851L7.54143 5.85232L7.46141 5.85465L7.41891 5.85564L7.3183 5.85731L7.26551 5.8583L7.14232 5.85963L7.07758 5.85996L6.92883 5.86096L6.85113 5.86162L6.67449 5.86195L6.58252 5.86229L6.37566 5.86262L6.26809 5.86295L6.02803 5.86328H5.96561H5.83478H5.76805H5.62793H5.55688H5.40713H5.17205H2.55365L2.47197 5.78193ZM2.47197 4.55342L2.44973 4.53084L2.41453 4.47041L2.40723 4.45514L2.39693 4.42559L2.39062 4.38574V4.37379L2.39693 4.3459L2.40125 4.33162L2.41453 4.30107L2.47197 4.21807L2.55365 4.13672H5.17803H5.25871H5.41277H5.48848H5.63291H5.70396H5.8391H5.90551L6.03201 4.13705H6.15619L6.37898 4.13738H6.48656L6.67814 4.13805H6.77012L6.93248 4.13904L7.01051 4.13937L7.14631 4.14037L7.21105 4.14104L7.32328 4.14269L7.37641 4.14336L7.46672 4.14535L7.50955 4.14635L7.58094 4.149L7.61447 4.15033L7.66926 4.15332L7.69482 4.15498L7.73566 4.15863L7.75459 4.16062L7.78414 4.16527L7.8107 4.16992L7.84059 4.18154L7.86914 4.20312L7.88973 4.22371L7.91762 4.28281L7.93555 4.38574V4.4216L7.91762 4.48867L7.86914 4.56836L7.86084 4.57666L7.84059 4.58994L7.82797 4.59625L7.78414 4.60621L7.77053 4.60854L7.73566 4.61285L7.71674 4.61451L7.66926 4.61816L7.64369 4.61982L7.58094 4.62248L7.5474 4.62381L7.46672 4.62613L7.42389 4.62713L7.32328 4.62879L7.26982 4.62979L7.14631 4.63111L7.08156 4.63144L6.93248 4.63244L6.85478 4.63311L6.67814 4.63344L6.58584 4.63377L6.37898 4.6341L6.27174 4.63443H6.03201L5.96992 4.63477H5.8391H5.7727H5.63291H5.56186H5.41277H5.17803H2.55365L2.47197 4.55342ZM1.17871 1.8218L1.15115 1.81516L1.104 1.79225L1.08209 1.7793L1.04623 1.74643L1.02996 1.72883L1.00605 1.68865L0.99543 1.66773L0.983809 1.62225L0.979492 1.59934L0.98082 1.55219L0.982813 1.52861L0.997422 1.4818L1.00639 1.45889L1.03461 1.41539L1.09271 1.35695L1.10102 1.35098L1.13588 1.34002L1.15613 1.33504L1.21324 1.32707L1.24379 1.32375L1.31883 1.31877L1.44832 1.31545H1.4802L1.53564 1.31578L1.56187 1.31611L1.60703 1.31744L1.64986 1.3191L1.71162 1.32707L1.73984 1.33205L1.78201 1.34799L1.83846 1.38318L1.85771 1.39846L1.88693 1.43365L1.89988 1.45191L1.91715 1.49143L1.92445 1.51168L1.9301 1.55385L1.93143 1.57477L1.92611 1.6166L1.92213 1.63752L1.90619 1.67703L1.89689 1.69629L1.87066 1.73148L1.85605 1.74842L1.8202 1.77664L1.75545 1.80885L1.7425 1.8135L1.70598 1.82113L1.68639 1.82479L1.63924 1.83076L1.59043 1.83607L1.47588 1.84072L1.41844 1.84205L1.3082 1.83807L1.2823 1.83641L1.23582 1.83176L1.21424 1.8291M2.23789 1.80021L2.21631 1.79025L2.17945 1.76436L2.16219 1.75041L2.13463 1.71787L2.12234 1.70094L2.10441 1.66408L2.09645 1.64516L2.08848 1.60531L2.08549 1.58539L2.08748 1.54488L2.0898 1.52496L2.10209 1.48578L2.10973 1.46686L2.13264 1.431L2.17912 1.38318L2.19771 1.36857L2.23557 1.34799L2.25549 1.33869L2.30596 1.32707L2.33385 1.32242L2.41055 1.31744L2.4318 1.31678L2.48193 1.31578L2.56926 1.31545L2.61574 1.31578L2.69875 1.31877L2.73793 1.32076L2.80434 1.32707L2.83521 1.33072L2.8817 1.34002L2.92486 1.35695L2.94246 1.37057L2.97135 1.40078L2.98496 1.41672L3.00621 1.45059L3.02514 1.48512L3.03809 1.55916L3.04041 1.59635L3.02016 1.66939L3.01285 1.68699L2.99193 1.7202L2.95109 1.76635L2.94014 1.77598L2.90162 1.79324L2.88004 1.80121L2.82393 1.81416L2.79404 1.82047L2.72631 1.82943L2.69145 1.83342L2.6174 1.83807L2.54303 1.84172L2.39959 1.83441L2.36605 1.83143L2.30762 1.82146L2.28006 1.81582M3.39568 1.82246L3.36646 1.81682L3.31301 1.78395L3.28744 1.76469L3.24627 1.71256L3.22801 1.685L3.20576 1.62324L3.20145 1.53094L3.20576 1.50869L3.21738 1.47084L3.22369 1.45258L3.24029 1.42236L3.24959 1.40809L3.27316 1.38451L3.28611 1.37355L3.31865 1.35629L3.33592 1.34832L3.37875 1.33637L3.40166 1.33072L3.45645 1.32342L3.48566 1.3201L3.55406 1.31645L3.67426 1.31445H3.71012L3.77088 1.31479L3.79943 1.31512L3.84691 1.31678L3.86916 1.31744L3.90602 1.32043L3.92328 1.32209L3.9515 1.32707L3.97807 1.33271L4.01625 1.35164L4.06904 1.3958L4.08631 1.4134L4.11287 1.45125L4.12449 1.47018L4.13977 1.51002L4.14607 1.52994L4.15006 1.57012L4.15072 1.59004L4.14441 1.62922L4.13977 1.64848L4.12283 1.685L4.1132 1.70293L4.08664 1.73547L4.07203 1.75107L4.03584 1.7783L3.97109 1.81117L3.96014 1.81549L3.92727 1.82246L3.90934 1.82578L3.86518 1.83109L3.81869 1.83607L3.70646 1.84006L3.64936 1.84139L3.53646 1.8374L3.50924 1.83607L3.45977 1.83143L3.43619 1.8291L3.39568 1.82246Z" fill="white"/>
</svg>
