<svg width="17" height="18" viewBox="0 0 17 18" fill="none" xmlns="http://www.w3.org/2000/svg">
<path d="M4.40671 17.257L4.35945 17.2249L4.28325 17.1544L4.24832 17.118L4.19612 17.0376L4.17283 16.9963L4.14426 16.905L4.12733 16.755V16.7187L4.13191 16.6545L4.13509 16.6238L4.14849 16.5684L4.15661 16.5416L4.18201 16.4919L4.19647 16.4675L4.23704 16.4203L4.25926 16.3963L4.31782 16.3483L4.34957 16.3236L4.42929 16.2711L4.47198 16.2439L4.57604 16.1839L4.7623 16.0823L5.23853 15.828L5.24841 15.4018L5.25829 14.9754L2.84715 14.9658L0.435662 14.9559L0.292793 14.8614L0.249756 14.8328L0.168268 14.7503L0.0747858 14.612L0 14.4575L0.000705542 9.59148V9.44544V9.1664V9.02883L0.00105828 8.76637V8.63726V8.39103V8.27003L0.00141105 8.03933V7.92609V7.7109V7.60543L0.00176382 7.40471V7.30628L0.00211659 7.12003V7.02831L0.00246933 6.85545L0.0028221 6.77079L0.00317487 6.61099L0.00352764 6.53268L0.00388038 6.38557V6.31326L0.00458592 6.17815L0.00493869 6.11183L0.0056442 5.98801L0.00599697 5.92733L0.00670248 5.81445L0.00705525 5.75942L0.00776079 5.65676L0.00811353 5.60667L0.00917185 5.5139L0.00952462 5.46839L0.0105829 5.38478L0.0116412 5.30365L0.0141105 5.16642L0.0155216 5.10152L0.0186964 4.99463L0.0204602 4.94418L0.0239879 4.8627L0.0261045 4.82495L0.0303376 4.76498L0.032807 4.73711L0.0377456 4.69408L0.0405677 4.67432L0.0465647 4.64434L0.0673777 4.58049L0.0765496 4.56073L0.103712 4.51628L0.118176 4.49371L0.153099 4.4482L0.171443 4.42597L0.209894 4.3847L0.266689 4.33355L0.400033 4.23196L4.9094 4.22278L9.41877 4.21361V2.73871V2.63606V2.44909L9.41912 2.35843L9.41948 2.19369L9.41983 2.11397L9.42089 1.97039L9.42159 1.9009L9.42336 1.77602L9.42442 1.7157L9.42724 1.6081L9.42865 1.55625L9.43253 1.46382L9.43465 1.41938L9.44029 1.34106L9.44311 1.30332L9.44981 1.23629L9.45369 1.20454L9.46216 1.14775L9.4671 1.12059L9.47768 1.07226L9.48897 1.02569L9.51825 0.950201L9.53412 0.914219L9.57399 0.848958L9.64771 0.747363L9.66959 0.718789L9.71721 0.666933L9.74226 0.641886L9.79799 0.596027L9.82727 0.57345L9.89394 0.530766L10.0089 0.468327L10.2464 0.351562H13.175H13.3214H13.5941L13.7271 0.351915H13.9747L14.095 0.352268L14.3183 0.352621L14.4269 0.352974L14.6273 0.353679L14.7247 0.354032L14.9032 0.354737L14.9896 0.355443L15.1473 0.356501L15.2238 0.357207L15.3625 0.358618L15.4291 0.359323L15.5494 0.361087L15.6076 0.361793L15.711 0.363909L15.7607 0.364967L15.8482 0.367084L15.8902 0.368495L15.9629 0.370964L15.9978 0.372376L16.0574 0.37555L16.0856 0.376961L16.1329 0.380489L16.1555 0.382253L16.1918 0.38578L16.2659 0.398833L16.3283 0.416824L16.45 0.476088L16.5093 0.508895L16.6201 0.593205L16.6733 0.638006L16.7665 0.742071L16.879 0.914572L16.9855 1.12235L16.9958 2.78704L16.9961 2.88722L16.9972 3.07031L16.9979 3.15885L16.9986 3.31971L16.9989 3.39767L16.9996 3.53807V3.6058L17 3.72786V3.78642L16.9996 3.89119L16.9993 3.94128L16.9986 4.03053L16.9982 4.07321L16.9968 4.1487L16.9961 4.18469L16.9944 4.24748L16.9933 4.27746L16.9908 4.32967L16.9894 4.35472L16.9862 4.39811L16.9831 4.43938L16.9739 4.50147L16.969 4.53004L16.9566 4.57696L16.9337 4.64434L16.9093 4.7096L16.8451 4.82812L16.8106 4.88562L16.7273 4.98828L16.6832 5.03696L16.582 5.12162L16.4112 5.22639L16.2095 5.32552L14.9487 5.33646L13.6879 5.34739L13.6787 9.96047L13.6696 14.5736L13.5708 14.703L13.5454 14.7365L13.5052 14.7905L13.4847 14.8159L13.436 14.8554L13.4223 14.8642L13.3884 14.8801L13.3704 14.8879L13.326 14.9006L13.302 14.9069L13.2434 14.9175L13.2124 14.9224L13.1369 14.9306L13.0967 14.9344L13.0011 14.9408L12.9503 14.9436L12.831 14.9482L12.7686 14.9503L12.6229 14.9538L12.5467 14.9552L12.3714 14.9577L12.28 14.9588L12.0719 14.9602L11.9636 14.9612L11.7198 14.9623L11.6563 14.9627L11.5227 14.963L11.4542 14.9634L11.3103 14.9641H11.2369L11.0824 14.9648L10.8386 14.9658L8.43104 14.9754V15.3948V15.8139L8.88081 16.0499L8.94254 16.082L9.06319 16.1483L9.12174 16.1811L9.22687 16.2428L9.27625 16.2725L9.35386 16.3222L9.37115 16.3338L9.39831 16.3532L9.42689 16.3762L9.45228 16.4002L9.49391 16.4538L9.51331 16.4813L9.54259 16.5413L9.55564 16.5716L9.57293 16.6355L9.57998 16.6676L9.58457 16.7339L9.58563 16.767L9.57787 16.8334L9.57258 16.8665L9.55247 16.9318L9.54083 16.9639L9.50837 17.0256L9.44523 17.1124L9.41912 17.142L9.3775 17.19L9.35668 17.2122L9.30694 17.2471L9.29284 17.2553L9.25932 17.2694L9.24133 17.2761L9.19759 17.2874L9.17431 17.293L9.11751 17.3022L9.08717 17.3064L9.01451 17.3135L8.9757 17.3166L8.88398 17.3219L8.8353 17.3244L8.72171 17.3283L8.66174 17.33L8.52346 17.3325L8.45044 17.3336L8.28429 17.3353L8.19715 17.336L7.99996 17.3367L7.8973 17.3371H7.6666H7.60628H7.47963H7.41508H7.27891H7.20942H7.06337H6.83302H4.52595L4.40671 17.257ZM9.12069 16.8411L9.13339 16.8274L9.15032 16.8037L9.15737 16.7921L9.16443 16.7713L9.16655 16.761L9.16408 16.7409L9.14997 16.7088L9.1475 16.7049L9.13268 16.6919L9.12421 16.6848L9.09811 16.6661L9.08365 16.6563L9.04767 16.6333L9.02826 16.6213L8.98346 16.5942L8.9369 16.5663L8.82366 16.5028L8.63493 16.4023L8.56897 16.3684L8.44303 16.301L8.382 16.2682L8.27476 16.2083L8.24971 16.1938L8.20527 16.168L8.1841 16.1553L8.14847 16.1338L8.13189 16.1236L8.10649 16.1067L8.0818 16.0883L8.06451 16.0724L8.04123 16.0379L8.03594 16.028L8.02818 16.0022L8.0243 15.9881L8.01901 15.9522L8.01654 15.9324L8.01301 15.882L8.0116 15.8548L8.00948 15.7864L8.00878 15.7497L8.00807 15.6601L8.00772 15.4974V14.9736H6.8436H5.67948L5.67878 15.4939V15.5655L5.67631 15.6996L5.6749 15.7645L5.66961 15.8752L5.6682 15.901L5.66502 15.9462L5.66361 15.9673L5.66008 16.0022L5.65832 16.0185L5.65444 16.0418L5.64809 16.0619L5.64632 16.065L5.63151 16.077L5.62234 16.0837L5.59517 16.1021L5.58 16.112L5.54155 16.1356L5.52074 16.1479L5.47276 16.1762L5.42232 16.2054L5.29921 16.2739L5.09319 16.3843L5.04275 16.4107L4.95491 16.4577L4.91293 16.4802L4.84061 16.5201L4.8064 16.5392L4.74854 16.5727L4.72138 16.5889L4.67728 16.6171L4.65647 16.6305L4.62402 16.6542L4.6092 16.6654L4.58768 16.6855L4.55664 16.7356L4.55311 16.7586L4.54923 16.796V16.8132L4.56722 16.8408L4.57393 16.8471L4.59474 16.8584L4.60638 16.8637L4.63954 16.8725L4.65788 16.8771L4.70515 16.8842L4.7309 16.8877L4.79546 16.8937L4.83038 16.8961L4.91434 16.9007L4.95879 16.9025L5.06462 16.9057L5.12071 16.9074L5.25088 16.9096L5.31931 16.9103L5.47629 16.9117L5.55813 16.9124L5.74439 16.9131L5.84105 16.9134L6.05906 16.9138H6.17194H6.42381H6.84254H6.97942H7.22811H7.34841H7.56606L7.67118 16.9134L7.85991 16.9131H7.95092L8.11284 16.9124H8.19045L8.32768 16.9113L8.39329 16.911L8.50794 16.9099L8.56262 16.9092L8.65716 16.9074L8.70196 16.9067L8.77815 16.9043L8.81414 16.9032L8.87411 16.9004L8.90233 16.899L8.94854 16.8958L8.97006 16.894L9.00428 16.8898L9.0205 16.8877L9.0452 16.8827L9.06812 16.8778L9.09388 16.8647L9.10516 16.858M13.1856 14.4952L13.2043 14.4822L13.2297 14.4522L13.2353 14.443L13.2434 14.418L13.2473 14.4039L13.253 14.3658L13.2558 14.3446L13.2589 14.2892L13.2607 14.2585L13.2621 14.1809L13.2632 14.139L13.2635 14.0345L13.2639 13.8426V13.245H6.8436H0.423316V13.8271V13.8941L0.423668 14.006L0.424021 14.0589L0.425079 14.1457L0.426138 14.1862L0.428607 14.2515L0.430018 14.2818L0.434251 14.3298L0.436721 14.3517L0.44307 14.3859L0.446598 14.4014L0.455417 14.4257L0.493868 14.4797L0.502687 14.4885L0.531261 14.503L0.541138 14.5062L0.571829 14.5122L0.589114 14.515L0.639206 14.5203L0.667075 14.5228L0.742213 14.527L0.783487 14.5291L0.890021 14.533L0.918948 14.5337L0.983856 14.5351L1.01737 14.5362L1.09215 14.5376L1.13061 14.5383L1.21597 14.5393L1.26007 14.54L1.35708 14.5411L1.40682 14.5418L1.51582 14.5429L1.57191 14.5432L1.69397 14.5443L1.75676 14.5446L1.89257 14.5453L1.96207 14.5457L2.11234 14.5464L2.18925 14.5467L2.35469 14.5475H2.43936L2.62103 14.5482H2.71381L2.91171 14.5485L3.01295 14.5489L3.22884 14.5492H3.3389L3.57278 14.5496H3.69237L3.9453 14.5499H4.07406H4.34675H4.48573L4.77923 14.5503H4.92845H5.24276H5.40292H5.73945H5.91054H6.27001H6.83584H7.01152H7.34805H7.5142H7.8324H7.98902L8.28887 14.5499H8.43668H8.71889H8.85788L9.12316 14.5496H9.25368H9.50238L9.62443 14.5492H9.85726L9.97155 14.5489L10.1885 14.5485H10.295L10.4972 14.5482L10.5966 14.5478L10.7843 14.5475L10.8764 14.5471L11.0499 14.5467L11.1353 14.5464L11.2955 14.546L11.3741 14.5457L11.5216 14.545L11.5939 14.5446L11.7294 14.5439L11.7953 14.5436L11.9188 14.5425L11.9791 14.5422L12.0913 14.5411L12.146 14.5407L12.2476 14.5397L12.2973 14.5393L12.3887 14.5383L12.4331 14.5376L12.5146 14.5362L12.5545 14.5358L12.6272 14.5344L12.6977 14.533L12.8134 14.5298L12.8674 14.5284L12.9538 14.5245L12.9937 14.5228L13.0551 14.5185L13.0829 14.5164L13.1228 14.5118L13.1408 14.5094L13.1644 14.5041L13.1743 14.5012M13.2639 9.08245V5.34316H12.8981H12.5319L11.6722 6.03105L11.613 6.07832L11.498 6.16933L11.4412 6.21378L11.3329 6.29809L11.2796 6.33936L11.1805 6.41485L11.1325 6.45154L11.045 6.5168L11.0027 6.54784L10.9297 6.60111L10.8951 6.6258L10.8386 6.66461L10.8125 6.68189L10.7755 6.70482L10.7445 6.71893H10.7258L10.6774 6.70165L10.6122 6.66073L10.5977 6.64732L10.5776 6.61064L10.5734 6.599L10.5663 6.56901L10.5631 6.55278L10.5582 6.50939L10.5561 6.48576L10.5529 6.42614L10.5515 6.39369L10.5497 6.31326L10.5487 6.26987L10.548 6.16545L10.5476 5.97707V5.35233L10.3624 5.32764L10.3116 5.32093L10.1878 5.29095L10.1575 5.28284L10.1007 5.26485L10.0283 5.23733L10.0068 5.22781L9.95991 5.20064L9.93592 5.18618L9.88583 5.1502L9.83574 5.1128L9.73626 5.02144L9.68828 4.97417L9.60679 4.87751L9.58845 4.85352L9.55847 4.80837L9.52531 4.74558L9.48086 4.63763H5.01029H4.87201H4.60814H4.47833H4.23104H4.10934H3.87757H3.76363H3.54774L3.4412 4.63799H3.24013H3.141H2.95404L2.86232 4.63834H2.68876L2.60374 4.63869H2.44394L2.36528 4.63904L2.21782 4.6394H2.14586L2.0104 4.6401H1.94443L1.82061 4.64081H1.76029L1.64776 4.64151L1.59272 4.64187L1.49042 4.64257L1.44068 4.64292L1.34861 4.64363L1.25901 4.64469L1.10732 4.6468L1.03606 4.64786L0.917184 4.65033L0.8618 4.65174L0.771845 4.65527L0.729867 4.65703L0.664605 4.66091L0.634268 4.66303L0.589114 4.66762L0.568301 4.67009L0.539022 4.67573L0.525617 4.67855L0.507626 4.68526L0.47623 4.70819L0.468116 4.717L0.456475 4.73147L0.451537 4.73817L0.449067 4.74875V4.75369L0.45965 4.76145L0.467058 4.76498L0.494926 4.76992L0.511506 4.77204L0.560893 4.77486L0.588761 4.77627L0.663194 4.77768L0.704468 4.77803L0.808533 4.77874H1.00255H1.59272L1.69608 4.88174L1.72043 4.90644L1.75358 4.9463L1.7677 4.96676L1.78463 5.01474L1.7878 5.02814L1.79239 5.0606L1.79451 5.07788L1.79697 5.12021L1.79803 5.14279L1.79909 5.19747L1.7998 5.29624L1.80015 5.60773L2.12257 5.73755L2.445 5.86772L2.70534 5.64054L2.75014 5.60173L2.82704 5.53929L2.86338 5.51072L2.92511 5.46874L2.95404 5.45005L3.00166 5.42712L3.05845 5.41371H3.06763L3.08879 5.419L3.10008 5.42288L3.12689 5.43664L3.14135 5.44511L3.17522 5.46874L3.19321 5.48179L3.23589 5.51637L3.25847 5.53541L3.31139 5.58233L3.33925 5.60738L3.40416 5.66805L3.43803 5.70051L3.51599 5.776L3.65004 5.90758L4.14814 6.40145H5.43855H6.72931L6.77305 6.29527L6.78822 6.25928L6.84325 6.17991L6.87359 6.14005L6.94978 6.06315L6.98894 6.02646L7.07219 5.96473L7.19002 5.9037L7.20659 5.89841L7.25281 5.88959L7.27785 5.88571L7.33571 5.88042L7.51773 5.87936L7.56147 5.88253L7.64332 5.89876L7.68318 5.90829L7.75726 5.93651L7.79359 5.95167L7.85956 5.99013L7.89166 6.01059L7.94916 6.05821L7.97668 6.08326L8.02571 6.13864L8.04899 6.16721L8.08885 6.22895L8.10755 6.26069L8.13754 6.32737L8.15165 6.36159L8.17211 6.43214L8.18093 6.46741L8.19151 6.54044L8.19539 6.57712L8.19504 6.65085L8.19363 6.68754L8.18269 6.76091L8.17563 6.7976L8.15341 6.86921L8.14106 6.90449L8.1072 6.97292L8.08885 7.00679L8.04335 7.07064L8.01901 7.10168L7.96151 7.15989L7.86062 7.23855L7.83592 7.25513L7.78089 7.28265L7.75302 7.29535L7.6927 7.31616L7.63132 7.33486L7.50045 7.35144L7.43483 7.35602L7.30748 7.34297L7.27644 7.33768L7.21788 7.32181L7.1371 7.289L7.099 7.2696L7.01857 7.21174L6.97836 7.18035L6.90322 7.10803L6.86759 7.07134L6.80974 6.99726L6.79704 6.97927L6.77693 6.94506L6.75612 6.89779L6.75329 6.88861L6.74518 6.8738L6.74024 6.86709L6.71978 6.85581L6.70708 6.85087L6.66405 6.84311L6.639 6.83923L6.56351 6.83429L6.54199 6.83323L6.49119 6.83111L6.46438 6.83041L6.40194 6.829L6.36914 6.82829L6.294 6.82723L6.25449 6.82688L6.16489 6.82617L6.11832 6.82582L6.0132 6.82547L5.95852 6.82512H5.83682L5.77367 6.82476H5.63398H5.40256H4.07159L3.90579 6.99338L3.73964 7.16165L3.86275 7.44316L3.87933 7.48161L3.91038 7.55534L3.92484 7.59132L3.94953 7.65376L3.96047 7.68268L3.97599 7.72713L3.98587 7.76488V7.77158L4.00739 7.78357L4.0215 7.78922L4.07088 7.79839L4.09946 7.80297L4.17671 7.81003L4.32452 7.81779L4.36438 7.8192L4.43106 7.82202L4.46245 7.82379L4.51431 7.82696L4.5383 7.82873L4.57781 7.83367L4.59615 7.83613L4.62578 7.84284L4.65365 7.85025L4.69281 7.87388L4.74784 7.92926L4.76583 7.95008L4.79158 7.98923L4.80287 8.00899L4.81733 8.05449L4.82368 8.07919L4.82968 8.14339L4.83285 8.27321V8.51803H6.10351H7.37451L7.40555 8.43654L7.41755 8.40479L7.45071 8.34411L7.4687 8.31448L7.51244 8.25874L7.53572 8.23158L7.58864 8.18149L7.6158 8.1575L7.67577 8.11446L7.70681 8.09436L7.77243 8.05943L7.80594 8.04321L7.87543 8.01781L7.91071 8.00652L7.98267 7.99135L8.09132 7.98147L8.1326 7.98112L8.21091 7.98923L8.24936 7.99488L8.32238 8.01357L8.35837 8.02416L8.42539 8.05273L8.4582 8.0679L8.51887 8.10529L8.54815 8.12469L8.60213 8.1695L8.62823 8.19278L8.67479 8.24428L8.69702 8.27074L8.73582 8.32789L8.75417 8.35681L8.78486 8.41855L8.79897 8.44994L8.82119 8.5152L8.83072 8.54801L8.84377 8.61574L8.84871 8.64996L8.85188 8.71945L8.85223 8.75402L8.84518 8.82387L8.84059 8.85879L8.82295 8.92829L8.81308 8.96286L8.7845 9.03094L8.76898 9.06446L8.72912 9.12972L8.65574 9.2239L8.61306 9.27117L8.51605 9.34455L8.46631 9.37771L8.35801 9.42392L8.30298 9.44403L8.18904 9.46343L8.13154 9.47013L8.01654 9.46378L7.95939 9.45743L7.84862 9.42568L7.7943 9.40664L7.69306 9.35019L7.64402 9.3188L7.55759 9.23766L7.44965 9.08985L7.36746 8.94134H6.10033H4.83285V9.19004V9.21685L4.83215 9.26341L4.83179 9.28564L4.83003 9.32303L4.82756 9.35866L4.81804 9.41051L4.81169 9.43415L4.79158 9.47119L4.74643 9.52516L4.72914 9.5421L4.69598 9.5675L4.67905 9.57878L4.64201 9.59395L4.62225 9.60065L4.57534 9.60771L4.48679 9.61159H4.43917L4.31817 9.61794L4.28819 9.62006L4.23069 9.62464L4.1559 9.63311L3.99822 9.65463L3.87228 9.97353L3.74634 10.2924L3.9065 10.4635L4.0663 10.6346H5.39339H6.72013L6.7921 10.4847L6.80339 10.461L6.83337 10.4141L6.84925 10.3905L6.8877 10.3453L7.02633 10.225L7.07008 10.1958L7.15827 10.152L7.20236 10.1323L7.29055 10.1069L7.33465 10.0966L7.42143 10.0882L7.46482 10.0861L7.54878 10.0938L7.5904 10.0991L7.67048 10.121L7.70999 10.1337L7.78477 10.1686L7.82111 10.1873L7.88919 10.2335L7.922 10.2582L7.98197 10.3146L8.01054 10.3439L8.06063 10.4092L8.08462 10.4427L8.12378 10.5154L8.14212 10.5524L8.16893 10.6311L8.18093 10.6709L8.19433 10.7538L8.19927 10.7958L8.19751 10.8819L8.19468 10.9253L8.17669 11.0135L8.1654 11.0576L8.12978 11.1458L8.05499 11.2773L8.04158 11.2967L8.00701 11.3352L7.98832 11.3542L7.94528 11.3909L7.90048 11.4273L7.795 11.4904L7.74138 11.5193L7.63132 11.5603L7.60416 11.5687L7.55266 11.58L7.48034 11.5867H7.444L7.37028 11.5782L7.33324 11.5722L7.26021 11.5532L7.22388 11.5426L7.15368 11.514L7.11911 11.4989L7.0535 11.4625L7.02139 11.4435L6.96213 11.4001L6.93391 11.3775L6.88346 11.3285L6.85948 11.3034L6.81961 11.2495L6.77375 11.1652L6.72931 11.0579H5.43855H4.14814L3.66732 11.5341L3.61159 11.5892L3.51811 11.6813L3.47401 11.7246L3.40099 11.7948L3.36642 11.8276L3.30998 11.8788L3.28352 11.9024L3.23977 11.9377L3.21932 11.9539L3.18474 11.9762L3.16852 11.986L3.13924 11.998L3.05422 12.0104H3.02565L2.97732 12.0026L2.95368 11.997L2.905 11.9719L2.8796 11.9564L2.81717 11.9056L2.80023 11.8908L2.76143 11.8552L2.69405 11.7917L2.66583 11.7645L2.61891 11.7201L2.59704 11.6992L2.56106 11.6668L2.54413 11.6516L2.51626 11.6297L2.50321 11.6199L2.48098 11.6068L2.45946 11.5959L2.42172 11.5962L2.35293 11.6192L2.33741 11.6255L2.29261 11.6435L2.26827 11.653L2.21112 11.6756L2.02839 11.7458L1.81673 11.8259L1.79909 12.1614L1.79592 12.2234L1.78992 12.3247L1.78639 12.372L1.77546 12.4467L1.7684 12.481L1.74582 12.5328L1.73242 12.5565L1.6915 12.5896L1.66857 12.6044L1.60331 12.6231L1.56697 12.6312L1.47067 12.6397L1.44456 12.6411L1.38495 12.6432L1.3539 12.6439L1.28476 12.645L1.24843 12.6454H1.16835H1.03536H0.423316V12.7335V12.8217H6.8436H13.2639V9.08245ZM1.37613 11.9486L1.37648 11.9007L1.3786 11.8195L1.38001 11.7811L1.38706 11.7172L1.3913 11.6872L1.40506 11.6372L1.41317 11.6139L1.43645 11.5744L1.4495 11.5553L1.48478 11.5232L1.50383 11.5073L1.55322 11.4788L1.57967 11.4647L1.64529 11.4364L1.76452 11.3909L1.84671 11.3613L2.03156 11.2858L2.07566 11.2671L2.15609 11.2315L2.2531 11.1853L2.28132 11.1705L2.336 11.1468L2.36245 11.1359L2.41113 11.12L2.43442 11.1129L2.47322 11.1062L2.51767 11.107L2.5279 11.1094L2.56529 11.1309L2.58611 11.144L2.63902 11.1824L2.66689 11.2033L2.72897 11.2533L2.82528 11.3366L3.0574 11.5468L3.38547 11.2177L3.71318 10.8886L3.49694 10.6371L3.4666 10.6018L3.4158 10.5401L3.39217 10.5104L3.35513 10.4586L3.3382 10.4335L3.31386 10.3884L3.30327 10.3665L3.29128 10.3256L3.28669 10.3051L3.28599 10.2653L3.28705 10.2452L3.29728 10.2039L3.30363 10.1824L3.32409 10.1361L3.36571 10.0589L3.37735 10.0384L3.40628 9.97917L3.42145 9.94742L3.4539 9.87193L3.54703 9.62923L3.56114 9.58725L3.58795 9.51564L3.601 9.48142L3.6264 9.42427L3.63946 9.39746L3.66521 9.35337L3.67826 9.33291L3.70578 9.30081L3.71989 9.28564L3.75058 9.26341L3.76645 9.25354L3.80208 9.23978L3.82042 9.23378L3.8617 9.22708L3.93225 9.22355H3.95306L4.00351 9.22179L4.02961 9.22073L4.08641 9.21685L4.24586 9.20097L4.40954 9.17875V8.70711V8.23582H4.11427H4.07053L3.99363 8.23264L3.95694 8.23088L3.8938 8.22276L3.86346 8.21818L3.81196 8.20477L3.78762 8.19701L3.74634 8.1769L3.72694 8.16597L3.69449 8.13845L3.67897 8.12328L3.65357 8.0873L3.64157 8.0679L3.62146 8.02275L3.59607 7.94302L3.59042 7.92256L3.56961 7.86224L3.55797 7.82943L3.52763 7.75147L3.41863 7.49889L3.39958 7.45833L3.36501 7.37754L3.34878 7.33803L3.32126 7.26572L3.30856 7.2315L3.29163 7.17612L3.2807 7.12108V7.10803L3.29551 7.07064L3.30504 7.05018L3.33784 6.99938L3.35654 6.97222L3.40628 6.91013L3.4987 6.80607L3.71636 6.57324L3.38123 6.23812L3.04611 5.90264L2.81011 6.11677L2.77589 6.14781L2.71663 6.19896L2.68841 6.2226L2.63902 6.25964L2.61503 6.27622L2.57129 6.29985L2.54977 6.31008L2.50814 6.32066L2.48733 6.32455L2.44429 6.32313L2.42242 6.32102L2.37445 6.30832L2.34975 6.30056L2.29331 6.27692L2.19489 6.23L2.16702 6.21625L2.09859 6.18485L2.06261 6.16898L1.985 6.13652L1.94584 6.1203L1.86894 6.09066L1.76381 6.05292L1.70067 6.0321L1.59061 5.99189L1.56627 5.98237L1.52887 5.9672L1.49572 5.95097L1.47455 5.93686L1.44104 5.89276L1.42587 5.86807L1.404 5.79963L1.39412 5.76189L1.38248 5.66594L1.37578 5.48673V5.20205H0.899546H0.423316V5.75871V6.31502L0.791953 6.30126L0.916831 6.29668L1.15988 6.3129L1.28018 6.3249L1.51124 6.37358L1.62518 6.4018L1.84248 6.48117L1.94937 6.52491L2.15009 6.63392L2.24851 6.69212L2.43054 6.8297L2.51908 6.90202L2.68029 7.06641L2.7579 7.15177L2.89583 7.34156L3.07327 7.65376L3.09655 7.70208L3.13712 7.79345L3.15652 7.83825L3.18968 7.92362L3.22108 8.00828L3.26412 8.17091L3.28281 8.25275L3.30398 8.42454L3.30821 8.46899L3.31315 8.56283L3.31597 8.71381V8.80235L3.30609 8.96991L3.29939 9.05246L3.27576 9.20979L3.262 9.2874L3.2239 9.43521L3.20274 9.50858L3.14947 9.64898L3.12125 9.71812L3.05246 9.85253L3.01577 9.91885L2.93075 10.0483L2.88631 10.1125L2.78436 10.2385L2.61221 10.4254L2.57058 10.4674L2.49192 10.5422L2.45311 10.5785L2.37868 10.6431L2.30495 10.7052L2.15891 10.806L2.08483 10.8533L1.92291 10.9334L1.88058 10.9528L1.78921 10.9902L1.64035 11.0452L1.5772 11.0671L1.47561 11.0974L1.42622 11.1108L1.3278 11.1274L1.3017 11.1306L1.2449 11.1359L1.21562 11.138L1.1486 11.1408L1.11367 11.1422L1.03254 11.1436L0.890727 11.1447L0.423316 11.1461V11.6841V12.222H0.899546H1.37578L1.37613 11.9486ZM7.5964 11.1246L7.62003 11.1137L7.67048 11.0724L7.72692 11.0022L7.74632 10.9662L7.76502 10.8935L7.77102 10.8579L7.76643 10.7884L7.76114 10.7545L7.73644 10.6918L7.72198 10.6618L7.68106 10.6103L7.65848 10.5859L7.60486 10.5485L7.57664 10.5323L7.51315 10.5136L7.48069 10.5065L7.4119 10.5101L7.30572 10.5446L7.27962 10.5581L7.23517 10.5909L7.21471 10.6081L7.18155 10.6473L7.16638 10.6674L7.14486 10.7112L7.13534 10.7334L7.12546 10.7799L7.12193 10.8036L7.1237 10.8519L7.12616 10.8759L7.14028 10.9242L7.14874 10.9479L7.1752 10.9944L7.22882 11.0607L7.25633 11.0879L7.31242 11.126L7.34064 11.1422L7.39991 11.1585L7.42989 11.1634L7.49374 11.1578L7.52655 11.1521M1.39412 10.6695L1.50136 10.6424L1.70138 10.5655L1.79874 10.5235L1.97971 10.4173L2.0679 10.3605L2.23087 10.2243L2.45629 9.98517L2.49439 9.9379L2.56282 9.843L2.59563 9.79538L2.65348 9.69837L2.68135 9.64969L2.72897 9.54986L2.75155 9.49976L2.7893 9.39605L2.80694 9.34384L2.83516 9.23555L2.84821 9.18051L2.86761 9.06622L2.87608 9.00801L2.88631 8.88666L2.8923 8.69582L2.89195 8.62632L2.88807 8.5145L2.8849 8.46123L2.87255 8.36845L2.86514 8.3226L2.84186 8.22982L2.79141 8.07072L2.76319 7.98994L2.69335 7.83649L2.65631 7.761L2.56988 7.61919L2.52437 7.55004L2.42207 7.42093L2.36916 7.35814L2.25239 7.24349L2.19242 7.18776L2.06261 7.08792L1.99593 7.03995L1.85412 6.95634L1.78181 6.91683L1.62871 6.85051L1.38883 6.7722L1.36272 6.7655L1.30028 6.7535L1.26748 6.74786L1.19481 6.73869L1.12038 6.73022L0.957046 6.7214L0.875558 6.71823L0.7214 6.7214L0.684713 6.72317L0.618393 6.72881L0.533378 6.74081L0.423316 6.76303V7.05829V7.09921L0.425432 7.17329L0.427196 7.20857L0.431782 7.26713L0.434251 7.29394L0.440954 7.33063L0.452242 7.35391H0.456123L0.479052 7.35109L0.492457 7.34932L0.530556 7.34332L0.678363 7.31722L0.735158 7.30699L0.847337 7.29782L0.903426 7.29535L1.01419 7.30099L1.06922 7.30558L1.17717 7.32569L1.23079 7.33698L1.33486 7.36978L1.38636 7.38777L1.48619 7.43257L1.53522 7.45656L1.62906 7.5123L1.67527 7.54158L1.76276 7.6079L1.80544 7.64211L1.88552 7.71725L1.92432 7.7557L1.99558 7.83931L2.03015 7.88199L2.09224 7.97265L2.12187 8.01887L2.17337 8.11588L2.19771 8.16526L2.23758 8.26756L2.25627 8.31942L2.28414 8.42631L2.29613 8.48028L2.3106 8.59034L2.31624 8.64608L2.31659 8.75861L2.29966 8.9297L2.28978 8.99038L2.2598 9.10679L2.24322 9.16393L2.20089 9.27364L2.17831 9.32762L2.12363 9.42992L2.09506 9.48001L2.02909 9.57384L1.99452 9.6197L1.91762 9.70507L1.87776 9.74635L1.78992 9.82219L1.74512 9.85888L1.6474 9.92414L1.49007 10.0102L1.4368 10.0356L1.35355 10.0705L1.31369 10.0857L1.23926 10.1044L1.20081 10.1122L1.11156 10.1196L1.08686 10.121L1.03148 10.1224L0.934822 10.1231H0.891079L0.803947 10.121L0.76091 10.1196L0.682244 10.115L0.644498 10.1125L0.583117 10.1065L0.520325 10.0959L0.423316 10.0688V10.3848V10.7006L0.537964 10.715L0.611691 10.7242L0.760204 10.7327L0.833932 10.7351L0.980328 10.7306L1.05264 10.727L1.1934 10.7097L1.26254 10.6995M1.35249 9.61159L1.39518 9.59007L1.47349 9.53998L1.51159 9.51352L1.58003 9.45461L1.61319 9.42392L1.67139 9.3569L1.69926 9.32232L1.74723 9.24754L1.77016 9.20909L1.8072 9.12725L1.82414 9.08562L1.85024 8.99743L1.86188 8.95263L1.87599 8.85879L1.88411 8.71204L1.88375 8.66336L1.87917 8.58329L1.87599 8.54554L1.864 8.47957L1.85694 8.44747L1.83578 8.38609L1.79098 8.28873L1.7617 8.23229L1.6922 8.13104L1.65587 8.08236L1.57332 7.9977L1.53064 7.95749L1.4368 7.88975L1.38883 7.85801L1.28582 7.80827L1.23326 7.78569L1.12284 7.755L1.06711 7.74195L0.950696 7.73031L0.892138 7.72713L0.772551 7.73595L0.590172 7.77334L0.422257 7.82202L0.431429 8.72545L0.440954 9.62923L0.564421 9.67297L0.589114 9.68179L0.646615 9.69484L0.676599 9.70049L0.742566 9.70719L0.809944 9.71248L0.957399 9.70648L1.03113 9.70084L1.17258 9.67368L1.2068 9.66556L1.26924 9.64616L1.29958 9.63558M8.32803 8.94416L8.35519 8.917L8.39258 8.85809L8.40846 8.8281L8.42469 8.76672L8.42998 8.73603L8.4268 8.67536L8.42257 8.64573L8.4014 8.58928L8.3887 8.56212L8.35096 8.51414L8.3305 8.49122L8.27829 8.45453L8.25042 8.43795L8.18551 8.41608L8.0751 8.40444L8.04723 8.40549L7.99502 8.41784L7.96997 8.42595L7.92447 8.451L7.9026 8.46476L7.8652 8.50003L7.84792 8.51873L7.8197 8.56177L7.807 8.58399L7.78936 8.63267L7.7823 8.65772L7.77666 8.70958L7.7756 8.73568L7.78336 8.7886L7.81158 8.86656L7.82499 8.89301L7.85815 8.93746L7.87543 8.95827L7.91459 8.99179L7.9347 9.00695L7.97809 9.02883L8.00031 9.038L8.04723 9.04823L8.07051 9.05176L8.11884 9.04999L8.14283 9.04717L8.19116 9.03306L8.21479 9.02459L8.26136 8.99814L8.28429 8.98332M7.62497 6.89249L7.63485 6.8872L7.65672 6.86815L7.66766 6.85757L7.69023 6.83005L7.74668 6.73375L7.75761 6.70765L7.77102 6.66673L7.77666 6.64732L7.77948 6.61311V6.59617L7.77102 6.55948L7.74668 6.49246L7.73186 6.45718L7.69588 6.4018L7.67683 6.37675L7.62991 6.34077L7.60486 6.32525L7.54384 6.30655L7.43272 6.29562H7.39532L7.329 6.31326L7.29761 6.32455L7.24469 6.36123L7.22035 6.38134L7.18225 6.43214L7.16497 6.45895L7.1431 6.51962L7.13428 6.55031L7.12969 6.61557V6.64838L7.1438 6.71329L7.15368 6.74539L7.1879 6.80571L7.26374 6.88544L7.28138 6.89884L7.33641 6.91613L7.3664 6.92354L7.43519 6.92812L7.47011 6.92883L7.53854 6.92036L7.57135 6.91436M14.2065 4.91843L14.3264 4.91808H14.5455L14.6517 4.91773L14.8443 4.91737L14.9374 4.91702L15.1053 4.91596L15.1864 4.91561L15.3314 4.9142L15.4013 4.91314L15.5258 4.91102L15.5858 4.90997L15.6912 4.90714L15.7417 4.90573L15.8302 4.90185L15.8726 4.89974L15.9459 4.8948L15.9809 4.89197L16.0412 4.88598L16.0701 4.8828L16.1192 4.87504L16.1657 4.86728L16.2331 4.84647L16.2638 4.83518L16.3111 4.80731L16.3756 4.75581L16.3855 4.74664L16.4091 4.71912L16.4211 4.7043L16.4462 4.66832L16.5135 4.54944L16.5209 4.53321L16.5333 4.49794L16.5393 4.47889L16.5488 4.43091L16.5534 4.4041L16.5605 4.33285L16.5619 4.31309L16.5647 4.26723L16.5661 4.24324L16.5682 4.18821L16.5693 4.15964L16.5714 4.09402L16.5721 4.05981L16.5735 3.9822L16.5742 3.94163L16.5753 3.85097L16.576 3.80405L16.5767 3.69858L16.577 3.64425L16.5774 3.52325L16.5777 3.46046L16.5781 3.32253V3.25127V3.095L16.5784 2.83854V2.74753L16.5781 2.58102V2.49989V2.35243L16.5777 2.28082L16.5774 2.15136V2.08857L16.5767 1.97533L16.5763 1.92101L16.5753 1.82294L16.5749 1.77567L16.5735 1.69171L16.5728 1.65149L16.5714 1.58024L16.5703 1.54567L16.5682 1.4857L16.5672 1.45712L16.5647 1.40703L16.5633 1.38304L16.5601 1.34177L16.5569 1.30226L16.5485 1.24405L16.5442 1.21724L16.5329 1.17668L16.5125 1.12411L16.4931 1.08108L16.4426 1.00735L16.4155 0.972425L16.3488 0.914219L16.3135 0.886704L16.2296 0.842961L16.0835 0.793222L16.0768 0.791458L16.0539 0.788283L16.0408 0.786872L16.0052 0.78405L15.9858 0.782639L15.9371 0.779817L15.9114 0.778758L15.8493 0.776289L15.8168 0.775231L15.7417 0.773114L15.7025 0.772409L15.6136 0.770645L15.5674 0.769587L15.4644 0.768176L15.4112 0.76747L15.2944 0.766059L15.2341 0.765706L15.1025 0.764648L15.0348 0.764295L14.8887 0.76359L14.8136 0.763237L14.6524 0.762884L14.5698 0.762531L14.3934 0.762179H14.3035L14.1116 0.762531H14.0135L13.8057 0.762884H13.6999L13.4766 0.76359L13.1228 0.764648L13.0392 0.765001L12.8794 0.765706H12.8004L12.6501 0.766412L12.5023 0.767117L12.2335 0.768176L12.1033 0.768881L11.8687 0.769939L11.7555 0.770645L11.5526 0.771703L11.4549 0.772409L11.281 0.774173L11.1978 0.774878L11.0507 0.776642L10.9801 0.777347L10.8573 0.779464L10.7988 0.780522L10.6975 0.782992L10.6496 0.784403L10.5677 0.787225L10.5293 0.788636L10.4644 0.791811L10.4337 0.793575L10.3829 0.797808L10.3592 0.799572L10.3204 0.804157L10.2841 0.809096L10.2365 0.820737L10.1829 0.842256L10.1642 0.851428L10.1229 0.879296L10.1021 0.894818L10.0597 0.931152L10.0389 0.950201L10.0008 0.990769L9.95356 1.05109L9.85972 1.1929L9.84985 2.79304L9.84914 2.88828L9.84844 3.06184L9.84773 3.1458L9.84703 3.2989L9.84667 3.37298L9.84632 3.50667L9.84597 3.57158V3.68764V3.74373L9.84632 3.84392V3.89189L9.84703 3.97761L9.84773 4.01853L9.84879 4.0905L9.84949 4.12507L9.85126 4.18539L9.85232 4.21432L9.85479 4.26406L9.85585 4.28804L9.85902 4.32896L9.8622 4.36812L9.87066 4.42562L9.87525 4.45208L9.88689 4.493L9.90841 4.54838L9.92181 4.57802L9.9518 4.63128L9.96732 4.65668L10.0033 4.70219L10.022 4.72371L10.0643 4.76181L10.0866 4.7798L10.1366 4.81049L10.1627 4.8253L10.2213 4.84964L10.2516 4.86128L10.3197 4.87963L10.355 4.88845L10.4333 4.9015L10.5635 4.91596L10.6048 4.91914L10.6834 4.92866L10.7215 4.9336L10.7885 4.94559L10.8196 4.95159L10.8672 4.965L10.9081 4.98405L10.9163 4.99181L10.9293 5.03414L10.9321 5.04719L10.9378 5.08L10.9406 5.09764L10.9452 5.14067L10.9476 5.16325L10.9515 5.21581L10.9536 5.24368L10.9568 5.30682L10.9586 5.33998L10.9614 5.41406L10.9646 5.53753L10.9762 6.04622L11.6779 5.48321L12.3799 4.91984L14.2065 4.91843ZM9.3267 10.4046L9.31047 10.3884L9.28649 10.3591L9.27625 10.345L9.2632 10.3182L9.25826 10.3048L9.25544 10.2787L9.26215 10.237L9.26885 10.2155L9.28049 10.1806L9.28754 10.1644L9.31012 10.1386L9.32423 10.1266L9.37115 10.1086L9.38526 10.1048L9.42018 10.0977L9.43888 10.0945L9.48438 10.0892L9.50873 10.0868L9.56693 10.0825L9.59762 10.0808L9.66994 10.0776L9.70804 10.0762L9.79658 10.0744L9.84279 10.0734L9.94862 10.0719L10.004 10.0716L10.1292 10.0709L10.1945 10.0705L10.3409 10.0702H10.4167H10.5857H10.8669H10.9706H11.1586H11.2493L11.4129 10.0705H11.4916L11.6327 10.0712L11.7004 10.0716L11.82 10.0727L11.8775 10.0734L11.9781 10.0758L12.026 10.0769L12.1089 10.0801L12.1481 10.0818L12.2151 10.0864L12.2469 10.0889L12.2994 10.0949L12.3241 10.0981L12.3643 10.1058L12.383 10.11L12.4123 10.1199L12.4395 10.1302L12.4677 10.1577L12.479 10.1725L12.486 10.2109L12.4878 10.2822V10.3087L12.4843 10.3517L12.4811 10.3718L12.4617 10.4039L12.4487 10.4187L12.401 10.4416L12.3866 10.4466L12.3506 10.4554L12.3312 10.4596L12.2836 10.4667L12.2582 10.4702L12.1978 10.4755L12.1657 10.478L12.0906 10.4822L12.0514 10.484L11.9601 10.4868L11.9125 10.4882L11.8038 10.49L11.7474 10.491L11.6193 10.4921L11.553 10.4924L11.4045 10.4931H11.3272L11.1565 10.4935H10.8732H9.4156L9.3267 10.4046ZM9.31506 8.84751L9.29495 8.82211L9.27167 8.7706L9.26285 8.7452L9.26179 8.69511L9.26391 8.67042L9.28507 8.62421L9.34081 8.56212L9.3461 8.55789L9.37291 8.55048L9.38914 8.54695L9.44029 8.54095L9.46957 8.53813L9.54859 8.53319L9.59233 8.53108L9.7031 8.52755L9.76272 8.52579L9.90876 8.52296L9.94756 8.52261L10.0326 8.52155L10.0763 8.52085L10.1712 8.52014L10.2199 8.51979L10.325 8.51908H10.3793L10.4954 8.51838H10.555L10.6824 8.51803H10.887H10.9893H11.1748H11.2644L11.4256 8.51838H11.5036L11.6426 8.51908L11.7096 8.51944L11.8278 8.5205L11.8846 8.52155L11.9837 8.52367L12.031 8.52473L12.1128 8.5279L12.1516 8.52967L12.2179 8.53425L12.2493 8.53672L12.3012 8.54272L12.3259 8.54589L12.3654 8.55365L12.3837 8.55789L12.413 8.56777L12.4395 8.578L12.4681 8.60551L12.479 8.62068L12.486 8.65878L12.4878 8.73004V8.75649L12.4843 8.79953L12.4811 8.81999L12.4617 8.85209L12.4487 8.86691L12.4007 8.88948L12.3862 8.89478L12.3499 8.90359L12.3301 8.90783L12.2825 8.91453L12.2568 8.91806L12.1957 8.92335L12.1636 8.92582L12.0881 8.93005L12.0483 8.93182L11.9565 8.93464L11.9082 8.93605L11.7989 8.93781L11.7417 8.93887L11.6126 8.93993L11.5456 8.94028L11.3957 8.94099H11.318L11.1455 8.94134H10.8598H9.38879L9.31506 8.84751ZM9.31506 7.29535L9.29495 7.26995L9.27167 7.21845L9.26285 7.19305L9.26179 7.14296L9.26391 7.11826L9.28507 7.07205L9.34081 7.00996L9.3461 7.00573L9.37291 6.99832L9.38914 6.9948L9.44029 6.9888L9.46922 6.98598L9.54824 6.98104L9.59163 6.97892L9.70239 6.97539L9.76201 6.97363L9.9077 6.97081L9.9465 6.97045L10.0312 6.9694L10.0749 6.96869L10.1695 6.96798L10.2181 6.96763L10.3233 6.96693H10.3772L10.4933 6.96622H10.5526L10.6799 6.96587H10.8841H10.9713H11.1307H11.2083L11.3491 6.96622H11.4172L11.5403 6.96657L11.5999 6.96693L11.7068 6.96728L11.7583 6.96763L11.85 6.96869L11.8941 6.96904L11.9721 6.97045L12.0091 6.97081L12.0747 6.97257L12.1058 6.97328L12.1597 6.97539L12.1851 6.97645L12.2289 6.97892L12.2497 6.98033L12.2843 6.98351L12.3171 6.98668L12.3612 6.9948L12.3802 6.99903L12.4046 7.01032L12.4296 7.03042L12.4487 7.05159L12.4723 7.10309L12.4815 7.12955L12.4853 7.18529L12.485 7.2128L12.4691 7.26501L12.4233 7.33098L12.4162 7.33733L12.3947 7.34826L12.3823 7.35356L12.3442 7.36202L12.322 7.3659L12.2589 7.37225L12.2232 7.37507L12.1266 7.37966L12.0998 7.38072L12.0387 7.38248L12.0066 7.38319L11.9343 7.3846L11.8966 7.3853L11.8119 7.38636L11.7678 7.38671L11.6698 7.38742L11.619 7.38777L11.5064 7.38813L11.4482 7.38848L11.3205 7.38883H11.2545L11.1099 7.38918H10.8736H9.38879L9.31506 7.29535ZM11.1784 3.81287L11.1219 3.79277L11.0196 3.74479L10.9706 3.71939L10.8824 3.66154L10.8401 3.6312L10.7663 3.56312L10.7314 3.52749L10.6714 3.44917L10.6436 3.40861L10.5981 3.31971L10.5769 3.2742L10.5455 3.17508L10.5314 3.12428L10.5141 3.01457L10.5035 2.83854V2.78598L10.5113 2.6865L10.5162 2.63817L10.5346 2.54681L10.5448 2.50201L10.5737 2.4184L10.5892 2.37748L10.6287 2.30128L10.6496 2.26424L10.7 2.1951L10.7265 2.16159L10.7875 2.0995L10.8192 2.06917L10.8916 2.01413L11.0126 1.93864L11.0679 1.90831L11.1907 1.86739L11.2535 1.8501L11.3844 1.83352L11.45 1.82823L11.5798 1.83423L11.644 1.83952L11.7639 1.86492L11.8218 1.88008L11.9234 1.92312L11.9707 1.94676L12.0444 2.00496L12.0606 2.02048L12.0867 2.05364L12.0984 2.07058L12.1142 2.10691L12.1209 2.12525L12.1259 2.16441L12.1195 2.22579L12.1104 2.26213L12.0751 2.31328L12.0546 2.3355L11.9978 2.35773L11.9668 2.36513L11.8892 2.35808L11.7509 2.31434L11.6973 2.29141L11.6059 2.26213L11.5622 2.25049L11.4817 2.24343L11.4422 2.24308L11.3625 2.25825L11.232 2.30587L11.1815 2.3288L11.0986 2.39159L11.0602 2.42546L11.0023 2.50906L10.9762 2.55351L10.9438 2.65757L10.924 2.83466V2.89428L10.9413 3.00222L10.9526 3.05408L10.99 3.14545L11.0111 3.18884L11.0669 3.26221L11.0965 3.29678L11.1678 3.3504L11.2052 3.37474L11.2895 3.4072L11.3332 3.4206L11.4281 3.43048L11.4768 3.43224L11.5801 3.41778L11.7417 3.36663L11.7795 3.3504L11.8377 3.32853L11.8645 3.31936L11.9072 3.31019L11.9273 3.30736L11.9615 3.31019L12.0119 3.32606L12.0402 3.33911L12.0814 3.37968L12.0994 3.4019L12.1188 3.45588L12.1255 3.48339L12.1216 3.54266L12.0871 3.62944L12.0719 3.65272L12.0253 3.69434L11.9992 3.7148L11.9343 3.75008L11.9001 3.76701L11.8218 3.79523L11.7816 3.80864L11.6948 3.82839L11.6507 3.83757L11.5597 3.84815L11.5142 3.85238L11.4239 3.85309L11.3794 3.85203L11.2944 3.8418L11.2531 3.8351M12.4755 3.797L12.4691 3.78994L12.4585 3.7716L12.4532 3.76137L12.4451 3.73315L12.4409 3.71763L12.4345 3.67494L12.4317 3.65131L12.4271 3.58922L12.4254 3.555L12.4222 3.46893L12.4208 3.42272L12.419 3.30772L12.4183 3.24634L12.4176 3.09782V3.05831L12.4173 2.97259V2.83254V2.76446L12.4169 2.64205V2.58279V2.47696V2.42581L12.4176 2.3355L12.418 2.29176L12.4201 2.21556L12.4211 2.17887L12.425 2.11538L12.4271 2.08539L12.4335 2.03354L12.4367 2.0092L12.4458 1.96792L12.4508 1.94852L12.4635 1.91677L12.4769 1.88714L12.5164 1.85116L12.5386 1.83599L12.5993 1.82188L12.6324 1.81659L12.7182 1.81482L12.8801 1.81553H12.9143L12.975 1.81623L13.0039 1.81659L13.0547 1.8187L13.1037 1.82117L13.1803 1.8307L13.2163 1.83634L13.278 1.85469L13.3708 1.8949L13.4184 1.91889L13.4995 1.97886L13.5376 2.01025L13.5987 2.08257L13.6265 2.11996L13.6674 2.2018L13.6851 2.24343L13.7052 2.33162L13.7122 2.37642L13.7108 2.46779L13.7073 2.51365L13.684 2.60537L13.6696 2.65122L13.6241 2.74012L13.5299 2.86712L13.412 2.99552L13.5701 3.30948L13.5916 3.35287L13.6272 3.42836L13.6435 3.46434L13.6689 3.52713L13.6801 3.55712L13.695 3.60862L13.701 3.63332L13.7055 3.67494L13.7066 3.6947L13.7013 3.72821L13.6971 3.74408L13.6819 3.77089L13.6727 3.78359L13.6473 3.80511L13.598 3.83298L13.5778 3.84215L13.5412 3.85309L13.5228 3.85697L13.489 3.85662L13.472 3.85485L13.4392 3.84215L13.4226 3.83369L13.3898 3.80688L13.3732 3.79171L13.3383 3.74938L13.3207 3.72609L13.2829 3.66718L13.2635 3.63579L13.2209 3.55888L13.1503 3.42131L13.1341 3.3885L13.1041 3.33029L13.0893 3.30207L13.0628 3.25269L13.0371 3.20577L12.9944 3.13733L12.9743 3.10735L12.9418 3.07136L12.903 3.0502H12.8893L12.8702 3.06008L12.8617 3.06748L12.8512 3.1017L12.849 3.11229L12.8459 3.14015L12.8445 3.15497L12.8427 3.19307L12.842 3.21353L12.8409 3.26327L12.8406 3.35252V3.42448L12.8339 3.54089L12.8293 3.59522L12.8127 3.67988L12.8032 3.71868L12.7757 3.77548L12.7206 3.83439L12.7033 3.84603L12.6614 3.85767L12.6398 3.8612L12.5947 3.85803L12.5721 3.8545L12.5294 3.83721L12.509 3.82698M13.2346 2.56868L13.2537 2.55104L13.2787 2.5147L13.2893 2.49601L13.2981 2.45862L13.3002 2.43992L13.2939 2.40323L13.2889 2.38524L13.2688 2.35173L13.2572 2.3355L13.2251 2.30657L13.2074 2.29282L13.1641 2.27095L13.1411 2.26072L13.0882 2.24731L12.9993 2.23884H12.8406V2.43286V2.62688H13.0053H13.0572L13.1436 2.61136L13.1634 2.60642L13.1962 2.59302L13.2117 2.58596M14.0629 3.797L14.0565 3.78994L14.046 3.7716L14.0407 3.76172L14.0326 3.7335L14.0283 3.71798L14.0223 3.67565L14.0192 3.65237L14.0146 3.59099L14.0128 3.55747L14.0096 3.47246L14.0082 3.4266L14.0068 3.31301L14.0057 3.25269L14.005 3.10629V3.06748L14.0047 2.98282V2.84454V2.79198V2.69603V2.64946L14.005 2.5648V2.52388L14.0054 2.44944L14.0057 2.41381L14.0065 2.34961L14.0072 2.28753L14.0093 2.18946L14.0107 2.1443L14.0149 2.07516L14.0174 2.04341L14.0234 1.99685L14.0269 1.97604L14.0361 1.9457L14.0752 1.88608L14.0936 1.86774L14.1327 1.84199L14.1529 1.8307L14.1938 1.81976L14.2142 1.81623L14.2548 1.82047L14.313 1.84446L14.3162 1.84622L14.3278 1.85857L14.3345 1.86597L14.3529 1.8882L14.3631 1.90054L14.3874 1.93194L14.4001 1.94852L14.4294 1.98732L14.4598 2.02789L14.5317 2.12702L14.6481 2.29211L14.6883 2.34996L14.7631 2.45544L14.7995 2.50589L14.8612 2.58914L14.8757 2.60854L14.9007 2.64099L14.9123 2.65616L14.9318 2.68015L14.9406 2.69073L14.9533 2.70484L14.9642 2.71366H14.966L14.9755 2.7052L14.9808 2.69991L14.997 2.68086L15.0062 2.67027L15.0284 2.64205L15.0404 2.62688L15.0679 2.59055L15.0968 2.55245L15.1667 2.4565L15.2824 2.29246L15.3251 2.23073L15.3999 2.12702L15.4355 2.07798L15.4976 1.99932L15.5272 1.96298L15.5787 1.90725L15.6038 1.8822L15.6475 1.84869L15.6683 1.83423L15.7064 1.82082L15.7251 1.81659L15.7597 1.82153L15.7766 1.82646L15.8105 1.84869L15.862 1.89949L15.9484 1.99967L15.9378 2.88052L15.9371 2.93202L15.9361 3.02656L15.9354 3.07207L15.9343 3.15532L15.9336 3.19589L15.9322 3.26891L15.9318 3.30384L15.9304 3.36733L15.929 3.42836L15.9255 3.52537L15.9234 3.56982L15.9188 3.6379L15.916 3.66859L15.9093 3.71375L15.9057 3.73421L15.8969 3.76243L15.8588 3.81146L15.8355 3.82875L15.7854 3.84885L15.7604 3.85697L15.7107 3.85908L15.686 3.85803L15.6405 3.84215L15.5808 3.79806L15.5695 3.78536L15.5519 3.74479L15.548 3.7328L15.5413 3.70281L15.5382 3.68658L15.5329 3.64672L15.5304 3.6252L15.5262 3.5737L15.5244 3.54618L15.5212 3.48092L15.5195 3.44635L15.517 3.36557L15.5138 3.22482L15.5039 2.71507L15.3099 2.99446L15.2831 3.03291L15.2302 3.10558L15.2041 3.14086L15.1565 3.20189L15.1335 3.23011L15.0968 3.27279L15.0595 3.30842L15.045 3.31724L15.0157 3.32818L15.0012 3.33241L14.9716 3.33347L14.9564 3.33241L14.9254 3.32289L14.9095 3.31689L14.8767 3.29643L14.8598 3.28443L14.8238 3.25233L14.8051 3.23469L14.7656 3.19025L14.7451 3.16661L14.7007 3.10946L14.6284 3.00893L14.428 2.71895V3.21953V3.27632L14.4277 3.37192L14.4273 3.41672L14.4259 3.49151L14.4252 3.52643L14.4227 3.58287L14.4209 3.60933L14.4167 3.65166L14.4142 3.67106L14.4079 3.70175L14.4044 3.71586L14.3956 3.73844L14.3575 3.791L14.3356 3.81287L14.2851 3.84109L14.2594 3.85238L14.2061 3.85873L14.1793 3.85944L14.1289 3.84427L14.1049 3.83404L14.0629 3.797Z" fill="white"/>
</svg>
