<svg width="17" height="18" viewBox="0 0 17 18" fill="none" xmlns="http://www.w3.org/2000/svg">
<path d="M16.9973 16.1337L16.997 16.0337L16.9967 15.9882L16.9963 15.8999L16.996 15.8597L16.9954 15.7827L16.995 15.7479L16.9944 15.6814L16.994 15.6519L16.993 15.5951L16.9924 15.5702L16.9914 15.5231L16.9907 15.5028L16.9894 15.4643L16.9884 15.4484L16.9851 15.3922L16.9827 15.3753L16.9778 15.3484L16.9748 15.3444L16.9685 15.3424L16.9648 15.3494L16.9565 15.3677L16.9519 15.3829L16.903 15.5104L16.8625 15.5941L16.8383 15.635L16.7878 15.716L16.7593 15.7552L16.7002 15.8319L16.6676 15.8684L16.6009 15.9401L16.565 15.9733L16.492 16.038L16.4535 16.0676L16.3755 16.1244L16.3346 16.1493L16.2526 16.1968L16.2104 16.2167L16.0205 16.3057H1.01137L0.792559 16.1981L0.652109 16.1187L0.563457 16.0583L0.521621 16.0248L0.440605 15.9557L0.403086 15.9182L0.330371 15.8415L0.2975 15.8006L0.234414 15.7176L0.206523 15.6741L0.15373 15.5858L0.131816 15.5403L0.0906445 15.448L0.074375 15.4012L0.0458203 15.3062L0.0361914 15.2581L0.0295508 15.2418L0.0252344 15.2508L0.0235742 15.2651L0.0199219 15.3006L0.0182617 15.3282L0.0149414 15.3903L0.0136133 15.4308L0.010957 15.5187L0.00996094 15.5725L0.00796875 15.6868L0.00697266 15.7535L0.00564453 15.8933L0.00498047 15.973L0.00398437 16.1387L0.00365234 16.231L0 17.3516V0.351562L0.00365234 1.47217L0.00431641 1.65047L0.00498047 1.72982L0.00630859 1.88256L0.00697266 1.9493L0.00896484 2.07646L0.00996094 2.13025L0.0122852 2.23119L0.0136133 2.27203L0.0166016 2.34707L0.0182617 2.37463L0.021582 2.42344L0.0235742 2.43805L0.0272266 2.46029L0.0295508 2.46129L0.0338672 2.4573L0.0361914 2.44502L0.0697266 2.31686L0.100605 2.23152L0.119531 2.18969L0.160039 2.10635L0.183613 2.06584L0.232754 1.98582L0.260645 1.9473L0.317754 1.87193L0.348965 1.83641L0.413047 1.76701L0.447246 1.7348L0.517305 1.67305L0.55416 1.64516L0.628867 1.59203L0.667715 1.56945L0.775625 1.50338L0.812148 1.48512L0.834395 1.47715L0.883203 1.46154L0.915078 1.4549L0.985137 1.44195L1.03129 1.43631L1.07977 1.431L1.10699 1.42834L1.16443 1.42336L1.19697 1.42137L1.26438 1.41672L1.30256 1.41473L1.38158 1.41107L1.42574 1.40908L1.51705 1.40576L1.56785 1.40443L1.67311 1.40145L1.73121 1.40012L1.85141 1.39746L1.91715 1.39646L2.05328 1.39414L2.12766 1.39314L2.28072 1.39148L2.36406 1.39082L2.53539 1.38916L2.62836 1.38883L2.81928 1.3875L2.92254 1.38717L3.13404 1.38617L3.2476 1.38584L3.48102 1.38518H3.60619L3.86219 1.38484H3.99898L4.27922 1.38451H4.42863H4.73377L4.89646 1.38484H5.22783L5.40414 1.38518L5.76307 1.38551H5.95332L6.34113 1.38617H6.546L6.96369 1.38684L7.18383 1.38717L7.6324 1.3875L7.86848 1.38783L8.34926 1.3885L8.60193 1.38883L15.9873 1.39746L16.1782 1.47449L16.3034 1.53559L16.3857 1.58539L16.4256 1.61461L16.5043 1.67504L16.5418 1.70891L16.6155 1.77863L16.65 1.81615L16.7171 1.89285L16.7473 1.93336L16.8061 2.0157L16.832 2.0582L16.8808 2.1442L16.9007 2.18803L16.9379 2.27602L16.9519 2.32018L16.9648 2.35371L16.9718 2.36268L16.9748 2.35869L16.9804 2.34475L16.9827 2.32781L16.9867 2.28697L16.9884 2.25477L16.99 2.22057L16.9907 2.20031L16.992 2.15748L16.9924 2.13291L16.9934 2.08111L16.994 2.05123L16.9947 1.9898L16.995 1.95527L16.9957 1.88322L16.996 1.84338L16.9967 1.7607V1.71488L16.9973 1.62092V1.56945L16.9977 1.46354V1.40576L17 0.351562V17.3516L16.9977 16.2974M0.463516 4.76758L0.47248 9.97217L0.481445 15.1768L0.574414 15.3663L0.664395 15.5124L0.737441 15.6008L0.778945 15.6389L0.864941 15.7113L0.911758 15.7402L1.00705 15.793L1.05686 15.8109L1.07412 15.8153L1.09105 15.8172L1.13123 15.8212L1.16078 15.8229L1.22652 15.8265L1.27002 15.8282L1.36465 15.8312L1.42408 15.8329L1.55092 15.8355L1.62729 15.8368L1.70631 15.8382L1.74914 15.8388L1.83746 15.8398L1.88494 15.8405L1.98289 15.8415L2.03568 15.8421L2.14359 15.8431L2.2017 15.8435L2.32023 15.8445L2.38365 15.8448L2.51314 15.8458L2.58221 15.8461L2.72299 15.8471L2.7977 15.8475L2.95043 15.8481L3.03111 15.8485L3.1958 15.8491L3.28312 15.8495L3.4601 15.8501L3.55373 15.8504L3.74398 15.8511L3.84393 15.8514L4.04746 15.8518L4.15438 15.8521L4.37186 15.8524L4.48574 15.8528L4.71717 15.8531L4.83836 15.8534L5.08439 15.8538H5.21289L5.47387 15.8541L5.61 15.8544H5.88625L6.03035 15.8548H6.32221L6.47428 15.8551H6.7824L6.94277 15.8554H7.26717H7.43584L7.7775 15.8558H7.9548H8.31373H8.5H8.94459H9.23445H9.3759H9.6568H9.79393H10.0659L10.1983 15.8554H10.4616H10.5898L10.8438 15.8551H10.9673L11.2124 15.8548H11.3316L11.5676 15.8544L11.6822 15.8541L11.9093 15.8538H12.0195L12.2373 15.8534L12.3429 15.8531L12.5518 15.8528L12.6527 15.8524L12.8526 15.8521L12.9489 15.8518L13.1395 15.8511H13.2314L13.4127 15.8504L13.5001 15.8501L13.6724 15.8495L13.7551 15.8491L13.9181 15.8485L13.9961 15.8481L14.1498 15.8475L14.2232 15.8471L14.368 15.8465L14.4367 15.8461L14.5719 15.8455L14.6359 15.8448L14.7621 15.8441L14.8215 15.8438L14.9381 15.8428L14.9929 15.8425L15.1001 15.8415L15.1499 15.8412L15.2479 15.8402L15.2934 15.8395L15.3817 15.8385L15.4222 15.8382L15.5012 15.8372L15.5374 15.8365L15.6068 15.8355L15.638 15.8348L15.6981 15.8338L15.7243 15.8332L15.7748 15.8319L15.7964 15.8315L15.8376 15.8302L15.8545 15.8295L15.8857 15.8282L15.898 15.8275L15.9196 15.8262L15.9269 15.8255L15.9392 15.8242L15.9415 15.8236L16.0092 15.7973L16.0567 15.7724L16.0813 15.7565L16.1809 15.6848L16.2287 15.6399L16.3223 15.546L16.3615 15.4955L16.4336 15.3932L16.4565 15.3441L16.5345 15.1768L16.5352 4.76758M12.3688 10.182L12.4163 10.1863L12.4399 10.1946L12.487 10.2152L12.5103 10.2315L12.5488 10.266L12.5657 10.2939L12.571 10.3135L12.5797 10.3577L12.5813 10.3895L12.583 10.4231L12.5833 10.443L12.584 10.4848V10.5094L12.5763 10.6917L12.5637 10.8218L12.5538 10.8896L12.5322 11.027L12.5179 11.0978L12.488 11.2395L12.4701 11.3109L12.3914 11.5961L12.3433 11.7319L12.2931 11.8664L12.2666 11.9302L12.2118 12.055L12.1829 12.1128L12.07 12.3223L11.9873 12.4604L11.9428 12.5278L11.8515 12.6623L11.803 12.7277L11.7041 12.8575L11.652 12.9203L11.5461 13.0445L11.4906 13.1039L11.3787 13.2211L11.3209 13.2769L11.2041 13.3861L11.144 13.4372L11.0231 13.5375L10.9613 13.584L10.6057 13.8237L10.36 13.9622L10.2282 14.0226L10.0951 14.0814L10.0254 14.1093L9.88424 14.1634L9.80986 14.1886L9.65879 14.2388L9.5791 14.2623L9.41707 14.3088L9.33141 14.3311L9.18299 14.3696L9.37291 14.5462L9.44529 14.6179L9.48481 14.6621L9.50041 14.6827L9.52863 14.7229L9.53859 14.7418L9.55586 14.7787L9.56018 14.7959L9.56648 14.8301L9.56549 14.8467L9.56084 14.8789L9.55453 14.8949L9.53926 14.9261L9.52797 14.9417L9.5024 14.9729L9.4858 14.9885L9.45492 15.0157L9.44031 15.0257L9.41109 15.0433L9.39615 15.0479L9.36627 15.0552L9.35 15.0546L9.31713 15.0503L9.29853 15.0439L9.26035 15.0277L9.23844 15.0147L9.19262 14.9858L9.16639 14.9663L9.11094 14.9237L9.07873 14.8972L9.01133 14.8404L8.97248 14.8062L8.81078 14.6634L8.71781 14.5801L8.6783 14.5439L8.60393 14.4752L8.57305 14.4456L8.51561 14.3895L8.49236 14.3656L8.4502 14.3204L8.43393 14.3012L8.40504 14.2657L8.39541 14.2507L8.37848 14.2225L8.37383 14.2109L8.36719 14.1886V14.179L8.37383 14.1514L8.38445 14.1255L8.39242 14.1089L8.41035 14.0741L8.42197 14.0538L8.44621 14.0113L8.46016 13.9881L8.52158 13.8888L8.55744 13.834L8.63248 13.7218L8.67199 13.665L8.75201 13.5518L8.79119 13.4993L8.86789 13.3971L8.90209 13.3546L8.93563 13.3134L8.9509 13.2955L8.98012 13.2623L8.99273 13.2487L9.01664 13.2244L9.02627 13.2161L9.0442 13.2025L9.05018 13.2002L9.10463 13.1876L9.14148 13.1862L9.15941 13.1889L9.23014 13.2081L9.26035 13.2284L9.31646 13.2752L9.33439 13.3061L9.35066 13.338L9.35564 13.3552L9.36328 13.3908V13.4097L9.35266 13.4442L9.33605 13.4807L9.32377 13.504L9.29721 13.5528L9.28094 13.58L9.24707 13.6361L9.22881 13.6647L9.17734 13.7464L9.14846 13.7955L9.1375 13.8154L9.11791 13.8523L9.1126 13.8642L9.10529 13.8838L9.10695 13.8858H9.13152L9.16506 13.8808L9.1883 13.8762L9.23943 13.8656L9.26932 13.8589L9.3324 13.844L9.36594 13.8354L9.63123 13.7583L9.80023 13.7002L9.88158 13.6677L10.0416 13.5999L10.1183 13.5624L10.2701 13.4844L10.3431 13.4416L10.4875 13.3529L10.5573 13.3044L10.6951 13.2045L10.7621 13.15L10.8943 13.0385L10.9587 12.9784L11.0862 12.8545L11.1483 12.7878L11.3598 12.5438L11.487 12.3784L11.5437 12.2937L11.653 12.1227L11.7014 12.0347L11.7938 11.8564L11.8336 11.7638L11.91 11.5759L11.9422 11.4779L12.0029 11.279L12.0278 11.1745L12.074 10.9623L12.0922 10.8507L12.1248 10.6233L12.1361 10.5034L12.15 10.3915L12.1606 10.3357L12.1679 10.3152L12.1829 10.2776L12.1932 10.264L12.2148 10.2395L12.2287 10.2295L12.2981 10.1936L12.3453 10.182M10.6247 6.76475L10.6708 6.77271L10.7156 6.78135L10.7356 6.78732L10.7734 6.80027L10.789 6.80857L10.8236 6.83414L10.8578 6.86402L10.8797 6.88461L10.9265 6.92943L10.954 6.95699L11.0115 7.01477L11.0437 7.04764L11.1098 7.1157L11.1453 7.15322L11.218 7.22959L11.2559 7.2701L11.4122 7.43777L11.4923 7.52543L11.6516 7.70107L11.7273 7.78574L11.8014 7.86975L11.8366 7.90959L11.905 7.98828L11.9362 8.02447L11.9966 8.09553L12.0232 8.1274L12.0737 8.18816L12.0946 8.21439L12.1331 8.2632L12.147 8.28246L12.1713 8.31699L12.1772 8.32795L12.2251 8.43021L12.246 8.49529L12.251 8.52684L12.2569 8.58959L12.2536 8.62113L12.2437 8.68389L12.2324 8.71609L12.2055 8.78084L12.1855 8.81504L12.1414 8.8841L12.1125 8.92096L12.0501 8.99666L12.0119 9.0375L11.9305 9.1215L11.8827 9.16766L11.6307 9.40572L11.4501 9.57439L11.3568 9.66039L11.1689 9.83271L11.0759 9.91705L10.892 10.0841L10.805 10.1621L10.635 10.3135L10.5589 10.3806L10.4849 10.4456L10.4507 10.4752L10.3846 10.5326L10.3547 10.5582L10.2976 10.6067L10.273 10.6273L10.2266 10.6658L10.208 10.6811L10.1731 10.7083L10.1608 10.7172L10.1396 10.7319L10.1343 10.7342L10.0383 10.7627L9.96426 10.7734L9.92607 10.7744L9.84904 10.7737L9.81318 10.7687L9.74412 10.7564L9.7159 10.7455L9.67273 10.7236L9.63688 10.7013L9.61695 10.687L9.53395 10.6249L9.49643 10.5911L9.36063 10.4686L9.27064 10.5506L9.14314 10.6664L9.0442 10.7561L8.99307 10.8022L8.89047 10.8946L8.84332 10.9371L8.79717 10.9786L8.77625 10.9975L8.73541 11.034L8.71781 11.0499L8.58699 11.1668L8.68859 11.296L8.76397 11.4026L8.79916 11.4676L8.81012 11.5002L8.82871 11.5669L8.83303 11.6048L8.83834 11.6841L8.83734 11.7319L8.8317 11.8063L8.82307 11.8525L8.81543 11.8754L8.79783 11.9209L8.78488 11.9444L8.75566 11.9929L8.73574 12.0191L8.69225 12.0733L8.66436 12.1038L8.60426 12.1676L8.56707 12.2041L8.48771 12.2804L8.4399 12.3246L8.3383 12.4176L8.27853 12.4714L8.09393 12.6377L7.96609 12.7533L7.905 12.8087L7.78547 12.9176L7.73367 12.9648L7.68387 13.0103L7.66195 13.0305L7.61979 13.069L7.60252 13.085L7.39998 13.2719L7.28244 13.3795L7.23131 13.4256L7.13469 13.5126L7.09318 13.5495L7.01449 13.6182L6.98096 13.6468L6.91787 13.6996L6.89098 13.7208L6.84051 13.7603L6.81926 13.7756L6.77908 13.8035L6.76182 13.8138L6.72895 13.8327L6.71434 13.8393L6.6383 13.8729L6.60344 13.8832L6.53537 13.8998L6.50184 13.9001L6.43477 13.8954L6.39957 13.8838L6.32719 13.8539L6.28635 13.828L6.24484 13.8002L6.2226 13.7836L6.17711 13.7474L6.15254 13.7264L6.10207 13.682L6.07484 13.6564L6.0184 13.6026L5.98785 13.5724L5.9251 13.509L5.8909 13.4738L5.82084 13.4004L5.78266 13.3596L5.7043 13.2755L5.66146 13.2294L5.57414 13.1338L5.52666 13.0816L5.27664 12.8057L5.19961 12.7204L5.16375 12.6802L5.09436 12.6025L5.06314 12.5673L5.00338 12.4999L4.97748 12.4704L4.929 12.4149L4.90941 12.3923L4.87389 12.3508L4.86193 12.3362L4.84168 12.3113L4.8377 12.3057L4.81213 12.2546L4.79885 12.213L4.79387 12.1898L4.77992 12.0905L4.78059 12.0371L4.78689 11.9295L4.79752 11.8807L4.80914 11.8329L4.81711 11.8116L4.83371 11.7708L4.844 11.7542L4.87887 11.7117L4.92004 11.6679L4.94859 11.6386L5.01102 11.5765L5.04887 11.5397L5.12855 11.4623L5.17404 11.4188L5.26867 11.3292L5.32014 11.281L5.42572 11.1821L5.4815 11.1303L5.71193 10.9175L5.83113 10.8086L6.0702 10.5917L6.18375 10.4898L6.29631 10.3895L6.3491 10.3424L6.45303 10.2511L6.50051 10.2096L6.59281 10.1296L6.63332 10.095L6.71035 10.0296L6.74189 10.0034L6.80066 9.9559L6.82225 9.93963L6.85943 9.9124L6.86873 9.90775L6.95439 9.87223L7.01184 9.85596L7.04105 9.85131L7.09883 9.845L7.12771 9.84566L7.18549 9.84932L7.21438 9.85463L7.27148 9.86791L7.29971 9.8782L7.35582 9.90145L7.38305 9.91639L7.4375 9.94893L7.46406 9.96885L7.51652 10.011L7.54209 10.0356L7.66295 10.1531L8.42994 9.44523L8.31705 9.29682L8.25828 9.20883L8.22674 9.1484L8.21445 9.11818L8.19287 9.05709L8.1859 9.02654L8.17428 8.96545L8.17229 8.93557L8.17096 8.8758L8.17395 8.84658L8.18258 8.78881L8.19088 8.76092L8.2098 8.70613L8.22309 8.68023L8.2523 8.62943L8.2709 8.60586L8.31107 8.56203L8.35523 8.51787L8.38478 8.48898L8.44887 8.42723L8.48738 8.3907L8.5684 8.31434L8.61389 8.27184L8.70852 8.18385L8.75998 8.13637L8.8649 8.03975L8.92002 7.98895L9.14746 7.78143L9.26467 7.67551L9.49842 7.46467L9.60865 7.36639L9.71756 7.26943L9.76869 7.22428L9.8683 7.13596L9.91379 7.09611L10.0018 7.01975L10.04 6.98654L10.1123 6.92445L10.1419 6.89988L10.1957 6.85539L10.2146 6.84078L10.2468 6.81621L10.2535 6.81289L10.3082 6.79098L10.3507 6.77936L10.374 6.77504L10.4716 6.76209L10.5227 6.76176M7.10148 10.3195L7.06762 10.3401L7.02711 10.3713L6.99889 10.3945L6.93779 10.4453L6.90061 10.4772L6.82258 10.5449L6.77809 10.5841L6.68611 10.6654L6.63598 10.7099L6.53338 10.8019L6.47959 10.8507L6.25746 11.0526L6.14391 11.1572L5.91779 11.3664L5.81221 11.4656L5.70861 11.5629L5.66047 11.6088L5.56684 11.6981L5.52467 11.7386L5.44465 11.8166L5.41045 11.8505L5.34703 11.9139L5.32246 11.9391L5.27896 11.9849L5.26602 12.0002L5.25439 12.0142L5.25107 12.0188L5.24609 12.0271V12.0291L5.25008 12.0513L5.25805 12.0699L5.26635 12.0829L5.28594 12.1118L5.30154 12.1317L5.3374 12.1762L5.36297 12.2061L5.38986 12.2373L5.40547 12.2552L5.43834 12.2924L5.45727 12.3133L5.49645 12.3575L5.51869 12.3821L5.56484 12.4335L5.59074 12.4621L5.64486 12.5212L5.67475 12.554L5.73684 12.6221L5.77104 12.6596L5.84176 12.737L5.88061 12.7795L5.96063 12.8668L6.00445 12.9143L6.13295 13.0541L6.19105 13.1162L6.24783 13.1766L6.27406 13.2042L6.32486 13.2576L6.34744 13.2812L6.39094 13.326L6.4092 13.3446L6.44373 13.3795L6.45734 13.3928L6.48158 13.416L6.48955 13.423L6.5025 13.4336H6.50416L6.51479 13.4279L6.52773 13.419L6.5367 13.4123L6.57887 13.3785L6.60809 13.3539L6.67084 13.3001L6.7077 13.2679L6.78406 13.1998L6.8249 13.1627L7.0892 12.9216L7.17486 12.8436L7.21205 12.8097L7.28178 12.746L7.30734 12.7227L7.3535 12.6805L7.39168 12.646L7.41393 12.6258L7.46008 12.5836L7.48564 12.5604L7.53844 12.5125L7.56666 12.487L7.68387 12.3804L7.74563 12.3243L7.8698 12.2117L7.9299 12.1573L8.08297 12.0168L8.16631 11.9375L8.19951 11.9043L8.26027 11.8415L8.28285 11.8153L8.32303 11.7661L8.33598 11.7452L8.35689 11.706L8.36121 11.6891L8.36553 11.6569L8.36187 11.6423L8.35125 11.6137L8.34096 11.6001L8.31705 11.5726L8.30111 11.5579L8.2606 11.5271L8.23637 11.5208L8.22176 11.5271L8.20615 11.5347L8.19686 11.5413L8.17693 11.556L8.16465 11.5662L8.13875 11.5888L8.12314 11.6031L8.08961 11.634L8.06969 11.6529L7.92758 11.7718L7.88342 11.8037L7.86449 11.8153L7.82996 11.8359L7.81801 11.8402L7.75094 11.8631L7.71076 11.8727L7.69217 11.874L7.65564 11.875L7.63771 11.8717L7.60186 11.8624L7.58326 11.8538L7.54508 11.8329L7.52383 11.8179L7.48033 11.7841L7.45576 11.7621L7.40396 11.7143L7.37375 11.6845L7.311 11.621L7.27447 11.5829L7.16125 11.4623L7.0902 11.384L7.05932 11.3484L7.00121 11.281L6.97996 11.2545L6.95971 11.2289L6.95207 11.2186L6.93846 11.1994L6.93414 11.1927L6.89828 11.121L6.88234 11.0742L6.87902 11.0509L6.87471 11.0048L6.87703 10.9819L6.88467 10.9354L6.89297 10.9121L6.91223 10.8653L6.9265 10.8414L6.95805 10.7929L6.97863 10.768L7.02246 10.7179L7.04936 10.6917L7.1058 10.6389L7.139 10.611L7.30801 10.4696L7.23297 10.3895L7.16324 10.3361L7.13967 10.3248L7.12937 10.3221L7.10912 10.3181M2.33318 8.3917L2.36207 8.40166L2.41686 8.4269L2.43545 8.44748L2.45205 8.47902L2.46135 8.51555L2.465 8.54609L2.46865 8.5793L2.47031 8.59955L2.4733 8.64305L2.47463 8.66961L2.47729 8.72539L2.47828 8.75859L2.48061 8.82865L2.4816 8.86949L2.48326 8.95516L2.48393 9.00463L2.48559 9.10789L2.48592 9.16666L2.48725 9.28918L2.48758 9.35824L2.48824 9.50168L2.48857 9.58203L2.48924 9.74805L2.48957 9.84035L2.4899 10.0306V10.1355L2.49023 10.3523V10.4709V10.7153V10.8484V11.2551V11.5012L2.4899 11.6121V11.8266L2.48957 11.9225L2.48924 12.1075L2.48891 12.1895L2.48857 12.3472L2.48791 12.4169L2.48691 12.5497L2.48658 12.6078L2.48525 12.7181L2.48426 12.7655L2.4826 12.8559L2.4816 12.894L2.47928 12.9661L2.47795 12.996L2.47496 13.0521L2.4733 13.0753L2.46998 13.1178L2.46799 13.1351L2.46367 13.1666L2.46135 13.1789L2.45105 13.2194L2.44475 13.2317L2.4308 13.2523L2.4225 13.2613L2.37568 13.3028L2.34979 13.3144L2.29666 13.3313L2.2691 13.3307L2.21365 13.323L2.18643 13.3097L2.13197 13.2779L2.02539 13.171V10.8454V10.443V10.1999L2.02572 10.09V9.87787L2.02605 9.78291L2.02639 9.59963L2.02672 9.51828L2.02738 9.36156L2.02771 9.2925L2.02871 9.16068L2.02938 9.10291L2.0307 8.99301L2.03137 8.94586L2.03303 8.85621L2.03402 8.81803L2.03635 8.74631L2.03768 8.71609L2.04066 8.65998L2.04232 8.63707L2.04564 8.59424L2.04764 8.5773L2.05162 8.54576L2.05395 8.53348L2.06391 8.49297L2.07021 8.48102L2.0835 8.46143L2.0918 8.45312L2.17082 8.40498L2.23457 8.38838L2.26744 8.38771M14.8129 8.38738L14.8425 8.39734L14.8986 8.42424L14.9198 8.44748L14.9364 8.47902L14.9457 8.51588L14.9494 8.54643L14.953 8.5793L14.9547 8.59988L14.9577 8.64338L14.959 8.66994L14.9617 8.72606L14.9627 8.75926L14.965 8.82965L14.966 8.87049L14.9676 8.95648L14.9683 9.00596L14.97 9.10955L14.9703 9.16865L14.9716 9.2915L14.972 9.36057L14.9726 9.50434L14.9729 9.58469L14.9736 9.75137L14.9739 9.84367L14.9743 10.0346V10.1398L14.9746 10.357V10.4762V10.7212V10.8547V11.2604V11.5058L14.9743 11.6167V11.8305L14.9739 11.9265L14.9736 12.1114L14.9733 12.1938L14.9726 12.3518L14.9723 12.4212L14.9713 12.5547L14.9706 12.6128L14.9693 12.7234L14.9686 12.7712L14.967 12.8615L14.966 12.9L14.9637 12.9724L14.9623 13.0026L14.9593 13.0594L14.958 13.0826L14.9544 13.1255L14.9524 13.1427L14.9484 13.1746L14.9461 13.1869L14.9361 13.2277L14.9298 13.2397L14.9165 13.2593L14.9082 13.2676L14.864 13.3044L14.8398 13.3147L14.7893 13.331H14.7631L14.7096 13.3263L14.6831 13.3164L14.63 13.2912L14.6047 13.2706L14.5264 13.2071L14.5174 10.8853L14.5157 10.4782L14.5151 10.2321L14.5147 10.1213L14.5141 9.90742L14.5138 9.8118L14.5134 9.62719V9.54551V9.38846V9.31939L14.5141 9.18725L14.5144 9.12947L14.5154 9.02023L14.5161 8.97309L14.5174 8.88377L14.5184 8.84592L14.5204 8.77453L14.5217 8.74498L14.5244 8.6892L14.526 8.66662L14.5294 8.62412L14.5313 8.60719L14.5357 8.57598L14.538 8.56369L14.5486 8.52219L14.5553 8.50891L14.5692 8.486L14.5778 8.47504L14.6549 8.41262L14.7166 8.38871L14.7488 8.38605M9.32643 9.2832L9.31414 9.29018L9.29887 9.30146L9.28758 9.31043L9.26301 9.33035L9.24707 9.34363L9.21354 9.37186L9.19361 9.38912L9.15178 9.42531L9.12787 9.44623L9.07807 9.49006L9.05018 9.51463L8.99273 9.56543L8.96119 9.59365L8.89678 9.65143L8.86191 9.68264L8.71582 9.81412L8.63381 9.8885L8.46414 10.0429L8.37117 10.1276L8.18059 10.3019L8.07898 10.3955L7.87113 10.5871L7.76189 10.688L7.40562 11.0174L7.54607 11.1781L7.58426 11.2213L7.60152 11.2405L7.63473 11.2774L7.64834 11.292L7.67357 11.3186L7.68221 11.3272L7.69582 11.3401H7.69748L7.70545 11.3352L7.71641 11.3269L7.72437 11.3202L7.76256 11.2883L7.78979 11.2648L7.84855 11.2133L7.88375 11.1821L7.9568 11.1167L7.99631 11.0808L8.06238 11.0211L8.11219 10.9759L8.13941 10.9513L8.2543 10.8474L8.31672 10.7913L8.44289 10.6774L8.50531 10.6216L8.62783 10.5111L8.68262 10.4619L9.01266 10.1608L9.11758 10.0635L9.16672 10.0173L9.26268 9.92734L9.30584 9.88617L9.38885 9.80682L9.42404 9.77262L9.49012 9.70787L9.51568 9.68197L9.56117 9.63549L9.57479 9.62021L9.58674 9.60627L9.59039 9.60162L9.5957 9.59365V9.59232L9.58541 9.56975L9.56914 9.54584L9.55752 9.53057L9.5034 9.4625L9.47152 9.42564L9.40678 9.35359L9.38021 9.32703L9.35531 9.30279L9.34602 9.29516L9.33008 9.2832M7.66295 5.56611L7.70445 5.5701L7.72703 5.5774L7.77318 5.595L7.79842 5.60895L7.85021 5.64049L7.87844 5.66141L7.93654 5.70689L7.96809 5.73512L8.03316 5.79488L8.06836 5.83008L8.07732 5.83838L8.08861 5.84867L8.09658 5.85564L8.1341 5.88984L8.16066 5.91342L8.21777 5.96488L8.25131 5.99477L8.32137 6.05719L8.35889 6.09105L8.47742 6.19863L8.53951 6.25939L8.56209 6.28629L8.6016 6.33875L8.61256 6.36432L8.62916 6.41545L8.62883 6.44268L8.62252 6.49879L8.6109 6.53133L8.58168 6.59939L8.55844 6.64023L8.50598 6.72689L8.47145 6.77969L8.43525 6.83414L8.41467 6.86402L8.37283 6.92578L8.34959 6.95965L8.23504 7.124L8.16365 7.22328L8.13277 7.26479L8.10289 7.30463L8.08961 7.32189L8.06437 7.35443L8.05375 7.36771L8.03416 7.39162L8.02652 7.39992L8.01324 7.4142L8.00926 7.41686L7.94949 7.44076L7.90168 7.44375L7.87578 7.4391L7.82398 7.42582L7.79875 7.41354L7.74928 7.38564L7.72803 7.36639L7.68055 7.294L7.67059 7.2349L7.67656 7.19971L7.69582 7.12533L7.71641 7.08184L7.76488 6.9902L7.80041 6.93773L7.85055 6.86203L7.87943 6.81721L7.89039 6.79894L7.91064 6.76574L7.91662 6.75545L7.92525 6.73852L7.92459 6.73752L7.89803 6.73652L7.86316 6.74117L7.83893 6.74615L7.78613 6.75678L7.75492 6.76408L7.68984 6.77969L7.65465 6.78865L7.50789 6.8275L7.43717 6.84842L7.36777 6.86934L7.33656 6.87963L7.2768 6.89955L7.25256 6.90885L6.93979 7.04398L6.73758 7.14857L6.64029 7.20801L6.44871 7.33053L6.35707 7.39826L6.17744 7.53771L6.09244 7.61309L5.92643 7.76748L5.84906 7.84982L5.69832 8.0175L5.62926 8.10615L5.49545 8.28611L5.43568 8.37975L5.3208 8.57033L5.271 8.66895L5.19562 8.8333L5.14715 8.95416L5.12391 9.01857L5.03559 9.28486L4.99973 9.42133L4.9652 9.55779L4.95059 9.62453L4.92369 9.75602L4.9134 9.81844L4.89514 9.94062L4.88949 9.99607L4.88119 10.1037L4.88086 10.1505L4.8616 10.2614L4.83238 10.3321L4.81213 10.358L4.76896 10.4045L4.74539 10.4184L4.69725 10.44L4.67102 10.4417L4.61822 10.4387L4.59 10.4277L4.53322 10.3998L4.50334 10.3766L4.45852 10.3347L4.43826 10.3062L4.43195 10.2889L4.42166 10.2517L4.41934 10.2268L4.41602 10.1724V10.1359L4.42033 10.0253L4.4273 9.94229L4.43229 9.89746L4.45752 9.70953L4.47578 9.60992L4.51562 9.40871L4.5392 9.31242L4.56344 9.21746L4.57606 9.17264L4.60195 9.08498L4.61523 9.04514L4.72746 8.74797L4.81346 8.55473L4.8616 8.46076L4.96121 8.27482L5.016 8.18518L5.12889 8.00754L5.18998 7.92221L5.31549 7.75387L5.38256 7.67385L5.51969 7.5158L5.5924 7.44109L5.74049 7.29467L5.81852 7.22627L5.97689 7.09213L6.05957 7.03037L6.1957 6.93574L6.29764 6.87133L6.35242 6.83945L6.58252 6.71195L6.70504 6.65285L6.9524 6.53897L7.07227 6.49215L7.1908 6.44732L7.24758 6.42807L7.35814 6.39254L7.40961 6.37893L7.54674 6.34207L7.63074 6.31949L7.6666 6.30986L7.73234 6.29193L7.75592 6.28529L7.77717 6.27965L7.78514 6.27732L7.79842 6.27367L7.80174 6.27268L7.81104 6.25475L7.80141 6.23184L7.78846 6.2149L7.75691 6.17738L7.73301 6.15248L7.67955 6.09936L7.64402 6.06682L7.56932 5.9951L7.52848 5.9526L7.51254 5.934L7.48332 5.89748L7.47303 5.88088L7.4551 5.84867L7.44979 5.83373L7.44248 5.80385V5.78957L7.44514 5.76068L7.45012 5.74607L7.46207 5.71686L7.4717 5.70125L7.49262 5.66937L7.50623 5.65178L7.55371 5.60363L7.58758 5.58139L7.60551 5.57508L7.64303 5.56578M10.5141 7.22461L10.4855 7.23523L10.456 7.25316L10.4361 7.26711L10.3926 7.29898L10.3657 7.32023L10.3086 7.36572L10.275 7.39395L10.2043 7.45338L10.1638 7.48824L10.0798 7.56129L10.0327 7.60279L9.93537 7.68912L9.88191 7.73727L9.77168 7.83721L9.71158 7.89199L9.55221 8.03775L9.45393 8.12773L9.40877 8.16924L9.32045 8.24992L9.28027 8.28711L9.20191 8.35916L9.16605 8.39203L9.09666 8.45611L9.06545 8.485L9.00469 8.54111L8.97746 8.56668L8.925 8.61549L8.90176 8.6374L8.85693 8.6799L8.83701 8.6985L8.76496 8.76756L8.7384 8.79379L8.69125 8.84094L8.67564 8.85787L8.64941 8.88742L8.64244 8.89705L8.63281 8.91299V8.91697L8.63846 8.93391L8.64709 8.95051L8.6534 8.9608L8.68328 9.00662L8.70254 9.03086L8.77227 9.11951L8.91471 8.98836L9.01033 8.90635L9.07143 8.8602L9.10031 8.8416L9.15775 8.8074L9.18531 8.79478L9.23943 8.77221L9.265 8.76523L9.3158 8.75428L9.34037 8.75295L9.38818 8.75361L9.41109 8.75826L9.45592 8.77022L9.4775 8.78051L9.52 8.80408L9.54025 8.82002L9.56283 8.83928L9.58209 8.85721L9.59371 8.8685L9.64451 8.91896L9.67473 8.95051L9.73881 9.01758L9.77301 9.05443L9.8424 9.13047L9.87693 9.16898L9.95496 9.25731L9.99746 9.30678L10.0147 9.32769L10.0466 9.36721L10.0589 9.38414L10.0815 9.41668L10.0898 9.43096L10.1157 9.48475L10.1206 9.51164L10.127 9.56676V9.60262L10.122 9.6916L10.1104 9.73842L10.0967 9.76166L10.0639 9.8098L10.036 9.84002L10.0061 9.87189L9.9875 9.89082L9.94799 9.93L9.92441 9.95324L9.72154 10.1515L9.79725 10.2321L9.84107 10.2743L9.86166 10.2889L9.88158 10.3022L9.88988 10.3062L9.90516 10.3125H9.91047L9.92109 10.3079L9.93305 10.2999L9.94135 10.2939L9.9802 10.2637L10.0081 10.2408L10.0685 10.1903L10.1054 10.1584L10.1837 10.0907L10.2286 10.0515L10.3212 9.96984L10.3717 9.92502L10.4753 9.83238L10.53 9.78324L10.7555 9.57938L10.8707 9.47379L11.1011 9.26195L11.2087 9.16168L11.3146 9.06307L11.3638 9.01691L11.4594 8.9266L11.5022 8.88576L11.5842 8.80707L11.6191 8.7732L11.6838 8.70912L11.7088 8.68389L11.7532 8.63773L11.7665 8.62279L11.7785 8.60885L11.7818 8.6042L11.7871 8.59623V8.59457L11.7841 8.57332L11.7775 8.55639L11.7702 8.54477L11.7529 8.51854L11.7386 8.49994L11.7054 8.4591L11.6819 8.43121L11.6287 8.36979L11.5929 8.32928L11.5554 8.28744L11.5341 8.26387L11.4896 8.21439L11.4647 8.18684L11.4126 8.12939L11.3837 8.09752L11.3233 8.03145L11.2901 7.99492L11.221 7.91922L11.1831 7.87771L11.1048 7.79205L11.062 7.74523L10.9444 7.61773L10.874 7.54236L10.8425 7.50949L10.7817 7.44674L10.7552 7.41984L10.7037 7.36871L10.6814 7.34779L10.6393 7.30828L10.6213 7.29301L10.5878 7.26445L10.5739 7.25449L10.5483 7.23689L10.5383 7.23191L10.5204 7.22461M9.20889 2.31885L9.14613 2.42875L9.09766 2.51309L9.07076 2.5599L9.01564 2.65619L8.98609 2.70766L8.92633 2.81225L8.89479 2.8667L8.76762 3.08883L8.70387 3.19973L8.57736 3.41953L8.51992 3.51947L8.35756 3.80436L8.30875 3.89068L8.2865 3.93053L8.24334 4.00756L8.22441 4.04176L8.18822 4.10717L8.17328 4.13473L8.14506 4.18652L8.13443 4.20678L8.11584 4.24297L8.1102 4.25459L8.10156 4.27318V4.27484L8.10887 4.27684L8.12348 4.27783L8.15934 4.27949L8.18756 4.28049L8.25064 4.28248L8.29182 4.28314L8.3808 4.2848L8.43426 4.2858L8.54748 4.28746L8.61256 4.28813L8.74836 4.28979L8.82439 4.29045L8.98145 4.29178L9.06744 4.29277L9.24475 4.2941L9.34037 4.29443L9.53594 4.29576L9.64019 4.29643L9.8527 4.29742L9.96492 4.29809L10.193 4.29908L10.3126 4.29941L10.5549 4.30008L10.6811 4.30041L10.9361 4.30107L11.0679 4.30141L11.3342 4.30207H11.4713L12.0285 4.30273H16.5352L16.5345 3.41455L16.5342 3.26912V3.18047L16.5338 3.13996L16.5335 3.06127L16.5332 3.02574L16.5325 2.95668L16.5322 2.92547L16.5305 2.80893L16.5288 2.76178L16.5259 2.67445L16.5235 2.63959L16.5182 2.57518L16.5149 2.54928L16.5076 2.5018L16.5029 2.48188L16.4817 2.41148L16.4661 2.37695L16.3917 2.24414L16.3303 2.1608L16.2951 2.12262L16.2214 2.04957L16.1809 2.0177L16.0979 1.95793L16.0537 1.93402L15.9209 1.8623L9.47949 1.8457M6.54002 1.85135H6.30361L6.18143 1.85168H5.93439L5.80723 1.85201L5.29092 1.85268L5.02197 1.85334L1.1123 1.8623L0.934004 1.96092L0.804844 2.04459L0.731797 2.10535L0.700586 2.13988L0.641152 2.2126L0.614922 2.25477L0.564785 2.34342L0.541543 2.39521L0.511328 2.49383L0.503691 2.53732L0.500371 2.56422L0.494395 2.621L0.491738 2.65619L0.48709 2.7309L0.485098 2.77639L0.481445 2.87301L0.479785 2.93078L0.476465 3.05297L0.475137 3.12535L0.47248 3.27775L0.471152 3.36641L0.467832 3.69611L0.4675 3.79705V3.8432L0.467832 3.93352V3.97369L0.468828 4.05072L0.46916 4.08359L0.470488 4.14535L0.471152 4.16959L0.472813 4.21342L0.474141 4.2277L0.476133 4.25127L0.477461 4.25459L0.481113 4.25957L0.486426 4.26189L0.498711 4.26654L0.509004 4.26854L0.532246 4.27252L0.548848 4.27451L0.585039 4.27816L0.608613 4.27949L0.659414 4.28281L0.691289 4.28414L0.759355 4.2868L0.800527 4.28813L0.88752 4.29045L0.938652 4.29145L1.04689 4.29344L1.10965 4.29443L1.2408 4.29576L1.31584 4.29676L1.47223 4.29809L1.56055 4.29842L1.74449 4.29941L1.84709 4.30008L2.06025 4.30074L2.17846 4.30107L2.42316 4.30174H2.55764L2.83555 4.3024H2.98795H3.14234H3.22303L3.38672 4.30273H3.47205H3.64504H3.73535H3.9183H4.01326H7.5308L7.68021 4.04541L7.93588 3.60514L8.09691 3.32656L8.17229 3.19674L8.31838 2.9434L8.38478 2.82785L8.4502 2.71463L8.48107 2.66084L8.54117 2.55592L8.56939 2.50711L8.62418 2.41115L8.64941 2.36699L8.69855 2.281L8.7208 2.24215L8.76397 2.16645L8.78289 2.13291L8.81941 2.06883L8.83502 2.04094L8.86424 1.98848L8.87619 1.96723L8.89844 1.92705L8.90674 1.91211L8.92102 1.88555L8.92533 1.87725L8.93164 1.8643V1.8633L8.91139 1.86164L8.87785 1.86031L8.85195 1.85965L8.79318 1.85865L8.755 1.85832L8.67266 1.85732L8.62318 1.85666L8.51826 1.856L8.45783 1.85533L8.33199 1.85467L8.2616 1.85434L8.11584 1.85367L8.03582 1.85334L7.8718 1.85268H7.78314L7.60186 1.85234L7.50523 1.85201L7.30801 1.85168H7.20408L6.99225 1.85135H6.88168H6.65689M6.57488 2.30092L6.62635 2.31818L6.72629 2.35969L6.77311 2.39057L6.86574 2.45963L6.91123 2.50512L6.98262 2.5858L7.02379 2.64225L7.04105 2.67146L7.10248 2.79133L7.12107 2.85408L7.15029 2.98059L7.15295 3.04434L7.15096 3.17217L7.13867 3.23426L7.10646 3.35744L7.07924 3.41555L7.01781 3.52877L6.97664 3.57957L6.88766 3.67686L6.83287 3.71803L6.77643 3.75754L6.74588 3.77514L6.68313 3.80834L6.64926 3.82262L6.55895 3.85416L6.51213 3.86246L6.41684 3.87441L6.36836 3.87342L6.27107 3.86678L6.22293 3.85682L6.1273 3.83291L6.08082 3.81465L5.98951 3.77447L5.94668 3.74891L5.86301 3.69412L5.82516 3.66158L5.75244 3.59318L5.72123 3.55434L5.66246 3.47332L5.63955 3.42883L5.59871 3.3352L5.57812 3.27178L5.57082 3.2399L5.5509 3.11207L5.55289 3.04898L5.56418 2.92348L5.58078 2.86338L5.62096 2.74551L5.65084 2.69139L5.71691 2.58613L5.75875 2.53998L5.84773 2.45232L5.9002 2.4168L6.00977 2.35205L6.07119 2.33014L6.13361 2.30988L6.16615 2.30258L6.23256 2.29029L6.26742 2.28697L6.461 2.28498M4.34031 2.27768L4.50467 2.28863L4.60229 2.30756L4.64645 2.32283L4.73244 2.35836L4.77228 2.38293L4.85064 2.43639L4.8885 2.47059L4.96254 2.54596L5.0057 2.59975L5.0243 2.62797L5.0907 2.74418L5.11195 2.80561L5.14715 2.93111L5.15312 2.9952L5.15777 3.12369L5.14914 3.18711L5.12391 3.31295L5.10066 3.37271L5.04688 3.48992L5.00936 3.54305L4.92734 3.64564L4.87621 3.68947L4.82342 3.73164L4.79453 3.75057L4.7351 3.78676L4.70289 3.80236L4.60561 3.84154L4.55115 3.85316L4.43859 3.87076L4.38049 3.87043L4.24934 3.86014L4.166 3.8442L4.12682 3.83191L4.05012 3.80436L4.01459 3.78709L3.94453 3.74957L3.91266 3.72766L3.85023 3.68117L3.82201 3.65527L3.76756 3.60148L3.74365 3.57193L3.6975 3.5115L3.67791 3.4793L3.64105 3.41355L3.62611 3.37902L3.59855 3.30896L3.58859 3.27311L3.571 3.20006L3.56635 3.16287L3.55904 3.08816L3.55971 3.05064L3.56369 2.97561L3.57 2.93809L3.58561 2.86338L3.59789 2.82652L3.62545 2.75348L3.64404 2.71828L3.68422 2.64822L3.70912 2.61469L3.76225 2.54861L3.79412 2.51773L3.92229 2.40949L4.00828 2.35404L4.05277 2.33445L4.14275 2.30059L4.19057 2.29129L4.28785 2.27734M2.46234 2.28531L2.56693 2.29527L2.60811 2.30623L2.75121 2.36799L2.84352 2.42975L2.88602 2.46893L2.96736 2.5516L3.00156 2.59842L3.06465 2.69537L3.08656 2.74684L3.13271 2.88762L3.15031 2.98291L3.15264 3.03072L3.1533 3.12568L3.14732 3.1725L3.13172 3.26547L3.11777 3.30996L3.08623 3.39828L3.06498 3.44012L3.01816 3.5218L2.98961 3.55932L2.92885 3.63236L2.89299 3.66457L2.81861 3.72666L2.77645 3.75256L2.67684 3.80701L2.62504 3.82494L2.52012 3.85549L2.46699 3.86213L2.36008 3.86977L2.30695 3.86545L2.20137 3.85117L2.15023 3.83623L2.0493 3.80104L2.00148 3.7758L1.90785 3.72068L1.86502 3.68582L1.78268 3.61178L1.74648 3.56762L1.67809 3.47531L1.6502 3.42285L1.61998 3.35047L1.60371 3.29602L1.5974 3.26646L1.57848 3.14361L1.57715 3.07953L1.58014 2.9517L1.5901 2.89326L1.60139 2.83582L1.60902 2.80992L1.62629 2.76012L1.63691 2.73854L1.70631 2.62631L1.76508 2.55193L1.79795 2.51707L1.86602 2.45033L1.90088 2.42277L1.97061 2.37131L2.00381 2.35437L2.06092 2.3308L2.10574 2.31719L2.13098 2.31154L2.23656 2.29229L2.29367 2.28797L2.40855 2.28232M13.3556 2.279L13.503 2.27934L13.5688 2.27967L13.695 2.281L13.7507 2.28232L13.858 2.28498L13.9051 2.28697L13.9951 2.29096L14.0346 2.29395L14.1097 2.29992L14.1425 2.30357L14.2046 2.31154L14.2319 2.31619L14.283 2.32648L14.3056 2.33246L14.3862 2.35902L14.4181 2.37662L14.4779 2.4148L14.5054 2.43904L14.5602 2.49051L14.5914 2.52172L14.6821 2.62432L14.7322 2.69371L14.7521 2.72924L14.789 2.80029L14.8026 2.83648L14.8259 2.9092L14.8325 2.94605L14.8425 3.02043L14.8421 3.05828L14.8388 3.13432L14.8318 3.17283L14.8149 3.2502L14.8013 3.28938L14.7707 3.3684L14.7505 3.40824L14.6572 3.55234L14.5798 3.63967L14.536 3.67719L14.4457 3.74791L14.3975 3.7748L14.3006 3.82295L14.2514 3.83623L14.2236 3.84154L14.1973 3.84387L14.1369 3.84852L14.0947 3.85084L14.0028 3.85449L13.9453 3.85648L13.8238 3.85947L13.7521 3.86113L13.6023 3.86346L13.5173 3.86445L13.3404 3.86645L13.2427 3.86711L13.0409 3.86811H12.931L12.7052 3.86844H12.584L12.2865 3.86777L12.1065 3.86744L12.0255 3.86711L11.8688 3.86611L11.7984 3.86578L11.6626 3.86445L11.6022 3.86346L11.4856 3.86146L11.4342 3.86014L11.3352 3.85748L11.2917 3.85549L11.208 3.85184L11.1715 3.84918L11.1018 3.8442L11.0716 3.84088L11.0135 3.83424L10.9886 3.83025L10.9404 3.82195L10.9195 3.8173L10.8435 3.79572L10.8133 3.78211L10.7562 3.75189L10.7299 3.73297L10.6775 3.69279L10.6476 3.66822L10.5715 3.59717L10.5271 3.5467L10.5075 3.5198L10.4381 3.4099L10.4152 3.35146L10.377 3.23193L10.3693 3.17051L10.3617 3.04666L10.3693 2.98523L10.3916 2.86305L10.4135 2.80428L10.465 2.68873L10.5015 2.63527L10.5815 2.53201L10.6323 2.48686L10.6844 2.4427L10.7133 2.42277L10.7724 2.38393L10.8046 2.36666L10.8528 2.34309L10.8876 2.33014L10.9105 2.32516L10.9607 2.31553L10.9959 2.31154L11.0331 2.30822L11.055 2.30656L11.1011 2.30357L11.1284 2.30225L11.1851 2.29959L11.2177 2.29859L11.2867 2.29627L11.3263 2.29527L11.4086 2.29361L11.4554 2.29295L11.5534 2.29129L11.6085 2.29063L11.7227 2.2893L11.7868 2.28863L11.9199 2.2873L11.9936 2.28697L12.1464 2.28564L12.231 2.28498L12.4054 2.28398L12.501 2.28332L12.825 2.281L13.0206 2.28L13.1089 2.27934L13.2793 2.279M4.30379 2.74783L4.2583 2.75779L4.23639 2.76643L4.19355 2.78602L4.17396 2.7993L4.13545 2.82852L4.11852 2.84678L4.08631 2.88529L4.07303 2.90787L4.02754 3.0118L4.01691 3.07654L4.02156 3.10775L4.0375 3.16918L4.05543 3.20006L4.09859 3.26148L4.13047 3.29336L4.17695 3.33553L4.20086 3.35146L4.24967 3.37969L4.27424 3.38898L4.32404 3.40393L4.34861 3.40625L4.39775 3.40791L4.42199 3.40393L4.4698 3.39264L4.49238 3.38201L4.53721 3.35777L4.55813 3.34084L4.59863 3.30398L4.61689 3.28107L4.65209 3.23193L4.66736 3.20271L4.6999 3.10277L4.70289 3.03637L4.69525 3.00416L4.67367 2.94074L4.65375 2.91086L4.60859 2.85242L4.57705 2.82619L4.51297 2.7827L4.46781 2.76211L4.44457 2.75547L4.39775 2.74518L4.37418 2.74385H4.32703M6.34412 2.74053L6.26908 2.75381L6.23189 2.77273L6.15852 2.81922L6.12266 2.85508L6.07252 2.91152L6.04596 2.94838L6.03633 2.96664L6.01973 3.00283L6.01508 3.02076L6.00777 3.05629V3.07422L6.0101 3.10975L6.01508 3.12768L6.02703 3.16354L6.03633 3.1818L6.05791 3.21832L6.07252 3.23691L6.1034 3.2741L6.12266 3.29336L6.16914 3.33553L6.19305 3.35146L6.24186 3.37969L6.26643 3.38898L6.31623 3.40393L6.3408 3.40625L6.38994 3.40791L6.41418 3.40393L6.46199 3.39264L6.48457 3.38201L6.52939 3.35777L6.55031 3.34084L6.59082 3.30398L6.60908 3.28107L6.64428 3.23193L6.65955 3.20271L6.69209 3.10277L6.69508 3.03637L6.68744 3.00416L6.66586 2.94074L6.64594 2.91086L6.60078 2.85242L6.56924 2.82619L6.45734 2.75813L6.38197 2.7382M2.36904 2.7382L2.33053 2.74186L2.31094 2.74684L2.27242 2.75979L2.25283 2.76941L2.21432 2.791L2.19539 2.80527L2.15721 2.83615L2.13828 2.85508L2.08814 2.91152L2.06158 2.94838L2.05195 2.96664L2.03535 3.00283L2.0307 3.02076L2.0234 3.05629V3.07422L2.02572 3.10975L2.0307 3.12768L2.04266 3.16354L2.05195 3.1818L2.07354 3.21832L2.08814 3.23691L2.11902 3.2741L2.13828 3.29336L2.17979 3.3332L2.19871 3.34781L2.23523 3.37404L2.25316 3.38268L2.28936 3.39729L2.30895 3.40094L2.34945 3.40625H2.37336L2.47363 3.39031L2.53273 3.36541L2.55764 3.34682L2.60478 3.30631L2.62338 3.28141L2.65691 3.22928L2.6682 3.20039L2.68647 3.14096L2.68979 3.10975L2.69178 3.04666L2.6858 3.01512L2.66953 2.9527L2.65426 2.92314L2.6184 2.86504L2.5925 2.83914L2.53871 2.79332L2.50219 2.76975L2.48326 2.76145L2.44574 2.74684L2.42682 2.74285L2.3883 2.73754M11.8077 2.74684L11.644 2.74717L11.5713 2.7475L11.4318 2.7485L11.3727 2.74883L11.2618 2.75016L11.2187 2.75082L11.1775 2.75182L11.1602 2.75215L11.128 2.75314L11.1154 2.75348L11.0928 2.75447L11.0852 2.75514L11.0726 2.75613L11.0703 2.7568L10.9776 2.80096L10.9218 2.84744L10.8989 2.87666L10.8578 2.93842L10.8445 2.97162L10.8242 3.03969V3.07289L10.8365 3.15889L10.8574 3.21068L10.8747 3.23459L10.9145 3.28107L10.9418 3.30299L11.0019 3.34648L11.04 3.36807L11.0583 3.37438L11.0779 3.37703L11.1237 3.38234L11.1576 3.38467L11.2323 3.38865L11.2814 3.39031L11.387 3.39363L11.4518 3.39463L11.5896 3.39695L11.6709 3.39762L11.8422 3.39861L11.9412 3.39895H12.0424H12.0962H12.2065H12.2652L12.3844 3.39861L12.4479 3.39828L12.5767 3.39795L12.6447 3.39762L14.1834 3.38965L14.28 3.28107L14.3507 3.17416L14.3756 3.10078L14.3773 3.06393L14.3726 2.99055L14.3594 2.95502L14.3252 2.88496L14.2969 2.85209L14.2166 2.75879L12.6783 2.74916L12.3678 2.74783L12.1689 2.74717L12.0753 2.74684H11.892H11.8077Z" fill="white"/>
</svg>
